MonaSans-CondensedBlack.ufo
<glyph name="exclam" format="2">
  <advance width="227"/>
  <unicode hex="0021"/>
  <outline>
    <contour>
      <point x="74" y="232" type="line"/>
      <point x="153" y="232" type="line"/>
      <point x="201" y="507" type="line"/>
      <point x="201" y="729" type="line"/>
      <point x="25" y="729" type="line"/>
      <point x="25" y="507" type="line"/>
    </contour>
    <contour>
      <point x="113" y="-10" type="curve" smooth="yes"/>
      <point x="168" y="-10"/>
      <point x="209" y="22"/>
      <point x="209" y="77" type="curve" smooth="yes"/>
      <point x="209" y="132"/>
      <point x="168" y="164"/>
      <point x="113" y="164" type="curve" smooth="yes"/>
      <point x="58" y="164"/>
      <point x="17" y="132"/>
      <point x="17" y="77" type="curve" smooth="yes"/>
      <point x="17" y="22"/>
      <point x="58" y="-10"/>
    </contour>
  </outline>
</glyph>
<glyph name="numbersign" format="2">
  <advance width="562"/>
  <unicode hex="0023"/>
  <outline>
    <contour>
      <point x="103" y="0" type="line"/>
      <point x="241" y="0" type="line"/>
      <point x="241" y="192" type="line"/>
      <point x="322" y="192" type="line"/>
      <point x="322" y="0" type="line"/>
      <point x="459" y="0" type="line"/>
      <point x="459" y="192" type="line"/>
      <point x="549" y="192" type="line"/>
      <point x="549" y="315" type="line"/>
      <point x="459" y="315" type="line"/>
      <point x="459" y="417" type="line"/>
      <point x="549" y="417" type="line"/>
      <point x="549" y="540" type="line"/>
      <point x="459" y="540" type="line"/>
      <point x="459" y="729" type="line"/>
      <point x="322" y="729" type="line"/>
      <point x="322" y="540" type="line"/>
      <point x="241" y="540" type="line"/>
      <point x="241" y="729" type="line"/>
      <point x="103" y="729" type="line"/>
      <point x="103" y="540" type="line"/>
      <point x="13" y="540" type="line"/>
      <point x="13" y="417" type="line"/>
      <point x="103" y="417" type="line"/>
      <point x="103" y="315" type="line"/>
      <point x="13" y="315" type="line"/>
      <point x="13" y="192" type="line"/>
      <point x="103" y="192" type="line"/>
    </contour>
    <contour>
      <point x="241" y="315" type="line"/>
      <point x="241" y="417" type="line"/>
      <point x="322" y="417" type="line"/>
      <point x="322" y="315" type="line"/>
    </contour>
  </outline>
</glyph>
<glyph name="dollar" format="2">
  <advance width="458"/>
  <unicode hex="0024"/>
  <outline>
    <contour>
      <point x="228" y="8" type="curve" smooth="yes"/>
      <point x="369" y="8"/>
      <point x="439" y="74"/>
      <point x="439" y="212" type="curve" smooth="yes"/>
      <point x="439" y="327"/>
      <point x="368" y="389"/>
      <point x="284" y="438" type="curve" smooth="yes"/>
      <point x="218" y="476"/>
      <point x="199" y="494"/>
      <point x="199" y="540" type="curve" smooth="yes"/>
      <point x="199" y="571"/>
      <point x="209" y="590"/>
      <point x="235" y="590" type="curve" smooth="yes"/>
      <point x="264" y="590"/>
      <point x="276" y="568"/>
      <point x="275" y="504" type="curve"/>
      <point x="433" y="504" type="line"/>
      <point x="433" y="659"/>
      <point x="355" y="722"/>
      <point x="232" y="722" type="curve" smooth="yes"/>
      <point x="108" y="722"/>
      <point x="23" y="664"/>
      <point x="23" y="527" type="curve" smooth="yes"/>
      <point x="23" y="410"/>
      <point x="88" y="352"/>
      <point x="164" y="308" type="curve" smooth="yes"/>
      <point x="233" y="268"/>
      <point x="260" y="246"/>
      <point x="260" y="196" type="curve" smooth="yes"/>
      <point x="260" y="163"/>
      <point x="251" y="143"/>
      <point x="222" y="143" type="curve" smooth="yes"/>
      <point x="191" y="143"/>
      <point x="174" y="166"/>
      <point x="174" y="239" type="curve"/>
      <point x="19" y="239" type="line"/>
      <point x="19" y="100"/>
      <point x="78" y="8"/>
    </contour>
    <contour>
      <point x="177" y="-85" type="line"/>
      <point x="282" y="-85" type="line"/>
      <point x="282" y="67" type="line"/>
      <point x="177" y="67" type="line"/>
    </contour>
    <contour>
      <point x="177" y="643" type="line"/>
      <point x="282" y="643" type="line"/>
      <point x="282" y="815" type="line"/>
      <point x="177" y="815" type="line"/>
    </contour>
  </outline>
</glyph>
<glyph name="ampersand" format="2">
  <advance width="640"/>
  <unicode hex="0026"/>
  <outline>
    <contour>
      <point x="541" y="-7" type="curve" smooth="yes"/>
      <point x="573" y="-7"/>
      <point x="606" y="-2"/>
      <point x="622" y="5" type="curve"/>
      <point x="622" y="151" type="line"/>
      <point x="607" y="147"/>
      <point x="592" y="145"/>
      <point x="578" y="145" type="curve" smooth="yes"/>
      <point x="530" y="145"/>
      <point x="500" y="160"/>
      <point x="457" y="219" type="curve" smooth="yes"/>
      <point x="303" y="432" type="line" smooth="yes"/>
      <point x="275" y="471"/>
      <point x="251" y="510"/>
      <point x="251" y="550" type="curve" smooth="yes"/>
      <point x="251" y="575"/>
      <point x="259" y="597"/>
      <point x="283" y="597" type="curve" smooth="yes"/>
      <point x="298" y="597"/>
      <point x="314" y="588"/>
      <point x="314" y="552" type="curve" smooth="yes"/>
      <point x="314" y="517"/>
      <point x="296" y="474"/>
      <point x="269" y="454" type="curve"/>
      <point x="327" y="367" type="line"/>
      <point x="424" y="415"/>
      <point x="469" y="489"/>
      <point x="469" y="566" type="curve" smooth="yes"/>
      <point x="469" y="670"/>
      <point x="394" y="739"/>
      <point x="281" y="739" type="curve" smooth="yes"/>
      <point x="166" y="739"/>
      <point x="79" y="670"/>
      <point x="79" y="546" type="curve" smooth="yes"/>
      <point x="79" y="476"/>
      <point x="107" y="412"/>
      <point x="155" y="347" type="curve" smooth="yes"/>
      <point x="329" y="109" type="line" smooth="yes"/>
      <point x="395" y="19"/>
      <point x="455" y="-7"/>
    </contour>
    <contour>
      <point x="209" y="-10" type="curve" smooth="yes"/>
      <point x="285" y="-10"/>
      <point x="357" y="19"/>
      <point x="388" y="63" type="curve"/>
      <point x="307" y="164" type="line"/>
      <point x="304" y="147"/>
      <point x="280" y="135"/>
      <point x="254" y="135" type="curve" smooth="yes"/>
      <point x="216" y="135"/>
      <point x="190" y="160"/>
      <point x="190" y="212" type="curve" smooth="yes"/>
      <point x="190" y="245"/>
      <point x="202" y="276"/>
      <point x="222" y="286" type="curve"/>
      <point x="148" y="393" type="line"/>
      <point x="57" y="352"/>
      <point x="17" y="262"/>
      <point x="17" y="184" type="curve" smooth="yes"/>
      <point x="17" y="68"/>
      <point x="93" y="-10"/>
    </contour>
    <contour>
      <point x="481" y="157" type="line"/>
      <point x="503" y="188"/>
      <point x="524" y="230"/>
      <point x="536" y="265" type="curve"/>
      <point x="587" y="264" type="line"/>
      <point x="605" y="393" type="line"/>
      <point x="429" y="393" type="line"/>
      <point x="430" y="361" type="line"/>
      <point x="423" y="326"/>
      <point x="416" y="293"/>
      <point x="407" y="270" type="curve"/>
    </contour>
  </outline>
</glyph>
<glyph name="quotesingle" format="2">
  <advance width="185"/>
  <unicode hex="0027"/>
  <anchor x="-9" y="0" name="#entry"/>
  <anchor x="195" y="0" name="#exit"/>
  <outline>
    <contour>
      <point x="55" y="410" type="line"/>
      <point x="130" y="410" type="line"/>
      <point x="175" y="622" type="line"/>
      <point x="175" y="729" type="line"/>
      <point x="11" y="729" type="line"/>
      <point x="11" y="622" type="line"/>
    </contour>
  </outline>
</glyph>
<glyph name="parenleft" format="2">
  <advance width="307"/>
  <unicode hex="0028"/>
  <outline>
    <contour>
      <point x="142" y="-167" type="curve"/>
      <point x="296" y="-167" type="line"/>
      <point x="236" y="-76"/>
      <point x="183" y="121"/>
      <point x="183" y="313" type="curve" smooth="yes"/>
      <point x="183" y="513"/>
      <point x="241" y="701"/>
      <point x="296" y="793" type="curve"/>
      <point x="142" y="793" type="line"/>
      <point x="72" y="700"/>
      <point x="16" y="507"/>
      <point x="16" y="313" type="curve" smooth="yes"/>
      <point x="16" y="118"/>
      <point x="72" y="-75"/>
    </contour>
  </outline>
</glyph>
<glyph name="asterisk" format="2">
  <advance width="260"/>
  <unicode hex="002A"/>
  <outline>
    <contour>
      <point x="97" y="471" type="line"/>
      <point x="163" y="471" type="line"/>
      <point x="163" y="510" type="line"/>
      <point x="149" y="565" type="line"/>
      <point x="192" y="525" type="line"/>
      <point x="226" y="506" type="line"/>
      <point x="258" y="563" type="line"/>
      <point x="225" y="582" type="line"/>
      <point x="169" y="600" type="line"/>
      <point x="225" y="617" type="line"/>
      <point x="258" y="636" type="line"/>
      <point x="226" y="693" type="line"/>
      <point x="192" y="674" type="line"/>
      <point x="149" y="634" type="line"/>
      <point x="163" y="690" type="line"/>
      <point x="163" y="729" type="line"/>
      <point x="97" y="729" type="line"/>
      <point x="97" y="690" type="line"/>
      <point x="111" y="634" type="line"/>
      <point x="68" y="674" type="line"/>
      <point x="34" y="693" type="line"/>
      <point x="2" y="636" type="line"/>
      <point x="35" y="617" type="line"/>
      <point x="91" y="600" type="line"/>
      <point x="35" y="582" type="line"/>
      <point x="2" y="563" type="line"/>
      <point x="34" y="506" type="line"/>
      <point x="68" y="525" type="line"/>
      <point x="111" y="565" type="line"/>
      <point x="97" y="510" type="line"/>
    </contour>
  </outline>
</glyph>
<glyph name="plus" format="2">
  <advance width="480"/>
  <unicode hex="002B"/>
  <outline>
    <contour>
      <point x="166" y="139" type="line"/>
      <point x="314" y="139" type="line"/>
      <point x="314" y="291" type="line"/>
      <point x="462" y="291" type="line"/>
      <point x="462" y="431" type="line"/>
      <point x="314" y="431" type="line"/>
      <point x="314" y="583" type="line"/>
      <point x="166" y="583" type="line"/>
      <point x="166" y="431" type="line"/>
      <point x="18" y="431" type="line"/>
      <point x="18" y="291" type="line"/>
      <point x="166" y="291" type="line"/>
    </contour>
  </outline>
</glyph>
<glyph name="comma" format="2">
  <advance width="211"/>
  <unicode hex="002C"/>
  <anchor x="-21" y="0" name="#entry"/>
  <anchor x="203" y="0" name="#exit"/>
  <anchor x="99" y="551" name="top"/>
  <outline>
    <contour>
      <point x="-8" y="-167" type="curve"/>
      <point x="92" y="-167" type="line"/>
      <point x="146" y="-123"/>
      <point x="200" y="-26"/>
      <point x="200" y="56" type="curve" smooth="yes"/>
      <point x="200" y="126"/>
      <point x="158" y="164"/>
      <point x="103" y="164" type="curve" smooth="yes"/>
      <point x="48" y="164"/>
      <point x="8" y="129"/>
      <point x="8" y="77" type="curve" smooth="yes"/>
      <point x="8" y="27"/>
      <point x="43" y="-5"/>
      <point x="91" y="-5" type="curve" smooth="yes"/>
      <point x="105" y="-5"/>
      <point x="118" y="-2"/>
      <point x="126" y="3" type="curve"/>
      <point x="112" y="14" type="line"/>
      <point x="103" y="-37"/>
      <point x="62" y="-103"/>
    </contour>
  </outline>
</glyph>
<glyph name="hyphen" format="2">
  <advance width="352"/>
  <unicode hex="002D"/>
  <outline>
    <contour>
      <point x="19" y="191" type="line"/>
      <point x="333" y="191" type="line"/>
      <point x="333" y="351" type="line"/>
      <point x="19" y="351" type="line"/>
    </contour>
  </outline>
</glyph>
<glyph name="period" format="2">
  <advance width="196"/>
  <unicode hex="002E"/>
  <anchor x="-17" y="0" name="#entry"/>
  <anchor x="213" y="0" name="#exit"/>
  <anchor x="98" y="164" name="_top"/>
  <anchor x="98" y="551" name="top"/>
  <outline>
    <contour>
      <point x="98" y="-10" type="curve" smooth="yes"/>
      <point x="149" y="-10"/>
      <point x="189" y="23"/>
      <point x="189" y="77" type="curve" smooth="yes"/>
      <point x="189" y="131"/>
      <point x="149" y="164"/>
      <point x="98" y="164" type="curve" smooth="yes"/>
      <point x="47" y="164"/>
      <point x="7" y="131"/>
      <point x="7" y="77" type="curve" smooth="yes"/>
      <point x="7" y="23"/>
      <point x="47" y="-10"/>
    </contour>
  </outline>
</glyph>
<glyph name="slash" format="2">
  <advance width="366"/>
  <unicode hex="002F"/>
  <outline>
    <contour>
      <point x="-2" y="-82" type="line"/>
      <point x="159" y="-82" type="line"/>
      <point x="368" y="729" type="line"/>
      <point x="205" y="729" type="line"/>
    </contour>
  </outline>
</glyph>
<glyph name="zero" format="2">
  <advance width="492"/>
  <unicode hex="0030"/>
  <outline>
    <contour>
      <point x="246" y="-10" type="curve" smooth="yes"/>
      <point x="384" y="-10"/>
      <point x="476" y="79"/>
      <point x="476" y="360" type="curve" smooth="yes"/>
      <point x="476" y="640"/>
      <point x="384" y="729"/>
      <point x="246" y="729" type="curve" smooth="yes"/>
      <point x="108" y="729"/>
      <point x="16" y="640"/>
      <point x="16" y="360" type="curve" smooth="yes"/>
      <point x="16" y="79"/>
      <point x="108" y="-10"/>
    </contour>
    <contour>
      <point x="246" y="139" type="curve" smooth="yes"/>
      <point x="205" y="139"/>
      <point x="196" y="194"/>
      <point x="196" y="360" type="curve" smooth="yes"/>
      <point x="196" y="525"/>
      <point x="205" y="580"/>
      <point x="246" y="580" type="curve" smooth="yes"/>
      <point x="287" y="580"/>
      <point x="296" y="525"/>
      <point x="296" y="360" type="curve" smooth="yes"/>
      <point x="296" y="194"/>
      <point x="287" y="139"/>
    </contour>
  </outline>
</glyph>
<glyph name="one" format="2">
  <advance width="358"/>
  <unicode hex="0031"/>
  <outline>
    <contour>
      <point x="149" y="0" type="line"/>
      <point x="329" y="0" type="line"/>
      <point x="329" y="721" type="line"/>
      <point x="163" y="721" type="line"/>
      <point x="156" y="643"/>
      <point x="107" y="591"/>
      <point x="44" y="591" type="curve" smooth="yes"/>
      <point x="12" y="591" type="line"/>
      <point x="12" y="446" type="line"/>
      <point x="149" y="446" type="line"/>
    </contour>
  </outline>
</glyph>
<glyph name="two" format="2">
  <advance width="459"/>
  <unicode hex="0032"/>
  <outline>
    <contour>
      <point x="23" y="0" type="line"/>
      <point x="444" y="0" type="line"/>
      <point x="444" y="148" type="line"/>
      <point x="247" y="148" type="line"/>
      <point x="252" y="203"/>
      <point x="440" y="354"/>
      <point x="440" y="520" type="curve" smooth="yes"/>
      <point x="440" y="670"/>
      <point x="355" y="730"/>
      <point x="224" y="730" type="curve" smooth="yes"/>
      <point x="81" y="730"/>
      <point x="4" y="629"/>
      <point x="13" y="474" type="curve"/>
      <point x="189" y="474" type="line"/>
      <point x="185" y="526"/>
      <point x="186" y="580"/>
      <point x="224" y="580" type="curve" smooth="yes"/>
      <point x="250" y="580"/>
      <point x="260" y="560"/>
      <point x="260" y="518" type="curve" smooth="yes"/>
      <point x="260" y="390"/>
      <point x="23" y="220"/>
      <point x="23" y="48" type="curve" smooth="yes"/>
    </contour>
  </outline>
</glyph>
<glyph name="three" format="2">
  <advance width="473"/>
  <unicode hex="0033"/>
  <outline>
    <contour>
      <point x="230" y="-10" type="curve" smooth="yes"/>
      <point x="368" y="-10"/>
      <point x="460" y="69"/>
      <point x="460" y="210" type="curve" smooth="yes"/>
      <point x="460" y="288"/>
      <point x="427" y="352"/>
      <point x="357" y="369" type="curve"/>
      <point x="357" y="376" type="line"/>
      <point x="421" y="397"/>
      <point x="449" y="460"/>
      <point x="449" y="531" type="curve" smooth="yes"/>
      <point x="449" y="650"/>
      <point x="373" y="730"/>
      <point x="239" y="730" type="curve" smooth="yes"/>
      <point x="103" y="730"/>
      <point x="15" y="647"/>
      <point x="18" y="499" type="curve"/>
      <point x="197" y="499" type="line"/>
      <point x="194" y="554"/>
      <point x="208" y="580"/>
      <point x="232" y="580" type="curve" smooth="yes"/>
      <point x="263" y="580"/>
      <point x="272" y="560"/>
      <point x="272" y="507" type="curve" smooth="yes"/>
      <point x="272" y="467"/>
      <point x="255" y="431"/>
      <point x="213" y="431" type="curve" smooth="yes"/>
      <point x="157" y="431" type="line"/>
      <point x="157" y="300" type="line"/>
      <point x="219" y="300" type="line" smooth="yes"/>
      <point x="256" y="300"/>
      <point x="280" y="276"/>
      <point x="280" y="219" type="curve" smooth="yes"/>
      <point x="280" y="162"/>
      <point x="265" y="140"/>
      <point x="232" y="140" type="curve" smooth="yes"/>
      <point x="208" y="140"/>
      <point x="192" y="161"/>
      <point x="192" y="225" type="curve"/>
      <point x="12" y="225" type="line"/>
      <point x="8" y="84"/>
      <point x="69" y="-10"/>
    </contour>
  </outline>
</glyph>
<glyph name="four" format="2">
  <advance width="516"/>
  <unicode hex="0034"/>
  <outline>
    <contour>
      <point x="257" y="0" type="line"/>
      <point x="437" y="0" type="line"/>
      <point x="437" y="721" type="line"/>
      <point x="221" y="721" type="line"/>
      <point x="13" y="293" type="line"/>
      <point x="13" y="152" type="line"/>
      <point x="503" y="152" type="line"/>
      <point x="503" y="307" type="line"/>
      <point x="171" y="307" type="line"/>
      <point x="277" y="543" type="line"/>
      <point x="257" y="543" type="line"/>
    </contour>
  </outline>
</glyph>
<glyph name="five" format="2">
  <advance width="472"/>
  <unicode hex="0035"/>
  <outline>
    <contour>
      <point x="234" y="-10" type="curve" smooth="yes"/>
      <point x="369" y="-10"/>
      <point x="459" y="72"/>
      <point x="459" y="246" type="curve" smooth="yes"/>
      <point x="459" y="392"/>
      <point x="402" y="490"/>
      <point x="282" y="490" type="curve" smooth="yes"/>
      <point x="250" y="490"/>
      <point x="218" y="480"/>
      <point x="203" y="454" type="curve"/>
      <point x="196" y="457" type="line"/>
      <point x="205" y="569" type="line"/>
      <point x="421" y="569" type="line"/>
      <point x="421" y="721" type="line"/>
      <point x="40" y="721" type="line"/>
      <point x="22" y="277" type="line"/>
      <point x="196" y="277" type="line"/>
      <point x="197" y="314"/>
      <point x="211" y="342"/>
      <point x="236" y="342" type="curve" smooth="yes"/>
      <point x="264" y="342"/>
      <point x="279" y="314"/>
      <point x="279" y="241" type="curve" smooth="yes"/>
      <point x="279" y="176"/>
      <point x="268" y="140"/>
      <point x="234" y="140" type="curve" smooth="yes"/>
      <point x="209" y="140"/>
      <point x="193" y="162"/>
      <point x="193" y="219" type="curve"/>
      <point x="13" y="219" type="line"/>
      <point x="19" y="82"/>
      <point x="90" y="-10"/>
    </contour>
  </outline>
</glyph>
<glyph name="six" format="2">
  <advance width="489"/>
  <unicode hex="0036"/>
  <outline>
    <contour>
      <point x="253" y="-9" type="curve" smooth="yes"/>
      <point x="395" y="-9"/>
      <point x="475" y="71"/>
      <point x="475" y="242" type="curve" smooth="yes"/>
      <point x="475" y="396"/>
      <point x="430" y="483"/>
      <point x="313" y="483" type="curve" smooth="yes"/>
      <point x="266" y="483"/>
      <point x="225" y="461"/>
      <point x="212" y="427" type="curve"/>
      <point x="203" y="427" type="line"/>
      <point x="201" y="522"/>
      <point x="210" y="580"/>
      <point x="252" y="580" type="curve" smooth="yes"/>
      <point x="275" y="580"/>
      <point x="294" y="562"/>
      <point x="294" y="526" type="curve"/>
      <point x="465" y="526" type="line"/>
      <point x="461" y="661"/>
      <point x="379" y="730"/>
      <point x="252" y="730" type="curve" smooth="yes"/>
      <point x="111" y="730"/>
      <point x="16" y="651"/>
      <point x="16" y="352" type="curve" smooth="yes"/>
      <point x="16" y="135"/>
      <point x="63" y="-9"/>
    </contour>
    <contour>
      <point x="253" y="140" type="curve" smooth="yes"/>
      <point x="228" y="140"/>
      <point x="213" y="161"/>
      <point x="213" y="245" type="curve" smooth="yes"/>
      <point x="213" y="307"/>
      <point x="221" y="342"/>
      <point x="255" y="342" type="curve" smooth="yes"/>
      <point x="280" y="342"/>
      <point x="295" y="322"/>
      <point x="295" y="238" type="curve" smooth="yes"/>
      <point x="295" y="177"/>
      <point x="287" y="140"/>
    </contour>
  </outline>
</glyph>
<glyph name="seven" format="2">
  <advance width="484"/>
  <unicode hex="0037"/>
  <outline>
    <contour>
      <point x="158" y="0" type="curve"/>
      <point x="340" y="0" type="line"/>
      <point x="340" y="274"/>
      <point x="374" y="359"/>
      <point x="471" y="582" type="curve"/>
      <point x="471" y="721" type="line"/>
      <point x="16" y="721" type="line"/>
      <point x="16" y="445" type="line"/>
      <point x="167" y="445" type="line"/>
      <point x="167" y="555" type="line"/>
      <point x="284" y="555" type="line"/>
      <point x="208" y="398"/>
      <point x="154" y="265"/>
    </contour>
  </outline>
</glyph>
<glyph name="eight" format="2">
  <advance width="464"/>
  <unicode hex="0038"/>
  <outline>
    <contour>
      <point x="232" y="-10" type="curve" smooth="yes"/>
      <point x="372" y="-10"/>
      <point x="451" y="72"/>
      <point x="451" y="196" type="curve" smooth="yes"/>
      <point x="451" y="275"/>
      <point x="410" y="343"/>
      <point x="342" y="361" type="curve"/>
      <point x="342" y="369" type="line"/>
      <point x="406" y="392"/>
      <point x="441" y="453"/>
      <point x="441" y="533" type="curve" smooth="yes"/>
      <point x="441" y="651"/>
      <point x="366" y="729"/>
      <point x="232" y="729" type="curve" smooth="yes"/>
      <point x="98" y="729"/>
      <point x="23" y="651"/>
      <point x="23" y="533" type="curve" smooth="yes"/>
      <point x="23" y="458"/>
      <point x="56" y="394"/>
      <point x="122" y="369" type="curve"/>
      <point x="122" y="361" type="line"/>
      <point x="54" y="343"/>
      <point x="13" y="275"/>
      <point x="13" y="196" type="curve" smooth="yes"/>
      <point x="13" y="72"/>
      <point x="92" y="-10"/>
    </contour>
    <contour>
      <point x="232" y="133" type="curve" smooth="yes"/>
      <point x="209" y="133"/>
      <point x="193" y="155"/>
      <point x="193" y="211" type="curve" smooth="yes"/>
      <point x="193" y="262"/>
      <point x="202" y="290"/>
      <point x="232" y="290" type="curve" smooth="yes"/>
      <point x="262" y="290"/>
      <point x="271" y="262"/>
      <point x="271" y="211" type="curve" smooth="yes"/>
      <point x="271" y="155"/>
      <point x="255" y="133"/>
    </contour>
    <contour>
      <point x="232" y="436" type="curve" smooth="yes"/>
      <point x="210" y="436"/>
      <point x="196" y="450"/>
      <point x="196" y="514" type="curve" smooth="yes"/>
      <point x="196" y="553"/>
      <point x="203" y="586"/>
      <point x="232" y="586" type="curve" smooth="yes"/>
      <point x="261" y="586"/>
      <point x="268" y="553"/>
      <point x="268" y="514" type="curve" smooth="yes"/>
      <point x="268" y="450"/>
      <point x="254" y="436"/>
    </contour>
  </outline>
</glyph>
<glyph name="equal" format="2">
  <advance width="480"/>
  <unicode hex="003D"/>
  <anchor x="240" y="366" name="center"/>
  <outline>
    <contour>
      <point x="18" y="411" type="line"/>
      <point x="462" y="411" type="line"/>
      <point x="462" y="551" type="line"/>
      <point x="18" y="551" type="line"/>
    </contour>
    <contour>
      <point x="18" y="171" type="line"/>
      <point x="462" y="171" type="line"/>
      <point x="462" y="311" type="line"/>
      <point x="18" y="311" type="line"/>
    </contour>
  </outline>
</glyph>
<glyph name="greater" format="2">
  <advance width="480"/>
  <unicode hex="003E"/>
  <outline>
    <contour>
      <point x="25" y="77" type="line"/>
      <point x="461" y="252" type="line"/>
      <point x="461" y="466" type="line"/>
      <point x="25" y="644" type="line"/>
      <point x="25" y="453" type="line"/>
      <point x="267" y="366" type="line"/>
      <point x="267" y="352" type="line"/>
      <point x="25" y="268" type="line"/>
    </contour>
  </outline>
</glyph>
<glyph name="question" format="2">
  <advance width="445"/>
  <unicode hex="003F"/>
  <outline>
    <contour>
      <point x="144" y="223" type="line"/>
      <point x="301" y="223" type="line"/>
      <point x="301" y="233" type="line" smooth="yes"/>
      <point x="301" y="333"/>
      <point x="431" y="416"/>
      <point x="431" y="553" type="curve" smooth="yes"/>
      <point x="431" y="665"/>
      <point x="366" y="739"/>
      <point x="227" y="739" type="curve" smooth="yes"/>
      <point x="94" y="739"/>
      <point x="7" y="667"/>
      <point x="13" y="504" type="curve"/>
      <point x="172" y="504" type="line"/>
      <point x="170" y="559"/>
      <point x="186" y="583"/>
      <point x="218" y="583" type="curve" smooth="yes"/>
      <point x="242" y="583"/>
      <point x="256" y="567"/>
      <point x="256" y="525" type="curve" smooth="yes"/>
      <point x="256" y="441"/>
      <point x="144" y="370"/>
      <point x="144" y="245" type="curve" smooth="yes"/>
    </contour>
    <contour>
      <point x="220" y="-10" type="curve" smooth="yes"/>
      <point x="275" y="-10"/>
      <point x="316" y="22"/>
      <point x="316" y="77" type="curve" smooth="yes"/>
      <point x="316" y="132"/>
      <point x="275" y="164"/>
      <point x="220" y="164" type="curve" smooth="yes"/>
      <point x="165" y="164"/>
      <point x="124" y="132"/>
      <point x="124" y="77" type="curve" smooth="yes"/>
      <point x="124" y="22"/>
      <point x="165" y="-10"/>
    </contour>
  </outline>
</glyph>
<glyph name="at" format="2">
  <advance width="696"/>
  <unicode hex="0040"/>
  <outline>
    <contour>
      <point x="354" y="-101" type="curve" smooth="yes"/>
      <point x="447" y="-101"/>
      <point x="524" y="-70"/>
      <point x="567" y="-19" type="curve"/>
      <point x="524" y="68" type="line"/>
      <point x="490" y="31"/>
      <point x="444" y="6"/>
      <point x="376" y="6" type="curve" smooth="yes"/>
      <point x="244" y="6"/>
      <point x="140" y="103"/>
      <point x="140" y="317" type="curve" smooth="yes"/>
      <point x="140" y="493"/>
      <point x="208" y="631"/>
      <point x="356" y="631" type="curve" smooth="yes"/>
      <point x="469" y="631"/>
      <point x="564" y="548"/>
      <point x="564" y="350" type="curve" smooth="yes"/>
      <point x="564" y="270"/>
      <point x="550" y="209"/>
      <point x="514" y="209" type="curve" smooth="yes"/>
      <point x="493" y="209"/>
      <point x="479" y="233"/>
      <point x="484" y="311" type="curve" smooth="yes"/>
      <point x="496" y="504" type="line"/>
      <point x="425" y="504" type="line"/>
      <point x="413" y="458" type="line"/>
      <point x="406" y="458" type="line"/>
      <point x="393" y="492"/>
      <point x="370" y="514"/>
      <point x="327" y="514" type="curve" smooth="yes"/>
      <point x="250" y="514"/>
      <point x="194" y="441"/>
      <point x="194" y="303" type="curve" smooth="yes"/>
      <point x="194" y="195"/>
      <point x="227" y="108"/>
      <point x="314" y="108" type="curve" smooth="yes"/>
      <point x="367" y="108"/>
      <point x="395" y="141"/>
      <point x="403" y="175" type="curve"/>
      <point x="412" y="175" type="line"/>
      <point x="422" y="135"/>
      <point x="460" y="103"/>
      <point x="516" y="103" type="curve" smooth="yes"/>
      <point x="613" y="103"/>
      <point x="678" y="208"/>
      <point x="678" y="366" type="curve" smooth="yes"/>
      <point x="678" y="588"/>
      <point x="545" y="738"/>
      <point x="356" y="738" type="curve" smooth="yes"/>
      <point x="159" y="738"/>
      <point x="19" y="571"/>
      <point x="19" y="310" type="curve" smooth="yes"/>
      <point x="19" y="70"/>
      <point x="137" y="-101"/>
    </contour>
    <contour>
      <point x="342" y="209" type="curve" smooth="yes"/>
      <point x="318" y="209"/>
      <point x="305" y="238"/>
      <point x="305" y="307" type="curve" smooth="yes"/>
      <point x="305" y="367"/>
      <point x="314" y="412"/>
      <point x="344" y="412" type="curve" smooth="yes"/>
      <point x="370" y="412"/>
      <point x="382" y="378"/>
      <point x="387" y="310" type="curve"/>
      <point x="382" y="248"/>
      <point x="371" y="209"/>
    </contour>
  </outline>
</glyph>
<glyph name="A" format="2">
  <advance width="497"/>
  <unicode hex="0041"/>
  <anchor x="249" y="0" name="bottom"/>
  <anchor x="487" y="0" name="ogonek"/>
  <anchor x="249" y="729" name="top"/>
  <outline>
    <contour>
      <point x="10" y="0" type="line"/>
      <point x="185" y="0" type="line"/>
      <point x="236" y="491" type="line"/>
      <point x="244" y="583" type="line"/>
      <point x="251" y="583" type="line"/>
      <point x="260" y="491" type="line"/>
      <point x="312" y="0" type="line"/>
      <point x="487" y="0" type="line"/>
      <point x="373" y="729" type="line"/>
      <point x="122" y="729" type="line"/>
    </contour>
    <contour>
      <point x="183" y="120" type="line"/>
      <point x="313" y="120" type="line"/>
      <point x="298" y="260" type="line"/>
      <point x="197" y="260" type="line"/>
    </contour>
  </outline>
</glyph>
<glyph name="B" format="2">
  <advance width="466"/>
  <unicode hex="0042"/>
  <anchor x="232" y="0" name="bottom"/>
  <anchor x="232" y="729" name="top"/>
  <outline>
    <contour>
      <point x="29" y="0" type="line"/>
      <point x="226" y="0" type="line" smooth="yes"/>
      <point x="370" y="0"/>
      <point x="453" y="70"/>
      <point x="453" y="206" type="curve" smooth="yes"/>
      <point x="453" y="297"/>
      <point x="420" y="361"/>
      <point x="335" y="381" type="curve"/>
      <point x="335" y="387" type="line"/>
      <point x="406" y="403"/>
      <point x="438" y="464"/>
      <point x="438" y="537" type="curve" smooth="yes"/>
      <point x="438" y="654"/>
      <point x="386" y="729"/>
      <point x="244" y="729" type="curve" smooth="yes"/>
      <point x="29" y="729" type="line"/>
    </contour>
    <contour>
      <point x="208" y="141" type="line"/>
      <point x="208" y="591" type="line"/>
      <point x="225" y="591" type="line" smooth="yes"/>
      <point x="255" y="591"/>
      <point x="271" y="568"/>
      <point x="271" y="513" type="curve" smooth="yes"/>
      <point x="271" y="465"/>
      <point x="260" y="433"/>
      <point x="225" y="433" type="curve" smooth="yes"/>
      <point x="192" y="433" type="line"/>
      <point x="192" y="309" type="line"/>
      <point x="225" y="309" type="line" smooth="yes"/>
      <point x="256" y="309"/>
      <point x="276" y="285"/>
      <point x="276" y="225" type="curve" smooth="yes"/>
      <point x="276" y="172"/>
      <point x="263" y="141"/>
      <point x="224" y="141" type="curve" smooth="yes"/>
    </contour>
  </outline>
</glyph>
<glyph name="C" format="2">
  <advance width="481"/>
  <unicode hex="0043"/>
  <anchor x="242" y="0" name="bottom"/>
  <anchor x="242" y="729" name="top"/>
  <outline>
    <contour>
      <point x="235" y="-9" type="curve" smooth="yes"/>
      <point x="385" y="-9"/>
      <point x="462" y="69"/>
      <point x="467" y="270" type="curve"/>
      <point x="297" y="270" type="line"/>
      <point x="293" y="190"/>
      <point x="286" y="147"/>
      <point x="248" y="147" type="curve" smooth="yes"/>
      <point x="209" y="147"/>
      <point x="197" y="203"/>
      <point x="197" y="365" type="curve" smooth="yes"/>
      <point x="197" y="515"/>
      <point x="206" y="583"/>
      <point x="248" y="583" type="curve" smooth="yes"/>
      <point x="284" y="583"/>
      <point x="292" y="546"/>
      <point x="297" y="465" type="curve"/>
      <point x="467" y="465" type="line"/>
      <point x="458" y="668"/>
      <point x="383" y="739"/>
      <point x="247" y="739" type="curve" smooth="yes"/>
      <point x="67" y="739"/>
      <point x="16" y="593"/>
      <point x="16" y="365" type="curve" smooth="yes"/>
      <point x="16" y="136"/>
      <point x="65" y="-9"/>
    </contour>
  </outline>
</glyph>
<glyph name="D" format="2">
  <advance width="490"/>
  <unicode hex="0044"/>
  <anchor x="250" y="0" name="bottom"/>
  <anchor x="126" y="365" name="center"/>
  <anchor x="250" y="729" name="top"/>
  <outline>
    <contour>
      <point x="29" y="0" type="line"/>
      <point x="191" y="0" type="line" smooth="yes"/>
      <point x="425" y="0"/>
      <point x="475" y="149"/>
      <point x="475" y="364" type="curve" smooth="yes"/>
      <point x="475" y="634"/>
      <point x="381" y="729"/>
      <point x="191" y="729" type="curve" smooth="yes"/>
      <point x="29" y="729" type="line"/>
    </contour>
    <contour>
      <point x="208" y="157" type="line"/>
      <point x="208" y="572" type="line"/>
      <point x="223" y="572" type="line" smooth="yes"/>
      <point x="277" y="572"/>
      <point x="295" y="524"/>
      <point x="295" y="368" type="curve" smooth="yes"/>
      <point x="295" y="227"/>
      <point x="285" y="157"/>
      <point x="223" y="157" type="curve" smooth="yes"/>
    </contour>
  </outline>
</glyph>
<glyph name="E" format="2">
  <advance width="380"/>
  <unicode hex="0045"/>
  <anchor x="190" y="0" name="bottom"/>
  <anchor x="361" y="0" name="ogonek"/>
  <anchor x="190" y="729" name="top"/>
  <anchor x="21" y="729" name="topleft"/>
  <outline>
    <contour>
      <point x="29" y="0" type="line"/>
      <point x="361" y="0" type="line"/>
      <point x="361" y="157" type="line"/>
      <point x="181" y="157" type="line"/>
      <point x="206" y="132" type="line"/>
      <point x="206" y="597" type="line"/>
      <point x="181" y="572" type="line"/>
      <point x="361" y="572" type="line"/>
      <point x="361" y="729" type="line"/>
      <point x="29" y="729" type="line"/>
    </contour>
    <contour>
      <point x="181" y="299" type="line"/>
      <point x="347" y="299" type="line"/>
      <point x="347" y="445" type="line"/>
      <point x="181" y="445" type="line"/>
    </contour>
  </outline>
</glyph>
<glyph name="F" format="2">
  <advance width="375"/>
  <unicode hex="0046"/>
  <anchor x="186" y="0" name="bottom"/>
  <anchor x="186" y="729" name="top"/>
  <outline>
    <contour>
      <point x="29" y="0" type="line"/>
      <point x="215" y="0" type="line"/>
      <point x="215" y="587" type="line"/>
      <point x="200" y="572" type="line"/>
      <point x="362" y="572" type="line"/>
      <point x="362" y="729" type="line"/>
      <point x="29" y="729" type="line"/>
    </contour>
    <contour>
      <point x="184" y="271" type="line"/>
      <point x="344" y="271" type="line"/>
      <point x="344" y="420" type="line"/>
      <point x="184" y="420" type="line"/>
    </contour>
  </outline>
</glyph>
<glyph name="G" format="2">
  <advance width="503"/>
  <unicode hex="0047"/>
  <anchor x="248" y="0" name="bottom"/>
  <anchor x="252" y="729" name="top"/>
  <outline>
    <contour>
      <point x="208" y="-10" type="curve" smooth="yes"/>
      <point x="276" y="-10"/>
      <point x="326" y="13"/>
      <point x="353" y="94" type="curve"/>
      <point x="358" y="94" type="line"/>
      <point x="365" y="0" type="line"/>
      <point x="481" y="0" type="line"/>
      <point x="481" y="405" type="line"/>
      <point x="254" y="405" type="line"/>
      <point x="254" y="270" type="line"/>
      <point x="352" y="270" type="line"/>
      <point x="312" y="317" type="line"/>
      <point x="312" y="273" type="line" smooth="yes"/>
      <point x="312" y="179"/>
      <point x="295" y="146"/>
      <point x="254" y="146" type="curve" smooth="yes"/>
      <point x="207" y="146"/>
      <point x="197" y="217"/>
      <point x="197" y="364" type="curve" smooth="yes"/>
      <point x="197" y="526"/>
      <point x="212" y="582"/>
      <point x="253" y="582" type="curve" smooth="yes"/>
      <point x="290" y="582"/>
      <point x="302" y="541"/>
      <point x="306" y="464" type="curve"/>
      <point x="476" y="464" type="line"/>
      <point x="472" y="667"/>
      <point x="387" y="738"/>
      <point x="252" y="738" type="curve" smooth="yes"/>
      <point x="68" y="738"/>
      <point x="16" y="590"/>
      <point x="16" y="364" type="curve" smooth="yes"/>
      <point x="16" y="138"/>
      <point x="66" y="-10"/>
    </contour>
  </outline>
</glyph>
<glyph name="H" format="2">
  <advance width="495"/>
  <unicode hex="0048"/>
  <anchor x="248" y="0" name="bottom"/>
  <anchor x="247" y="591" name="center"/>
  <anchor x="248" y="729" name="top"/>
  <anchor x="21" y="729" name="topleft"/>
  <outline>
    <contour>
      <point x="29" y="0" type="line"/>
      <point x="213" y="0" type="line"/>
      <point x="213" y="729" type="line"/>
      <point x="29" y="729" type="line"/>
    </contour>
    <contour>
      <point x="280" y="0" type="line"/>
      <point x="466" y="0" type="line"/>
      <point x="466" y="729" type="line"/>
      <point x="280" y="729" type="line"/>
    </contour>
    <contour>
      <point x="182" y="291" type="line"/>
      <point x="311" y="291" type="line"/>
      <point x="311" y="447" type="line"/>
      <point x="182" y="447" type="line"/>
    </contour>
  </outline>
</glyph>
<glyph name="J" format="2">
  <advance width="292"/>
  <unicode hex="004A"/>
  <anchor x="144" y="0" name="bottom"/>
  <anchor x="173" y="729" name="top"/>
  <outline>
    <contour>
      <point x="12" y="0" type="line"/>
      <point x="100" y="0" type="line" smooth="yes"/>
      <point x="200" y="0"/>
      <point x="266" y="59"/>
      <point x="266" y="185" type="curve" smooth="yes"/>
      <point x="266" y="729" type="line"/>
      <point x="79" y="729" type="line"/>
      <point x="79" y="210" type="line" smooth="yes"/>
      <point x="79" y="165"/>
      <point x="71" y="143"/>
      <point x="40" y="143" type="curve" smooth="yes"/>
      <point x="12" y="143" type="line"/>
    </contour>
  </outline>
</glyph>
<glyph name="K" format="2">
  <advance width="499"/>
  <unicode hex="004B"/>
  <anchor x="256" y="0" name="bottom"/>
  <anchor x="256" y="729" name="top"/>
  <outline>
    <contour>
      <point x="295" y="0" type="line"/>
      <point x="488" y="0" type="line"/>
      <point x="378" y="428" type="line"/>
      <point x="489" y="729" type="line"/>
      <point x="297" y="729" type="line"/>
      <point x="212" y="401" type="line"/>
      <point x="212" y="152" type="line"/>
      <point x="247" y="274" type="line"/>
    </contour>
    <contour>
      <point x="29" y="0" type="line"/>
      <point x="216" y="0" type="line"/>
      <point x="216" y="729" type="line"/>
      <point x="29" y="729" type="line"/>
    </contour>
  </outline>
</glyph>
<glyph name="L" format="2">
  <advance width="359"/>
  <unicode hex="004C"/>
  <anchor x="182" y="0" name="bottom"/>
  <anchor x="276" y="365" name="center"/>
  <anchor x="123" y="729" name="top"/>
  <anchor x="216" y="729" name="topright"/>
  <outline>
    <contour>
      <point x="29" y="0" type="line"/>
      <point x="346" y="0" type="line"/>
      <point x="346" y="163" type="line"/>
      <point x="191" y="163" type="line"/>
      <point x="216" y="136" type="line"/>
      <point x="216" y="729" type="line"/>
      <point x="29" y="729" type="line"/>
    </contour>
  </outline>
</glyph>
<glyph name="M" format="2">
  <advance width="646"/>
  <unicode hex="004D"/>
  <anchor x="323" y="0" name="bottom"/>
  <anchor x="323" y="729" name="top"/>
  <outline>
    <contour>
      <point x="29" y="0" type="line"/>
      <point x="198" y="0" type="line"/>
      <point x="198" y="337" type="line"/>
      <point x="195" y="523" type="line"/>
      <point x="202" y="523" type="line"/>
      <point x="229" y="275" type="line"/>
      <point x="267" y="0" type="line"/>
      <point x="379" y="0" type="line"/>
      <point x="417" y="275" type="line"/>
      <point x="447" y="533" type="line"/>
      <point x="454" y="533" type="line"/>
      <point x="448" y="337" type="line"/>
      <point x="448" y="0" type="line"/>
      <point x="617" y="0" type="line"/>
      <point x="617" y="729" type="line"/>
      <point x="360" y="729" type="line"/>
      <point x="334" y="466" type="line"/>
      <point x="326" y="298" type="line"/>
      <point x="319" y="298" type="line"/>
      <point x="310" y="466" type="line"/>
      <point x="284" y="729" type="line"/>
      <point x="29" y="729" type="line"/>
    </contour>
  </outline>
</glyph>
<glyph name="N" format="2">
  <advance width="487"/>
  <unicode hex="004E"/>
  <anchor x="244" y="0" name="bottom"/>
  <anchor x="244" y="729" name="top"/>
  <outline>
    <contour>
      <point x="29" y="0" type="line"/>
      <point x="193" y="0" type="line"/>
      <point x="193" y="157" type="line"/>
      <point x="184" y="358" type="line"/>
      <point x="190" y="358" type="line"/>
      <point x="271" y="0" type="line"/>
      <point x="458" y="0" type="line"/>
      <point x="458" y="729" type="line"/>
      <point x="294" y="729" type="line"/>
      <point x="294" y="575" type="line"/>
      <point x="303" y="366" type="line"/>
      <point x="296" y="366" type="line"/>
      <point x="218" y="729" type="line"/>
      <point x="29" y="729" type="line"/>
    </contour>
  </outline>
</glyph>
<glyph name="O" format="2">
  <advance width="494"/>
  <unicode hex="004F"/>
  <anchor x="247" y="0" name="bottom"/>
  <anchor x="247" y="365" name="center"/>
  <anchor x="451" y="10" name="ogonek"/>
  <anchor x="247" y="729" name="top"/>
  <anchor x="12" y="729" name="topleft"/>
  <anchor x="339" y="709" name="topright"/>
  <outline>
    <contour>
      <point x="247" y="-9" type="curve" smooth="yes"/>
      <point x="427" y="-9"/>
      <point x="478" y="136"/>
      <point x="478" y="365" type="curve" smooth="yes"/>
      <point x="478" y="594"/>
      <point x="427" y="739"/>
      <point x="247" y="739" type="curve" smooth="yes"/>
      <point x="68" y="739"/>
      <point x="16" y="595"/>
      <point x="16" y="365" type="curve" smooth="yes"/>
      <point x="16" y="135"/>
      <point x="68" y="-9"/>
    </contour>
    <contour>
      <point x="247" y="147" type="curve" smooth="yes"/>
      <point x="209" y="147"/>
      <point x="197" y="202"/>
      <point x="197" y="365" type="curve" smooth="yes"/>
      <point x="197" y="515"/>
      <point x="205" y="583"/>
      <point x="247" y="583" type="curve" smooth="yes"/>
      <point x="285" y="583"/>
      <point x="298" y="529"/>
      <point x="298" y="365" type="curve" smooth="yes"/>
      <point x="298" y="217"/>
      <point x="290" y="147"/>
    </contour>
  </outline>
</glyph>
<glyph name="P" format="2">
  <advance width="473"/>
  <unicode hex="0050"/>
  <anchor x="235" y="0" name="bottom"/>
  <anchor x="235" y="729" name="top"/>
  <outline>
    <contour>
      <point x="29" y="0" type="line"/>
      <point x="208" y="0" type="line"/>
      <point x="208" y="594" type="line"/>
      <point x="184" y="572" type="line"/>
      <point x="224" y="572" type="line" smooth="yes"/>
      <point x="261" y="572"/>
      <point x="279" y="550"/>
      <point x="279" y="473" type="curve" smooth="yes"/>
      <point x="279" y="408"/>
      <point x="270" y="369"/>
      <point x="224" y="369" type="curve" smooth="yes"/>
      <point x="192" y="369" type="line"/>
      <point x="192" y="212" type="line"/>
      <point x="230" y="212" type="line" smooth="yes"/>
      <point x="383" y="212"/>
      <point x="460" y="296"/>
      <point x="460" y="471" type="curve" smooth="yes"/>
      <point x="460" y="644"/>
      <point x="383" y="729"/>
      <point x="230" y="729" type="curve" smooth="yes"/>
      <point x="29" y="729" type="line"/>
    </contour>
  </outline>
</glyph>
<glyph name="R" format="2">
  <advance width="477"/>
  <unicode hex="0052"/>
  <anchor x="238" y="0" name="bottom"/>
  <anchor x="217" y="729" name="top"/>
  <outline>
    <contour>
      <point x="29" y="0" type="line"/>
      <point x="208" y="0" type="line"/>
      <point x="208" y="572" type="line"/>
      <point x="220" y="572" type="line" smooth="yes"/>
      <point x="263" y="572"/>
      <point x="281" y="548"/>
      <point x="281" y="480" type="curve" smooth="yes"/>
      <point x="281" y="421"/>
      <point x="270" y="388"/>
      <point x="221" y="388" type="curve" smooth="yes"/>
      <point x="192" y="388" type="line"/>
      <point x="192" y="248" type="line"/>
      <point x="233" y="248" type="line" smooth="yes"/>
      <point x="260" y="248"/>
      <point x="268" y="233"/>
      <point x="268" y="171" type="curve" smooth="yes"/>
      <point x="268" y="63" type="line" smooth="yes"/>
      <point x="268" y="50"/>
      <point x="270" y="20"/>
      <point x="276" y="0" type="curve"/>
      <point x="457" y="0" type="line"/>
      <point x="453" y="21"/>
      <point x="450" y="43"/>
      <point x="450" y="74" type="curve" smooth="yes"/>
      <point x="450" y="191" type="line" smooth="yes"/>
      <point x="450" y="264"/>
      <point x="433" y="329"/>
      <point x="355" y="338" type="curve"/>
      <point x="355" y="345" type="line"/>
      <point x="427" y="362"/>
      <point x="461" y="421"/>
      <point x="461" y="517" type="curve" smooth="yes"/>
      <point x="461" y="680"/>
      <point x="368" y="729"/>
      <point x="230" y="729" type="curve" smooth="yes"/>
      <point x="29" y="729" type="line"/>
    </contour>
  </outline>
</glyph>
<glyph name="S" format="2">
  <advance width="448"/>
  <unicode hex="0053"/>
  <anchor x="224" y="0" name="bottom"/>
  <anchor x="224" y="729" name="top"/>
  <outline>
    <contour>
      <point x="223" y="-10" type="curve" smooth="yes"/>
      <point x="355" y="-10"/>
      <point x="434" y="58"/>
      <point x="434" y="202" type="curve" smooth="yes"/>
      <point x="434" y="323"/>
      <point x="363" y="386"/>
      <point x="279" y="437" type="curve" smooth="yes"/>
      <point x="216" y="475"/>
      <point x="194" y="494"/>
      <point x="194" y="548" type="curve" smooth="yes"/>
      <point x="194" y="584"/>
      <point x="204" y="606"/>
      <point x="230" y="606" type="curve" smooth="yes"/>
      <point x="260" y="606"/>
      <point x="271" y="580"/>
      <point x="270" y="511" type="curve"/>
      <point x="428" y="511" type="line"/>
      <point x="428" y="675"/>
      <point x="350" y="738"/>
      <point x="221" y="738" type="curve" smooth="yes"/>
      <point x="102" y="738"/>
      <point x="18" y="675"/>
      <point x="18" y="536" type="curve" smooth="yes"/>
      <point x="18" y="408"/>
      <point x="89" y="349"/>
      <point x="159" y="307" type="curve" smooth="yes"/>
      <point x="228" y="265"/>
      <point x="255" y="242"/>
      <point x="255" y="186" type="curve" smooth="yes"/>
      <point x="255" y="148"/>
      <point x="246" y="125"/>
      <point x="217" y="125" type="curve" smooth="yes"/>
      <point x="186" y="125"/>
      <point x="169" y="150"/>
      <point x="169" y="231" type="curve"/>
      <point x="14" y="231" type="line"/>
      <point x="14" y="86"/>
      <point x="73" y="-10"/>
    </contour>
  </outline>
</glyph>
<glyph name="T" format="2">
  <advance width="391"/>
  <unicode hex="0054"/>
  <anchor x="196" y="0" name="bottom"/>
  <anchor x="193" y="346" name="center"/>
  <anchor x="196" y="729" name="top"/>
  <outline>
    <contour>
      <point x="101" y="0" type="line"/>
      <point x="285" y="0" type="line"/>
      <point x="285" y="586" type="line"/>
      <point x="101" y="586" type="line"/>
    </contour>
    <contour>
      <point x="13" y="570" type="line"/>
      <point x="378" y="570" type="line"/>
      <point x="378" y="729" type="line"/>
      <point x="13" y="729" type="line"/>
    </contour>
  </outline>
</glyph>
<glyph name="U" format="2">
  <advance width="476"/>
  <unicode hex="0055"/>
  <anchor x="238" y="0" name="bottom"/>
  <anchor x="345" y="0" name="ogonek"/>
  <anchor x="238" y="729" name="top"/>
  <anchor x="330" y="729" name="topright"/>
  <outline>
    <contour>
      <point x="237" y="-9" type="curve" smooth="yes"/>
      <point x="365" y="-9"/>
      <point x="451" y="62"/>
      <point x="451" y="212" type="curve" smooth="yes"/>
      <point x="451" y="729" type="line"/>
      <point x="275" y="729" type="line"/>
      <point x="275" y="209" type="line" smooth="yes"/>
      <point x="275" y="177"/>
      <point x="268" y="155"/>
      <point x="239" y="155" type="curve" smooth="yes"/>
      <point x="217" y="155"/>
      <point x="203" y="166"/>
      <point x="203" y="209" type="curve" smooth="yes"/>
      <point x="203" y="729" type="line"/>
      <point x="25" y="729" type="line"/>
      <point x="25" y="212" type="line" smooth="yes"/>
      <point x="25" y="79"/>
      <point x="93" y="-9"/>
    </contour>
  </outline>
</glyph>
<glyph name="V" format="2">
  <advance width="467"/>
  <unicode hex="0056"/>
  <anchor x="234" y="0" name="bottom"/>
  <anchor x="234" y="729" name="top"/>
  <outline>
    <contour>
      <point x="116" y="0" type="line"/>
      <point x="350" y="0" type="line"/>
      <point x="457" y="729" type="line"/>
      <point x="290" y="729" type="line"/>
      <point x="248" y="316" type="line"/>
      <point x="237" y="146" type="line"/>
      <point x="230" y="146" type="line"/>
      <point x="217" y="317" type="line"/>
      <point x="177" y="729" type="line"/>
      <point x="10" y="729" type="line"/>
    </contour>
  </outline>
</glyph>
<glyph name="W" format="2">
  <advance width="750"/>
  <unicode hex="0057"/>
  <anchor x="375" y="0" name="bottom"/>
  <anchor x="375" y="729" name="top"/>
  <outline>
    <contour>
      <point x="102" y="0" type="line"/>
      <point x="339" y="0" type="line"/>
      <point x="366" y="363" type="line"/>
      <point x="373" y="505" type="line"/>
      <point x="381" y="505" type="line"/>
      <point x="387" y="363" type="line"/>
      <point x="410" y="0" type="line"/>
      <point x="648" y="0" type="line"/>
      <point x="740" y="729" type="line"/>
      <point x="560" y="729" type="line"/>
      <point x="530" y="277" type="line"/>
      <point x="528" y="182" type="line"/>
      <point x="520" y="182" type="line"/>
      <point x="514" y="277" type="line"/>
      <point x="477" y="729" type="line"/>
      <point x="276" y="729" type="line"/>
      <point x="239" y="277" type="line"/>
      <point x="233" y="184" type="line"/>
      <point x="225" y="184" type="line"/>
      <point x="221" y="277" type="line"/>
      <point x="189" y="729" type="line"/>
      <point x="10" y="729" type="line"/>
    </contour>
  </outline>
</glyph>
<glyph name="X" format="2">
  <advance width="489"/>
  <unicode hex="0058"/>
  <anchor x="244" y="0" name="bottom"/>
  <anchor x="244" y="729" name="top"/>
  <outline>
    <contour>
      <point x="9" y="0" type="line"/>
      <point x="186" y="0" type="line"/>
      <point x="225" y="191" type="line"/>
      <point x="240" y="275" type="line"/>
      <point x="245" y="275" type="line"/>
      <point x="259" y="191" type="line"/>
      <point x="298" y="0" type="line"/>
      <point x="480" y="0" type="line"/>
      <point x="370" y="382" type="line"/>
      <point x="475" y="729" type="line"/>
      <point x="297" y="729" type="line"/>
      <point x="262" y="555" type="line"/>
      <point x="248" y="470" type="line"/>
      <point x="242" y="470" type="line"/>
      <point x="230" y="555" type="line"/>
      <point x="197" y="729" type="line"/>
      <point x="15" y="729" type="line"/>
      <point x="120" y="377" type="line"/>
    </contour>
  </outline>
</glyph>
<glyph name="Y" format="2">
  <advance width="497"/>
  <unicode hex="0059"/>
  <anchor x="248" y="0" name="bottom"/>
  <anchor x="248" y="729" name="top"/>
  <anchor x="20" y="729" name="topleft"/>
  <outline>
    <contour>
      <point x="154" y="0" type="line"/>
      <point x="343" y="0" type="line"/>
      <point x="343" y="273" type="line"/>
      <point x="488" y="729" type="line"/>
      <point x="293" y="729" type="line"/>
      <point x="258" y="504" type="line"/>
      <point x="250" y="425" type="line"/>
      <point x="244" y="425" type="line"/>
      <point x="236" y="504" type="line"/>
      <point x="205" y="729" type="line"/>
      <point x="9" y="729" type="line"/>
      <point x="154" y="273" type="line"/>
    </contour>
  </outline>
</glyph>
<glyph name="Z" format="2">
  <advance width="434"/>
  <unicode hex="005A"/>
  <anchor x="218" y="0" name="bottom"/>
  <anchor x="218" y="365" name="center"/>
  <anchor x="218" y="729" name="top"/>
  <outline>
    <contour>
      <point x="14" y="0" type="line"/>
      <point x="417" y="0" type="line"/>
      <point x="417" y="157" type="line"/>
      <point x="215" y="157" type="line"/>
      <point x="417" y="589" type="line"/>
      <point x="417" y="729" type="line"/>
      <point x="27" y="729" type="line"/>
      <point x="27" y="571" type="line"/>
      <point x="215" y="571" type="line"/>
      <point x="14" y="139" type="line"/>
    </contour>
  </outline>
</glyph>
<glyph name="bracketleft" format="2">
  <advance width="318"/>
  <unicode hex="005B"/>
  <outline>
    <contour>
      <point x="32" y="-167" type="line"/>
      <point x="302" y="-167" type="line"/>
      <point x="302" y="-42" type="line"/>
      <point x="193" y="-42" type="line"/>
      <point x="193" y="660" type="line"/>
      <point x="302" y="660" type="line"/>
      <point x="302" y="793" type="line"/>
      <point x="32" y="793" type="line"/>
    </contour>
  </outline>
</glyph>
<glyph name="backslash" format="2">
  <advance width="366"/>
  <unicode hex="005C"/>
  <outline>
    <contour>
      <point x="207" y="-82" type="line"/>
      <point x="368" y="-82" type="line"/>
      <point x="161" y="729" type="line"/>
      <point x="-2" y="729" type="line"/>
    </contour>
  </outline>
</glyph>
<glyph name="asciicircum" format="2">
  <advance width="480"/>
  <unicode hex="005E"/>
  <outline>
    <contour>
      <point x="5" y="468" type="line"/>
      <point x="169" y="468" type="line"/>
      <point x="242" y="586" type="line"/>
      <point x="313" y="468" type="line"/>
      <point x="477" y="468" type="line"/>
      <point x="331" y="729" type="line"/>
      <point x="152" y="729" type="line"/>
    </contour>
  </outline>
</glyph>
<glyph name="underscore" format="2">
  <advance width="402"/>
  <unicode hex="005F"/>
  <outline>
    <contour>
      <point x="19" y="-150" type="line"/>
      <point x="383" y="-150" type="line"/>
      <point x="383" y="0" type="line"/>
      <point x="19" y="0" type="line"/>
    </contour>
  </outline>
</glyph>
<glyph name="a" format="2">
  <advance width="470"/>
  <unicode hex="0061"/>
  <anchor x="235" y="0" name="bottom"/>
  <anchor x="443" y="0" name="ogonek"/>
  <anchor x="235" y="541" name="top"/>
  <outline>
    <contour>
      <point x="156" y="-10" type="curve" smooth="yes"/>
      <point x="201" y="-10"/>
      <point x="241" y="13"/>
      <point x="260" y="64" type="curve"/>
      <point x="267" y="64" type="line"/>
      <point x="267" y="0" type="line"/>
      <point x="443" y="0" type="line"/>
      <point x="443" y="541" type="line"/>
      <point x="271" y="541" type="line"/>
      <point x="267" y="477" type="line"/>
      <point x="260" y="477" type="line"/>
      <point x="242" y="526"/>
      <point x="208" y="551"/>
      <point x="156" y="551" type="curve" smooth="yes"/>
      <point x="74" y="551"/>
      <point x="16" y="493"/>
      <point x="16" y="271" type="curve" smooth="yes"/>
      <point x="16" y="97"/>
      <point x="46" y="-10"/>
    </contour>
    <contour>
      <point x="231" y="128" type="curve" smooth="yes"/>
      <point x="204" y="128"/>
      <point x="194" y="160"/>
      <point x="194" y="271" type="curve" smooth="yes"/>
      <point x="194" y="365"/>
      <point x="199" y="415"/>
      <point x="231" y="415" type="curve" smooth="yes"/>
      <point x="255" y="415"/>
      <point x="267" y="385"/>
      <point x="267" y="285" type="curve" smooth="yes"/>
      <point x="267" y="256" type="line" smooth="yes"/>
      <point x="267" y="171"/>
      <point x="259" y="128"/>
    </contour>
  </outline>
</glyph>
<glyph name="b" format="2">
  <advance width="470"/>
  <unicode hex="0062"/>
  <anchor x="236" y="0" name="bottom"/>
  <anchor x="236" y="729" name="top"/>
  <outline>
    <contour>
      <point x="315" y="-10" type="curve" smooth="yes"/>
      <point x="399" y="-10"/>
      <point x="454" y="51"/>
      <point x="454" y="271" type="curve" smooth="yes"/>
      <point x="454" y="441"/>
      <point x="426" y="551"/>
      <point x="315" y="551" type="curve" smooth="yes"/>
      <point x="267" y="551"/>
      <point x="228" y="525"/>
      <point x="210" y="477" type="curve"/>
      <point x="204" y="477" type="line"/>
      <point x="204" y="729" type="line"/>
      <point x="27" y="729" type="line"/>
      <point x="27" y="0" type="line"/>
      <point x="201" y="0" type="line"/>
      <point x="204" y="64" type="line"/>
      <point x="210" y="64" type="line"/>
      <point x="229" y="15"/>
      <point x="262" y="-10"/>
    </contour>
    <contour>
      <point x="240" y="128" type="curve" smooth="yes"/>
      <point x="215" y="128"/>
      <point x="204" y="159"/>
      <point x="204" y="256" type="curve" smooth="yes"/>
      <point x="204" y="285" type="line" smooth="yes"/>
      <point x="204" y="367"/>
      <point x="211" y="415"/>
      <point x="240" y="415" type="curve" smooth="yes"/>
      <point x="267" y="415"/>
      <point x="278" y="380"/>
      <point x="278" y="271" type="curve" smooth="yes"/>
      <point x="278" y="173"/>
      <point x="271" y="128"/>
    </contour>
  </outline>
</glyph>
<glyph name="c" format="2">
  <advance width="439"/>
  <unicode hex="0063"/>
  <anchor x="225" y="0" name="bottom"/>
  <anchor x="220" y="541" name="top"/>
  <outline>
    <contour>
      <point x="225" y="-10" type="curve" smooth="yes"/>
      <point x="330" y="-10"/>
      <point x="415" y="37"/>
      <point x="428" y="204" type="curve"/>
      <point x="261" y="204" type="line"/>
      <point x="257" y="153"/>
      <point x="249" y="128"/>
      <point x="225" y="128" type="curve" smooth="yes"/>
      <point x="197" y="128"/>
      <point x="191" y="164"/>
      <point x="191" y="271" type="curve" smooth="yes"/>
      <point x="191" y="383"/>
      <point x="198" y="414"/>
      <point x="225" y="414" type="curve" smooth="yes"/>
      <point x="248" y="414"/>
      <point x="257" y="395"/>
      <point x="261" y="339" type="curve"/>
      <point x="428" y="339" type="line"/>
      <point x="417" y="486"/>
      <point x="351" y="551"/>
      <point x="225" y="551" type="curve" smooth="yes"/>
      <point x="92" y="551"/>
      <point x="14" y="474"/>
      <point x="14" y="273" type="curve" smooth="yes"/>
      <point x="14" y="66"/>
      <point x="96" y="-10"/>
    </contour>
  </outline>
</glyph>
<glyph name="d" format="2">
  <advance width="470"/>
  <unicode hex="0064"/>
  <anchor x="235" y="0" name="bottom"/>
  <anchor x="335" y="631" name="center"/>
  <anchor x="355" y="729" name="top"/>
  <anchor x="443" y="729" name="topright"/>
  <outline>
    <contour>
      <point x="156" y="-10" type="curve" smooth="yes"/>
      <point x="208" y="-10"/>
      <point x="243" y="17"/>
      <point x="260" y="64" type="curve"/>
      <point x="267" y="64" type="line"/>
      <point x="271" y="0" type="line"/>
      <point x="443" y="0" type="line"/>
      <point x="443" y="729" type="line"/>
      <point x="267" y="729" type="line"/>
      <point x="267" y="477" type="line"/>
      <point x="260" y="477" type="line"/>
      <point x="242" y="524"/>
      <point x="206" y="551"/>
      <point x="156" y="551" type="curve" smooth="yes"/>
      <point x="46" y="551"/>
      <point x="16" y="444"/>
      <point x="16" y="271" type="curve" smooth="yes"/>
      <point x="16" y="48"/>
      <point x="73" y="-10"/>
    </contour>
    <contour>
      <point x="231" y="128" type="curve" smooth="yes"/>
      <point x="199" y="128"/>
      <point x="194" y="176"/>
      <point x="194" y="271" type="curve" smooth="yes"/>
      <point x="194" y="381"/>
      <point x="204" y="415"/>
      <point x="231" y="415" type="curve" smooth="yes"/>
      <point x="259" y="415"/>
      <point x="267" y="370"/>
      <point x="267" y="285" type="curve" smooth="yes"/>
      <point x="267" y="256" type="line" smooth="yes"/>
      <point x="267" y="157"/>
      <point x="255" y="128"/>
    </contour>
  </outline>
</glyph>
<glyph name="e" format="2">
  <advance width="443"/>
  <unicode hex="0065"/>
  <anchor x="226" y="0" name="bottom"/>
  <anchor x="341" y="0" name="ogonek"/>
  <anchor x="222" y="541" name="top"/>
  <outline>
    <contour>
      <point x="226" y="-10" type="curve" smooth="yes"/>
      <point x="339" y="-10"/>
      <point x="416" y="40"/>
      <point x="428" y="185" type="curve"/>
      <point x="261" y="185" type="line"/>
      <point x="258" y="135"/>
      <point x="247" y="118"/>
      <point x="226" y="118" type="curve" smooth="yes"/>
      <point x="202" y="118"/>
      <point x="191" y="147"/>
      <point x="191" y="235" type="curve"/>
      <point x="428" y="235" type="line"/>
      <point x="438" y="441"/>
      <point x="382" y="551"/>
      <point x="226" y="551" type="curve" smooth="yes"/>
      <point x="92" y="551"/>
      <point x="14" y="474"/>
      <point x="14" y="273" type="curve" smooth="yes"/>
      <point x="14" y="65"/>
      <point x="97" y="-10"/>
    </contour>
    <contour>
      <point x="190" y="308" type="line"/>
      <point x="191" y="396"/>
      <point x="202" y="422"/>
      <point x="226" y="422" type="curve" smooth="yes"/>
      <point x="251" y="422"/>
      <point x="261" y="390"/>
      <point x="261" y="307" type="curve"/>
      <point x="269" y="333" type="line"/>
      <point x="180" y="333" type="line"/>
    </contour>
  </outline>
</glyph>
<glyph name="f" format="2">
  <advance width="304"/>
  <unicode hex="0066"/>
  <anchor x="160" y="0" name="bottom"/>
  <anchor x="160" y="729" name="top"/>
  <outline>
    <contour>
      <point x="59" y="0" type="line"/>
      <point x="236" y="0" type="line"/>
      <point x="236" y="401" type="line"/>
      <point x="293" y="398" type="line"/>
      <point x="293" y="541" type="line"/>
      <point x="236" y="539" type="line"/>
      <point x="236" y="561" type="line" smooth="yes"/>
      <point x="236" y="593"/>
      <point x="243" y="605"/>
      <point x="272" y="605" type="curve" smooth="yes"/>
      <point x="300" y="605" type="line"/>
      <point x="300" y="729" type="line"/>
      <point x="222" y="729" type="line" smooth="yes"/>
      <point x="102" y="729"/>
      <point x="59" y="672"/>
      <point x="59" y="575" type="curve" smooth="yes"/>
      <point x="59" y="539" type="line"/>
      <point x="11" y="541" type="line"/>
      <point x="11" y="398" type="line"/>
      <point x="59" y="401" type="line"/>
    </contour>
  </outline>
</glyph>
<glyph name="g" format="2">
  <advance width="467"/>
  <unicode hex="0067"/>
  <anchor x="232" y="-167" name="bottom"/>
  <anchor x="232" y="541" name="top"/>
  <outline>
    <contour>
      <point x="218" y="-177" type="curve" smooth="yes"/>
      <point x="377" y="-177"/>
      <point x="440" y="-125"/>
      <point x="440" y="39" type="curve" smooth="yes"/>
      <point x="440" y="541" type="line"/>
      <point x="269" y="541" type="line"/>
      <point x="264" y="480" type="line"/>
      <point x="257" y="480" type="line"/>
      <point x="241" y="526"/>
      <point x="207" y="551"/>
      <point x="156" y="551" type="curve" smooth="yes"/>
      <point x="73" y="551"/>
      <point x="15" y="494"/>
      <point x="15" y="292" type="curve" smooth="yes"/>
      <point x="15" y="135"/>
      <point x="45" y="31"/>
      <point x="156" y="31" type="curve" smooth="yes"/>
      <point x="196" y="31"/>
      <point x="237" y="50"/>
      <point x="257" y="104" type="curve"/>
      <point x="264" y="104" type="line"/>
      <point x="264" y="7" type="line" smooth="yes"/>
      <point x="264" y="-33"/>
      <point x="257" y="-61"/>
      <point x="232" y="-61" type="curve" smooth="yes"/>
      <point x="214" y="-61"/>
      <point x="200" y="-47"/>
      <point x="200" y="-5" type="curve"/>
      <point x="38" y="-5" type="line"/>
      <point x="37" y="-113"/>
      <point x="105" y="-177"/>
    </contour>
    <contour>
      <point x="229" y="159" type="curve" smooth="yes"/>
      <point x="203" y="159"/>
      <point x="193" y="191"/>
      <point x="193" y="292" type="curve" smooth="yes"/>
      <point x="193" y="375"/>
      <point x="198" y="422"/>
      <point x="229" y="422" type="curve" smooth="yes"/>
      <point x="252" y="422"/>
      <point x="264" y="394"/>
      <point x="264" y="305" type="curve" smooth="yes"/>
      <point x="264" y="277" type="line" smooth="yes"/>
      <point x="264" y="201"/>
      <point x="256" y="159"/>
    </contour>
  </outline>
</glyph>
<glyph name="h" format="2">
  <advance width="474"/>
  <unicode hex="0068"/>
  <anchor x="239" y="0" name="bottom"/>
  <anchor x="136" y="631" name="center"/>
  <anchor x="116" y="729" name="top"/>
  <outline>
    <contour>
      <point x="27" y="0" type="line"/>
      <point x="204" y="0" type="line"/>
      <point x="204" y="328" type="line" smooth="yes"/>
      <point x="204" y="381"/>
      <point x="211" y="411"/>
      <point x="241" y="411" type="curve" smooth="yes"/>
      <point x="263" y="411"/>
      <point x="275" y="396"/>
      <point x="275" y="335" type="curve" smooth="yes"/>
      <point x="275" y="0" type="line"/>
      <point x="451" y="0" type="line"/>
      <point x="451" y="347" type="line" smooth="yes"/>
      <point x="451" y="494"/>
      <point x="411" y="551"/>
      <point x="320" y="551" type="curve" smooth="yes"/>
      <point x="272" y="551"/>
      <point x="233" y="526"/>
      <point x="210" y="477" type="curve"/>
      <point x="204" y="477" type="line"/>
      <point x="204" y="729" type="line"/>
      <point x="27" y="729" type="line"/>
    </contour>
  </outline>
</glyph>
<glyph name="k" format="2">
  <advance width="465"/>
  <unicode hex="006B"/>
  <anchor x="231" y="0" name="bottom"/>
  <anchor x="231" y="729" name="top"/>
  <outline>
    <contour>
      <point x="27" y="0" type="line"/>
      <point x="204" y="0" type="line"/>
      <point x="204" y="120" type="line"/>
      <point x="228" y="194" type="line"/>
      <point x="243" y="127" type="line"/>
      <point x="271" y="0" type="line"/>
      <point x="457" y="0" type="line"/>
      <point x="360" y="316" type="line"/>
      <point x="458" y="541" type="line"/>
      <point x="269" y="541" type="line"/>
      <point x="227" y="410" type="line"/>
      <point x="204" y="326" type="line"/>
      <point x="204" y="729" type="line"/>
      <point x="27" y="729" type="line"/>
    </contour>
  </outline>
</glyph>
<glyph name="l" format="2">
  <advance width="231"/>
  <unicode hex="006C"/>
  <anchor x="116" y="0" name="bottom"/>
  <anchor x="116" y="365" name="center"/>
  <anchor x="116" y="729" name="top"/>
  <anchor x="204" y="729" name="topright"/>
  <outline>
    <contour>
      <point x="27" y="0" type="line"/>
      <point x="204" y="0" type="line"/>
      <point x="204" y="729" type="line"/>
      <point x="27" y="729" type="line"/>
    </contour>
  </outline>
</glyph>
<glyph name="m" format="2">
  <advance width="737"/>
  <unicode hex="006D"/>
  <anchor x="370" y="0" name="bottom"/>
  <anchor x="370" y="541" name="top"/>
  <outline>
    <contour>
      <point x="27" y="0" type="line"/>
      <point x="204" y="0" type="line"/>
      <point x="204" y="328" type="line" smooth="yes"/>
      <point x="204" y="381"/>
      <point x="213" y="411"/>
      <point x="244" y="411" type="curve" smooth="yes"/>
      <point x="269" y="411"/>
      <point x="282" y="394"/>
      <point x="282" y="335" type="curve" smooth="yes"/>
      <point x="282" y="0" type="line"/>
      <point x="459" y="0" type="line"/>
      <point x="459" y="328" type="line" smooth="yes"/>
      <point x="459" y="383"/>
      <point x="468" y="411"/>
      <point x="499" y="411" type="curve" smooth="yes"/>
      <point x="525" y="411"/>
      <point x="536" y="391"/>
      <point x="536" y="335" type="curve" smooth="yes"/>
      <point x="536" y="0" type="line"/>
      <point x="714" y="0" type="line"/>
      <point x="714" y="347" type="line" smooth="yes"/>
      <point x="714" y="494"/>
      <point x="668" y="551"/>
      <point x="570" y="551" type="curve" smooth="yes"/>
      <point x="511" y="551"/>
      <point x="471" y="521"/>
      <point x="450" y="467" type="curve"/>
      <point x="444" y="467" type="line"/>
      <point x="425" y="527"/>
      <point x="383" y="551"/>
      <point x="325" y="551" type="curve" smooth="yes"/>
      <point x="271" y="551"/>
      <point x="233" y="524"/>
      <point x="210" y="477" type="curve"/>
      <point x="204" y="477" type="line"/>
      <point x="199" y="541" type="line"/>
      <point x="27" y="541" type="line"/>
    </contour>
  </outline>
</glyph>
<glyph name="n" format="2">
  <advance width="474"/>
  <unicode hex="006E"/>
  <anchor x="239" y="0" name="bottom"/>
  <anchor x="239" y="541" name="top"/>
  <outline>
    <contour>
      <point x="27" y="0" type="line"/>
      <point x="204" y="0" type="line"/>
      <point x="204" y="328" type="line" smooth="yes"/>
      <point x="204" y="381"/>
      <point x="211" y="411"/>
      <point x="241" y="411" type="curve" smooth="yes"/>
      <point x="263" y="411"/>
      <point x="275" y="396"/>
      <point x="275" y="335" type="curve" smooth="yes"/>
      <point x="275" y="0" type="line"/>
      <point x="451" y="0" type="line"/>
      <point x="451" y="347" type="line" smooth="yes"/>
      <point x="451" y="494"/>
      <point x="411" y="551"/>
      <point x="320" y="551" type="curve" smooth="yes"/>
      <point x="270" y="551"/>
      <point x="232" y="524"/>
      <point x="210" y="477" type="curve"/>
      <point x="204" y="477" type="line"/>
      <point x="199" y="541" type="line"/>
      <point x="27" y="541" type="line"/>
    </contour>
  </outline>
</glyph>
<glyph name="o" format="2">
  <advance width="454"/>
  <unicode hex="006F"/>
  <anchor x="227" y="0" name="bottom"/>
  <anchor x="227" y="271" name="center"/>
  <anchor x="412" y="10" name="ogonek"/>
  <anchor x="227" y="541" name="top"/>
  <anchor x="299" y="531" name="topright"/>
  <outline>
    <contour>
      <point x="226" y="-10" type="curve" smooth="yes"/>
      <point x="357" y="-10"/>
      <point x="440" y="65"/>
      <point x="440" y="273" type="curve" smooth="yes"/>
      <point x="440" y="475"/>
      <point x="360" y="551"/>
      <point x="226" y="551" type="curve" smooth="yes"/>
      <point x="92" y="551"/>
      <point x="14" y="474"/>
      <point x="14" y="273" type="curve" smooth="yes"/>
      <point x="14" y="65"/>
      <point x="97" y="-10"/>
    </contour>
    <contour>
      <point x="226" y="128" type="curve" smooth="yes"/>
      <point x="197" y="128"/>
      <point x="191" y="165"/>
      <point x="191" y="271" type="curve" smooth="yes"/>
      <point x="191" y="382"/>
      <point x="198" y="414"/>
      <point x="226" y="414" type="curve" smooth="yes"/>
      <point x="255" y="414"/>
      <point x="263" y="383"/>
      <point x="263" y="271" type="curve" smooth="yes"/>
      <point x="263" y="164"/>
      <point x="256" y="128"/>
    </contour>
  </outline>
</glyph>
<glyph name="p" format="2">
  <advance width="470"/>
  <unicode hex="0070"/>
  <anchor x="236" y="0" name="bottom"/>
  <anchor x="236" y="541" name="top"/>
  <outline>
    <contour>
      <point x="27" y="-167" type="line"/>
      <point x="204" y="-167" type="line"/>
      <point x="204" y="64" type="line"/>
      <point x="210" y="64" type="line"/>
      <point x="230" y="15"/>
      <point x="266" y="-10"/>
      <point x="315" y="-10" type="curve" smooth="yes"/>
      <point x="426" y="-10"/>
      <point x="454" y="99"/>
      <point x="454" y="271" type="curve" smooth="yes"/>
      <point x="454" y="492"/>
      <point x="398" y="551"/>
      <point x="315" y="551" type="curve" smooth="yes"/>
      <point x="264" y="551"/>
      <point x="228" y="526"/>
      <point x="210" y="477" type="curve"/>
      <point x="204" y="477" type="line"/>
      <point x="201" y="541" type="line"/>
      <point x="27" y="541" type="line"/>
    </contour>
    <contour>
      <point x="240" y="128" type="curve" smooth="yes"/>
      <point x="211" y="128"/>
      <point x="204" y="174"/>
      <point x="204" y="256" type="curve" smooth="yes"/>
      <point x="204" y="285" type="line" smooth="yes"/>
      <point x="204" y="381"/>
      <point x="215" y="415"/>
      <point x="240" y="415" type="curve" smooth="yes"/>
      <point x="271" y="415"/>
      <point x="278" y="369"/>
      <point x="278" y="271" type="curve" smooth="yes"/>
      <point x="278" y="160"/>
      <point x="267" y="128"/>
    </contour>
  </outline>
</glyph>
<glyph name="r" format="2">
  <advance width="309"/>
  <unicode hex="0072"/>
  <anchor x="116" y="0" name="bottom"/>
  <anchor x="155" y="541" name="top"/>
  <outline>
    <contour>
      <point x="27" y="0" type="line"/>
      <point x="204" y="0" type="line"/>
      <point x="204" y="284" type="line" smooth="yes"/>
      <point x="204" y="359"/>
      <point x="219" y="372"/>
      <point x="259" y="372" type="curve" smooth="yes"/>
      <point x="275" y="372"/>
      <point x="286" y="371"/>
      <point x="297" y="369" type="curve"/>
      <point x="297" y="545" type="line"/>
      <point x="293" y="545"/>
      <point x="290" y="544"/>
      <point x="288" y="544" type="curve" smooth="yes"/>
      <point x="231" y="540"/>
      <point x="214" y="513"/>
      <point x="201" y="462" type="curve"/>
      <point x="194" y="462" type="line"/>
      <point x="188" y="541" type="line"/>
      <point x="27" y="541" type="line"/>
    </contour>
  </outline>
</glyph>
<glyph name="s" format="2">
  <advance width="421"/>
  <unicode hex="0073"/>
  <anchor x="215" y="0" name="bottom"/>
  <anchor x="213" y="541" name="top"/>
  <outline>
    <contour>
      <point x="209" y="-10" type="curve" smooth="yes"/>
      <point x="345" y="-10"/>
      <point x="409" y="59"/>
      <point x="409" y="162" type="curve" smooth="yes"/>
      <point x="409" y="238"/>
      <point x="376" y="292"/>
      <point x="264" y="340" type="curve" smooth="yes"/>
      <point x="217" y="360"/>
      <point x="186" y="374"/>
      <point x="186" y="406" type="curve" smooth="yes"/>
      <point x="186" y="426"/>
      <point x="192" y="443"/>
      <point x="213" y="443" type="curve" smooth="yes"/>
      <point x="236" y="443"/>
      <point x="245" y="430"/>
      <point x="248" y="379" type="curve"/>
      <point x="403" y="379" type="line"/>
      <point x="403" y="491"/>
      <point x="330" y="551"/>
      <point x="214" y="551" type="curve" smooth="yes"/>
      <point x="83" y="551"/>
      <point x="18" y="486"/>
      <point x="18" y="386" type="curve" smooth="yes"/>
      <point x="18" y="294"/>
      <point x="76" y="249"/>
      <point x="150" y="215" type="curve" smooth="yes"/>
      <point x="226" y="180"/>
      <point x="235" y="168"/>
      <point x="235" y="135" type="curve" smooth="yes"/>
      <point x="235" y="115"/>
      <point x="228" y="101"/>
      <point x="207" y="101" type="curve" smooth="yes"/>
      <point x="183" y="101"/>
      <point x="171" y="114"/>
      <point x="171" y="168" type="curve"/>
      <point x="11" y="168" type="line"/>
      <point x="13" y="61"/>
      <point x="76" y="-10"/>
    </contour>
  </outline>
</glyph>
<glyph name="u" format="2">
  <advance width="474"/>
  <unicode hex="0075"/>
  <anchor x="235" y="0" name="bottom"/>
  <anchor x="447" y="0" name="ogonek"/>
  <anchor x="235" y="541" name="top"/>
  <anchor x="327" y="541" name="topright"/>
  <outline>
    <contour>
      <point x="154" y="-10" type="curve" smooth="yes"/>
      <point x="209" y="-10"/>
      <point x="243" y="18"/>
      <point x="264" y="64" type="curve"/>
      <point x="271" y="64" type="line"/>
      <point x="277" y="0" type="line"/>
      <point x="447" y="0" type="line"/>
      <point x="447" y="541" type="line"/>
      <point x="271" y="541" type="line"/>
      <point x="271" y="213" type="line" smooth="yes"/>
      <point x="271" y="160"/>
      <point x="264" y="131"/>
      <point x="234" y="131" type="curve" smooth="yes"/>
      <point x="211" y="131"/>
      <point x="200" y="148"/>
      <point x="200" y="206" type="curve" smooth="yes"/>
      <point x="200" y="541" type="line"/>
      <point x="23" y="541" type="line"/>
      <point x="23" y="194" type="line" smooth="yes"/>
      <point x="23" y="46"/>
      <point x="65" y="-10"/>
    </contour>
  </outline>
</glyph>
<glyph name="v" format="2">
  <advance width="442"/>
  <unicode hex="0076"/>
  <anchor x="222" y="0" name="bottom"/>
  <anchor x="222" y="541" name="top"/>
  <outline>
    <contour>
      <point x="96" y="0" type="line"/>
      <point x="345" y="0" type="line"/>
      <point x="434" y="541" type="line"/>
      <point x="256" y="541" type="line"/>
      <point x="233" y="257" type="line"/>
      <point x="225" y="133" type="line"/>
      <point x="217" y="133" type="line"/>
      <point x="209" y="257" type="line"/>
      <point x="187" y="541" type="line"/>
      <point x="8" y="541" type="line"/>
    </contour>
  </outline>
</glyph>
<glyph name="w" format="2">
  <advance width="651"/>
  <unicode hex="0077"/>
  <anchor x="324" y="0" name="bottom"/>
  <anchor x="324" y="541" name="top"/>
  <outline>
    <contour>
      <point x="75" y="0" type="line"/>
      <point x="299" y="0" type="line"/>
      <point x="311" y="174" type="line"/>
      <point x="320" y="373" type="line"/>
      <point x="330" y="373" type="line"/>
      <point x="334" y="174" type="line"/>
      <point x="342" y="0" type="line"/>
      <point x="566" y="0" type="line"/>
      <point x="643" y="541" type="line"/>
      <point x="470" y="541" type="line"/>
      <point x="461" y="261" type="line"/>
      <point x="458" y="153" type="line"/>
      <point x="450" y="153" type="line"/>
      <point x="441" y="261" type="line"/>
      <point x="416" y="541" type="line"/>
      <point x="229" y="541" type="line"/>
      <point x="208" y="261" type="line"/>
      <point x="201" y="153" type="line"/>
      <point x="193" y="153" type="line"/>
      <point x="189" y="261" type="line"/>
      <point x="176" y="541" type="line"/>
      <point x="9" y="541" type="line"/>
    </contour>
  </outline>
</glyph>
<glyph name="x" format="2">
  <advance width="475"/>
  <unicode hex="0078"/>
  <anchor x="238" y="0" name="bottom"/>
  <anchor x="238" y="541" name="top"/>
  <outline>
    <contour>
      <point x="7" y="0" type="line"/>
      <point x="192" y="0" type="line"/>
      <point x="224" y="145" type="line"/>
      <point x="230" y="176" type="line"/>
      <point x="238" y="176" type="line"/>
      <point x="244" y="145" type="line"/>
      <point x="275" y="0" type="line"/>
      <point x="468" y="0" type="line"/>
      <point x="368" y="288" type="line"/>
      <point x="460" y="541" type="line"/>
      <point x="281" y="541" type="line"/>
      <point x="251" y="393" type="line"/>
      <point x="246" y="366" type="line"/>
      <point x="238" y="366" type="line"/>
      <point x="233" y="393" type="line"/>
      <point x="205" y="541" type="line"/>
      <point x="14" y="541" type="line"/>
      <point x="109" y="284" type="line"/>
    </contour>
  </outline>
</glyph>
<glyph name="y" format="2">
  <advance width="439"/>
  <unicode hex="0079"/>
  <anchor x="417" y="0" name="bottom"/>
  <anchor x="220" y="541" name="top"/>
  <outline>
    <contour>
      <point x="55" y="-167" type="line"/>
      <point x="121" y="-167" type="line" smooth="yes"/>
      <point x="219" y="-167"/>
      <point x="304" y="-135"/>
      <point x="332" y="11" type="curve" smooth="yes"/>
      <point x="432" y="541" type="line"/>
      <point x="263" y="541" type="line"/>
      <point x="242" y="301" type="line"/>
      <point x="233" y="179" type="line"/>
      <point x="226" y="179" type="line"/>
      <point x="214" y="300" type="line"/>
      <point x="187" y="541" type="line"/>
      <point x="7" y="541" type="line"/>
      <point x="149" y="-38" type="line"/>
      <point x="155" y="80" type="line"/>
      <point x="145" y="16" type="line" smooth="yes"/>
      <point x="138" y="-27"/>
      <point x="119" y="-36"/>
      <point x="89" y="-36" type="curve" smooth="yes"/>
      <point x="55" y="-36" type="line"/>
    </contour>
  </outline>
</glyph>
<glyph name="z" format="2">
  <advance width="371"/>
  <unicode hex="007A"/>
  <anchor x="186" y="0" name="bottom"/>
  <anchor x="186" y="271" name="center"/>
  <anchor x="186" y="541" name="top"/>
  <outline>
    <contour>
      <point x="15" y="0" type="line"/>
      <point x="355" y="0" type="line"/>
      <point x="355" y="137" type="line"/>
      <point x="209" y="137" type="line"/>
      <point x="352" y="419" type="line"/>
      <point x="352" y="541" type="line"/>
      <point x="21" y="541" type="line"/>
      <point x="21" y="405" type="line"/>
      <point x="158" y="405" type="line"/>
      <point x="15" y="124" type="line"/>
    </contour>
  </outline>
</glyph>
<glyph name="braceleft" format="2">
  <advance width="344"/>
  <unicode hex="007B"/>
  <outline>
    <contour>
      <point x="218" y="-167" type="curve" smooth="yes"/>
      <point x="328" y="-167" type="line"/>
      <point x="328" y="-42" type="line"/>
      <point x="249" y="-42" type="line"/>
      <point x="249" y="171" type="line" smooth="yes"/>
      <point x="249" y="232"/>
      <point x="232" y="282"/>
      <point x="159" y="309" type="curve"/>
      <point x="159" y="312" type="line"/>
      <point x="229" y="328"/>
      <point x="249" y="380"/>
      <point x="249" y="446" type="curve" smooth="yes"/>
      <point x="249" y="668" type="line"/>
      <point x="328" y="668" type="line"/>
      <point x="328" y="793" type="line"/>
      <point x="218" y="793" type="line" smooth="yes"/>
      <point x="130" y="793"/>
      <point x="89" y="738"/>
      <point x="89" y="666" type="curve" smooth="yes"/>
      <point x="89" y="446" type="line" smooth="yes"/>
      <point x="89" y="399"/>
      <point x="66" y="368"/>
      <point x="26" y="368" type="curve" smooth="yes"/>
      <point x="13" y="368" type="line"/>
      <point x="13" y="241" type="line"/>
      <point x="26" y="241" type="line" smooth="yes"/>
      <point x="64" y="241"/>
      <point x="89" y="214"/>
      <point x="89" y="166" type="curve" smooth="yes"/>
      <point x="89" y="-40" type="line" smooth="yes"/>
      <point x="89" y="-112"/>
      <point x="130" y="-167"/>
    </contour>
  </outline>
</glyph>
<glyph name="bar" format="2">
  <advance width="224"/>
  <unicode hex="007C"/>
  <outline>
    <contour>
      <point x="34" y="-67" type="line"/>
      <point x="190" y="-67" type="line"/>
      <point x="190" y="729" type="line"/>
      <point x="34" y="729" type="line"/>
    </contour>
  </outline>
</glyph>
<glyph name="asciitilde" format="2">
  <advance width="480"/>
  <unicode hex="007E"/>
  <outline>
    <contour>
      <point x="24" y="271" type="curve"/>
      <point x="106" y="271" type="line"/>
      <point x="103" y="294"/>
      <point x="115" y="330"/>
      <point x="150" y="330" type="curve" smooth="yes"/>
      <point x="201" y="330"/>
      <point x="240" y="264"/>
      <point x="330" y="264" type="curve" smooth="yes"/>
      <point x="393" y="264"/>
      <point x="465" y="312"/>
      <point x="456" y="463" type="curve"/>
      <point x="375" y="463" type="line"/>
      <point x="374" y="431"/>
      <point x="357" y="403"/>
      <point x="319" y="403" type="curve" smooth="yes"/>
      <point x="258" y="403"/>
      <point x="223" y="466"/>
      <point x="146" y="466" type="curve" smooth="yes"/>
      <point x="82" y="466"/>
      <point x="15" y="416"/>
    </contour>
  </outline>
</glyph>
<glyph name="cent" format="2">
  <advance width="450"/>
  <unicode hex="00A2"/>
  <outline>
    <contour>
      <point x="230" y="93" type="curve" smooth="yes"/>
      <point x="335" y="93"/>
      <point x="420" y="140"/>
      <point x="433" y="307" type="curve"/>
      <point x="266" y="307" type="line"/>
      <point x="262" y="256"/>
      <point x="254" y="231"/>
      <point x="230" y="231" type="curve" smooth="yes"/>
      <point x="202" y="231"/>
      <point x="196" y="267"/>
      <point x="196" y="374" type="curve" smooth="yes"/>
      <point x="196" y="486"/>
      <point x="203" y="517"/>
      <point x="230" y="517" type="curve" smooth="yes"/>
      <point x="253" y="517"/>
      <point x="262" y="498"/>
      <point x="266" y="442" type="curve"/>
      <point x="433" y="442" type="line"/>
      <point x="422" y="589"/>
      <point x="356" y="654"/>
      <point x="230" y="654" type="curve" smooth="yes"/>
      <point x="97" y="654"/>
      <point x="19" y="577"/>
      <point x="19" y="376" type="curve" smooth="yes"/>
      <point x="19" y="169"/>
      <point x="101" y="93"/>
    </contour>
    <contour>
      <point x="175" y="0" type="line"/>
      <point x="278" y="0" type="line"/>
      <point x="278" y="164" type="line"/>
      <point x="175" y="164" type="line"/>
    </contour>
    <contour>
      <point x="175" y="579" type="line"/>
      <point x="278" y="579" type="line"/>
      <point x="278" y="729" type="line"/>
      <point x="175" y="729" type="line"/>
    </contour>
  </outline>
</glyph>
<glyph name="sterling" format="2">
  <advance width="514"/>
  <unicode hex="00A3"/>
  <outline>
    <contour>
      <point x="66" y="132" type="curve"/>
      <point x="203" y="132" type="line"/>
      <point x="259" y="179"/>
      <point x="274" y="230"/>
      <point x="274" y="298" type="curve" smooth="yes"/>
      <point x="274" y="372"/>
      <point x="248" y="455"/>
      <point x="248" y="508" type="curve" smooth="yes"/>
      <point x="248" y="568"/>
      <point x="263" y="588"/>
      <point x="288" y="588" type="curve" smooth="yes"/>
      <point x="320" y="588"/>
      <point x="331" y="560"/>
      <point x="330" y="501" type="curve"/>
      <point x="492" y="501" type="line"/>
      <point x="496" y="642"/>
      <point x="431" y="737"/>
      <point x="283" y="737" type="curve" smooth="yes"/>
      <point x="164" y="737"/>
      <point x="74" y="654"/>
      <point x="74" y="511" type="curve" smooth="yes"/>
      <point x="74" y="437"/>
      <point x="99" y="364"/>
      <point x="99" y="289" type="curve" smooth="yes"/>
      <point x="99" y="237"/>
      <point x="91" y="194"/>
    </contour>
    <contour>
      <point x="20" y="0" type="line"/>
      <point x="489" y="0" type="line"/>
      <point x="489" y="223" type="line"/>
      <point x="346" y="223" type="line"/>
      <point x="346" y="135" type="line"/>
      <point x="20" y="135" type="line"/>
    </contour>
    <contour>
      <point x="27" y="296" type="line"/>
      <point x="368" y="296" type="line"/>
      <point x="368" y="420" type="line"/>
      <point x="27" y="420" type="line"/>
    </contour>
  </outline>
</glyph>
<glyph name="currency" format="2">
  <advance width="581"/>
  <unicode hex="00A4"/>
  <outline>
    <contour>
      <point x="107" y="85" type="line"/>
      <point x="203" y="182" type="line"/>
      <point x="230" y="172"/>
      <point x="257" y="166"/>
      <point x="290" y="166" type="curve" smooth="yes"/>
      <point x="323" y="166"/>
      <point x="351" y="172"/>
      <point x="378" y="182" type="curve"/>
      <point x="474" y="85" type="line"/>
      <point x="567" y="179" type="line"/>
      <point x="477" y="269" type="line"/>
      <point x="491" y="297"/>
      <point x="498" y="327"/>
      <point x="498" y="360" type="curve" smooth="yes"/>
      <point x="498" y="394"/>
      <point x="491" y="425"/>
      <point x="476" y="454" type="curve"/>
      <point x="566" y="543" type="line"/>
      <point x="473" y="637" type="line"/>
      <point x="376" y="539" type="line"/>
      <point x="350" y="549"/>
      <point x="317" y="554"/>
      <point x="290" y="554" type="curve" smooth="yes"/>
      <point x="263" y="554"/>
      <point x="231" y="549"/>
      <point x="205" y="539" type="curve"/>
      <point x="108" y="637" type="line"/>
      <point x="15" y="543" type="line"/>
      <point x="105" y="454" type="line"/>
      <point x="90" y="426"/>
      <point x="83" y="393"/>
      <point x="83" y="360" type="curve" smooth="yes"/>
      <point x="83" y="329"/>
      <point x="89" y="298"/>
      <point x="104" y="269" type="curve"/>
      <point x="14" y="179" type="line"/>
    </contour>
    <contour>
      <point x="290" y="294" type="curve" smooth="yes"/>
      <point x="252" y="294"/>
      <point x="222" y="320"/>
      <point x="222" y="360" type="curve" smooth="yes"/>
      <point x="222" y="400"/>
      <point x="252" y="427"/>
      <point x="290" y="427" type="curve" smooth="yes"/>
      <point x="329" y="427"/>
      <point x="359" y="400"/>
      <point x="359" y="360" type="curve" smooth="yes"/>
      <point x="359" y="320"/>
      <point x="328" y="294"/>
    </contour>
  </outline>
</glyph>
<glyph name="yen" format="2">
  <advance width="507"/>
  <unicode hex="00A5"/>
  <outline>
    <contour>
      <point x="159" y="0" type="line"/>
      <point x="348" y="0" type="line"/>
      <point x="348" y="103" type="line"/>
      <point x="435" y="103" type="line"/>
      <point x="435" y="234" type="line"/>
      <point x="348" y="234" type="line"/>
      <point x="348" y="276" type="line"/>
      <point x="435" y="276" type="line"/>
      <point x="435" y="408" type="line"/>
      <point x="391" y="408" type="line"/>
      <point x="493" y="729" type="line"/>
      <point x="298" y="729" type="line"/>
      <point x="255" y="455" type="line"/>
      <point x="249" y="455" type="line"/>
      <point x="210" y="729" type="line"/>
      <point x="14" y="729" type="line"/>
      <point x="116" y="408" type="line"/>
      <point x="72" y="408" type="line"/>
      <point x="72" y="276" type="line"/>
      <point x="159" y="276" type="line"/>
      <point x="159" y="234" type="line"/>
      <point x="72" y="234" type="line"/>
      <point x="72" y="103" type="line"/>
      <point x="159" y="103" type="line"/>
    </contour>
  </outline>
</glyph>
<glyph name="brokenbar" format="2">
  <advance width="224"/>
  <unicode hex="00A6"/>
  <outline>
    <contour>
      <point x="34" y="380" type="line"/>
      <point x="190" y="380" type="line"/>
      <point x="190" y="729" type="line"/>
      <point x="34" y="729" type="line"/>
    </contour>
    <contour>
      <point x="34" y="-67" type="line"/>
      <point x="190" y="-67" type="line"/>
      <point x="190" y="282" type="line"/>
      <point x="34" y="282" type="line"/>
    </contour>
  </outline>
</glyph>
<glyph name="section" format="2">
  <advance width="442"/>
  <unicode hex="00A7"/>
  <outline>
    <contour>
      <point x="205" y="-10" type="curve" smooth="yes"/>
      <point x="331" y="-10"/>
      <point x="409" y="56"/>
      <point x="409" y="150" type="curve" smooth="yes"/>
      <point x="409" y="197"/>
      <point x="391" y="233"/>
      <point x="358" y="263" type="curve"/>
      <point x="396" y="286"/>
      <point x="421" y="333"/>
      <point x="421" y="379" type="curve" smooth="yes"/>
      <point x="421" y="460"/>
      <point x="366" y="502"/>
      <point x="278" y="541" type="curve" smooth="yes"/>
      <point x="238" y="558"/>
      <point x="208" y="572"/>
      <point x="208" y="602" type="curve" smooth="yes"/>
      <point x="208" y="614"/>
      <point x="214" y="631"/>
      <point x="235" y="631" type="curve" smooth="yes"/>
      <point x="258" y="631"/>
      <point x="267" y="618"/>
      <point x="270" y="567" type="curve"/>
      <point x="425" y="567" type="line"/>
      <point x="425" y="677"/>
      <point x="349" y="739"/>
      <point x="236" y="739" type="curve" smooth="yes"/>
      <point x="118" y="739"/>
      <point x="40" y="675"/>
      <point x="40" y="578" type="curve" smooth="yes"/>
      <point x="40" y="537"/>
      <point x="58" y="496"/>
      <point x="98" y="468" type="curve"/>
      <point x="55" y="441"/>
      <point x="32" y="397"/>
      <point x="32" y="354" type="curve" smooth="yes"/>
      <point x="32" y="279"/>
      <point x="82" y="243"/>
      <point x="144" y="215" type="curve" smooth="yes"/>
      <point x="224" y="178"/>
      <point x="239" y="170"/>
      <point x="239" y="135" type="curve" smooth="yes"/>
      <point x="239" y="115"/>
      <point x="232" y="101"/>
      <point x="211" y="101" type="curve" smooth="yes"/>
      <point x="189" y="101"/>
      <point x="175" y="120"/>
      <point x="175" y="168" type="curve"/>
      <point x="15" y="168" type="line"/>
      <point x="17" y="61"/>
      <point x="80" y="-10"/>
    </contour>
    <contour>
      <point x="260" y="321" type="curve"/>
      <point x="252" y="326"/>
      <point x="244" y="330"/>
      <point x="235" y="334" type="curve" smooth="yes"/>
      <point x="193" y="354"/>
      <point x="180" y="367"/>
      <point x="180" y="389" type="curve" smooth="yes"/>
      <point x="180" y="399"/>
      <point x="184" y="409"/>
      <point x="191" y="418" type="curve"/>
      <point x="199" y="413"/>
      <point x="206" y="409"/>
      <point x="214" y="405" type="curve" smooth="yes"/>
      <point x="245" y="389"/>
      <point x="268" y="375"/>
      <point x="268" y="349" type="curve" smooth="yes"/>
      <point x="268" y="338"/>
      <point x="267" y="330"/>
    </contour>
  </outline>
</glyph>
<glyph name="ordfeminine" format="2">
  <advance width="325"/>
  <unicode hex="00AA"/>
  <outline>
    <contour>
      <point x="109" y="370" type="curve" smooth="yes"/>
      <point x="138" y="370"/>
      <point x="164" y="385"/>
      <point x="176" y="418" type="curve"/>
      <point x="181" y="418" type="line"/>
      <point x="181" y="377" type="line"/>
      <point x="299" y="377" type="line"/>
      <point x="299" y="729" type="line"/>
      <point x="184" y="729" type="line"/>
      <point x="181" y="688" type="line"/>
      <point x="176" y="688" type="line"/>
      <point x="164" y="721"/>
      <point x="141" y="736"/>
      <point x="109" y="736" type="curve" smooth="yes"/>
      <point x="55" y="736"/>
      <point x="17" y="698"/>
      <point x="17" y="553" type="curve" smooth="yes"/>
      <point x="17" y="442"/>
      <point x="36" y="370"/>
    </contour>
    <contour>
      <point x="159" y="463" type="curve" smooth="yes"/>
      <point x="142" y="463"/>
      <point x="136" y="483"/>
      <point x="136" y="553" type="curve" smooth="yes"/>
      <point x="136" y="614"/>
      <point x="139" y="645"/>
      <point x="159" y="645" type="curve" smooth="yes"/>
      <point x="174" y="645"/>
      <point x="181" y="625"/>
      <point x="181" y="562" type="curve" smooth="yes"/>
      <point x="181" y="544" type="line" smooth="yes"/>
      <point x="181" y="489"/>
      <point x="176" y="463"/>
    </contour>
  </outline>
</glyph>
<glyph name="guillemetleft" format="2">
  <advance width="540"/>
  <unicode hex="00AB"/>
  <outline>
    <contour>
      <point x="131" y="100" type="line"/>
      <point x="282" y="100" type="line"/>
      <point x="185" y="321" type="line"/>
      <point x="282" y="541" type="line"/>
      <point x="131" y="541" type="line"/>
      <point x="12" y="321" type="line"/>
    </contour>
    <contour>
      <point x="367" y="100" type="line"/>
      <point x="518" y="100" type="line"/>
      <point x="421" y="321" type="line"/>
      <point x="518" y="541" type="line"/>
      <point x="367" y="541" type="line"/>
      <point x="248" y="321" type="line"/>
    </contour>
  </outline>
</glyph>
<glyph name="logicalnot" format="2">
  <advance width="480"/>
  <unicode hex="00AC"/>
  <outline>
    <contour>
      <point x="329" y="139" type="line"/>
      <point x="473" y="139" type="line"/>
      <point x="473" y="428" type="line"/>
      <point x="-2" y="428" type="line"/>
      <point x="-2" y="281" type="line"/>
      <point x="329" y="281" type="line"/>
    </contour>
  </outline>
</glyph>
<glyph name="registered" format="2">
  <advance width="496"/>
  <unicode hex="00AE"/>
  <outline>
    <contour>
      <point x="248" y="207" type="curve" smooth="yes"/>
      <point x="385" y="207"/>
      <point x="476" y="313"/>
      <point x="476" y="473" type="curve" smooth="yes"/>
      <point x="476" y="632"/>
      <point x="385" y="738"/>
      <point x="248" y="738" type="curve" smooth="yes"/>
      <point x="111" y="738"/>
      <point x="20" y="632"/>
      <point x="20" y="473" type="curve" smooth="yes"/>
      <point x="20" y="313"/>
      <point x="111" y="207"/>
    </contour>
    <contour>
      <point x="248" y="258" type="curve" smooth="yes"/>
      <point x="141" y="258"/>
      <point x="70" y="343"/>
      <point x="70" y="471" type="curve" smooth="yes"/>
      <point x="70" y="601"/>
      <point x="142" y="687"/>
      <point x="248" y="687" type="curve" smooth="yes"/>
      <point x="354" y="687"/>
      <point x="426" y="601"/>
      <point x="426" y="471" type="curve" smooth="yes"/>
      <point x="426" y="343"/>
      <point x="355" y="258"/>
    </contour>
    <contour>
      <point x="161" y="325" type="line"/>
      <point x="236" y="325" type="line"/>
      <point x="236" y="563" type="line"/>
      <point x="242" y="563" type="line" smooth="yes"/>
      <point x="257" y="563"/>
      <point x="266" y="555"/>
      <point x="266" y="528" type="curve" smooth="yes"/>
      <point x="266" y="506"/>
      <point x="260" y="494"/>
      <point x="243" y="494" type="curve" smooth="yes"/>
      <point x="221" y="494" type="line"/>
      <point x="221" y="437" type="line"/>
      <point x="246" y="437" type="line" smooth="yes"/>
      <point x="259" y="437"/>
      <point x="265" y="427"/>
      <point x="265" y="408" type="curve" smooth="yes"/>
      <point x="265" y="355" type="line" smooth="yes"/>
      <point x="265" y="341"/>
      <point x="266" y="331"/>
      <point x="268" y="325" type="curve"/>
      <point x="344" y="325" type="line"/>
      <point x="340" y="334"/>
      <point x="340" y="345"/>
      <point x="340" y="356" type="curve" smooth="yes"/>
      <point x="340" y="419" type="line" smooth="yes"/>
      <point x="340" y="446"/>
      <point x="331" y="467"/>
      <point x="308" y="470" type="curve"/>
      <point x="308" y="471" type="line"/>
      <point x="329" y="478"/>
      <point x="344" y="502"/>
      <point x="344" y="541" type="curve" smooth="yes"/>
      <point x="344" y="591"/>
      <point x="314" y="625"/>
      <point x="260" y="625" type="curve" smooth="yes"/>
      <point x="161" y="625" type="line"/>
    </contour>
  </outline>
</glyph>
<glyph name="degree" format="2">
  <advance width="378"/>
  <unicode hex="00B0"/>
  <outline>
    <contour>
      <point x="189" y="387" type="curve" smooth="yes"/>
      <point x="290" y="387"/>
      <point x="357" y="450"/>
      <point x="357" y="563" type="curve" smooth="yes"/>
      <point x="357" y="676"/>
      <point x="290" y="739"/>
      <point x="189" y="739" type="curve" smooth="yes"/>
      <point x="88" y="739"/>
      <point x="21" y="676"/>
      <point x="21" y="563" type="curve" smooth="yes"/>
      <point x="21" y="450"/>
      <point x="88" y="387"/>
    </contour>
    <contour>
      <point x="189" y="496" type="curve" smooth="yes"/>
      <point x="162" y="496"/>
      <point x="150" y="518"/>
      <point x="150" y="563" type="curve" smooth="yes"/>
      <point x="150" y="608"/>
      <point x="162" y="630"/>
      <point x="189" y="630" type="curve" smooth="yes"/>
      <point x="216" y="630"/>
      <point x="228" y="608"/>
      <point x="228" y="563" type="curve" smooth="yes"/>
      <point x="228" y="518"/>
      <point x="216" y="496"/>
    </contour>
  </outline>
</glyph>
<glyph name="plusminus" format="2">
  <advance width="480"/>
  <unicode hex="00B1"/>
  <outline>
    <contour>
      <point x="166" y="189" type="line"/>
      <point x="314" y="189" type="line"/>
      <point x="314" y="311" type="line"/>
      <point x="462" y="311" type="line"/>
      <point x="462" y="451" type="line"/>
      <point x="314" y="451" type="line"/>
      <point x="314" y="573" type="line"/>
      <point x="166" y="573" type="line"/>
      <point x="166" y="451" type="line"/>
      <point x="18" y="451" type="line"/>
      <point x="18" y="311" type="line"/>
      <point x="166" y="311" type="line"/>
    </contour>
    <contour>
      <point x="18" y="0" type="line"/>
      <point x="462" y="0" type="line"/>
      <point x="462" y="132" type="line"/>
      <point x="18" y="132" type="line"/>
    </contour>
  </outline>
</glyph>
<glyph name="paragraph" format="2">
  <advance width="695"/>
  <unicode hex="00B6"/>
  <outline>
    <contour>
      <point x="220" y="0" type="line"/>
      <point x="352" y="0" type="line"/>
      <point x="352" y="593" type="line"/>
      <point x="425" y="593" type="line"/>
      <point x="425" y="0" type="line"/>
      <point x="604" y="0" type="line"/>
      <point x="604" y="593" type="line"/>
      <point x="678" y="593" type="line"/>
      <point x="678" y="729" type="line"/>
      <point x="220" y="729" type="line" smooth="yes"/>
      <point x="98" y="729"/>
      <point x="16" y="658"/>
      <point x="16" y="551" type="curve" smooth="yes"/>
      <point x="16" y="437"/>
      <point x="98" y="381"/>
      <point x="220" y="381" type="curve"/>
    </contour>
  </outline>
</glyph>
<glyph name="periodcentered" format="2">
  <advance width="208"/>
  <unicode hex="00B7"/>
  <outline>
    <contour>
      <point x="104" y="181" type="curve" smooth="yes"/>
      <point x="162" y="181"/>
      <point x="201" y="222"/>
      <point x="201" y="277" type="curve" smooth="yes"/>
      <point x="201" y="332"/>
      <point x="162" y="373"/>
      <point x="104" y="373" type="curve" smooth="yes"/>
      <point x="48" y="373"/>
      <point x="7" y="332"/>
      <point x="7" y="277" type="curve" smooth="yes"/>
      <point x="7" y="222"/>
      <point x="48" y="181"/>
    </contour>
  </outline>
</glyph>
<glyph name="ordmasculine" format="2">
  <advance width="311"/>
  <unicode hex="00BA"/>
  <anchor x="155" y="377" name="bottom"/>
  <anchor x="155" y="553" name="center"/>
  <anchor x="275" y="384" name="ogonek"/>
  <anchor x="155" y="729" name="top"/>
  <anchor x="292" y="729" name="topright"/>
  <outline>
    <contour>
      <point x="155" y="370" type="curve" smooth="yes"/>
      <point x="240" y="370"/>
      <point x="296" y="418"/>
      <point x="296" y="555" type="curve" smooth="yes"/>
      <point x="296" y="687"/>
      <point x="242" y="736"/>
      <point x="155" y="736" type="curve" smooth="yes"/>
      <point x="67" y="736"/>
      <point x="15" y="686"/>
      <point x="15" y="555" type="curve" smooth="yes"/>
      <point x="15" y="419"/>
      <point x="70" y="370"/>
    </contour>
    <contour>
      <point x="155" y="463" type="curve" smooth="yes"/>
      <point x="136" y="463"/>
      <point x="133" y="489"/>
      <point x="133" y="553" type="curve" smooth="yes"/>
      <point x="133" y="623"/>
      <point x="137" y="644"/>
      <point x="155" y="644" type="curve" smooth="yes"/>
      <point x="173" y="644"/>
      <point x="177" y="624"/>
      <point x="177" y="553" type="curve" smooth="yes"/>
      <point x="177" y="488"/>
      <point x="174" y="463"/>
    </contour>
  </outline>
</glyph>
<glyph name="AE" format="2">
  <advance width="617"/>
  <unicode hex="00C6"/>
  <anchor x="309" y="0" name="bottom"/>
  <anchor x="309" y="729" name="top"/>
  <outline>
    <contour>
      <point x="10" y="0" type="line"/>
      <point x="185" y="0" type="line"/>
      <point x="197" y="120" type="line"/>
      <point x="299" y="120" type="line"/>
      <point x="312" y="0" type="line"/>
      <point x="598" y="0" type="line"/>
      <point x="598" y="157" type="line"/>
      <point x="462" y="157" type="line"/>
      <point x="440" y="299" type="line"/>
      <point x="584" y="299" type="line"/>
      <point x="584" y="445" type="line"/>
      <point x="417" y="445" type="line"/>
      <point x="398" y="572" type="line"/>
      <point x="598" y="572" type="line"/>
      <point x="598" y="729" type="line"/>
      <point x="122" y="729" type="line"/>
    </contour>
    <contour>
      <point x="212" y="260" type="line"/>
      <point x="236" y="491" type="line"/>
      <point x="244" y="583" type="line"/>
      <point x="251" y="583" type="line"/>
      <point x="260" y="491" type="line"/>
      <point x="284" y="260" type="line"/>
    </contour>
  </outline>
</glyph>
<glyph name="multiply" format="2">
  <advance width="480"/>
  <unicode hex="00D7"/>
  <outline>
    <contour>
      <point x="120" y="141" type="line"/>
      <point x="242" y="263" type="line"/>
      <point x="364" y="141" type="line"/>
      <point x="462" y="239" type="line"/>
      <point x="340" y="361" type="line"/>
      <point x="462" y="483" type="line"/>
      <point x="364" y="581" type="line"/>
      <point x="242" y="459" type="line"/>
      <point x="120" y="581" type="line"/>
      <point x="22" y="483" type="line"/>
      <point x="144" y="361" type="line"/>
      <point x="22" y="239" type="line"/>
    </contour>
  </outline>
</glyph>
<glyph name="germandbls" format="2">
  <advance width="586"/>
  <unicode hex="00DF"/>
  <outline>
    <contour>
      <point x="87" y="0" type="line"/>
      <point x="261" y="0" type="line"/>
      <point x="261" y="500" type="line" smooth="yes"/>
      <point x="261" y="559"/>
      <point x="281" y="582"/>
      <point x="320" y="582" type="curve" smooth="yes"/>
      <point x="358" y="582"/>
      <point x="380" y="559"/>
      <point x="380" y="510" type="curve" smooth="yes"/>
      <point x="380" y="464"/>
      <point x="357" y="434"/>
      <point x="316" y="434" type="curve" smooth="yes"/>
      <point x="297" y="434" type="line"/>
      <point x="297" y="315" type="line"/>
      <point x="319" y="315" type="line" smooth="yes"/>
      <point x="368" y="315"/>
      <point x="401" y="288"/>
      <point x="401" y="232" type="curve" smooth="yes"/>
      <point x="401" y="179"/>
      <point x="373" y="143"/>
      <point x="305" y="143" type="curve" smooth="yes"/>
      <point x="297" y="143" type="line"/>
      <point x="297" y="0" type="line"/>
      <point x="332" y="0" type="line" smooth="yes"/>
      <point x="478" y="0"/>
      <point x="576" y="77"/>
      <point x="576" y="218" type="curve" smooth="yes"/>
      <point x="576" y="315"/>
      <point x="524" y="379"/>
      <point x="446" y="393" type="curve"/>
      <point x="446" y="401" type="line"/>
      <point x="500" y="417"/>
      <point x="543" y="472"/>
      <point x="543" y="551" type="curve" smooth="yes"/>
      <point x="543" y="664"/>
      <point x="452" y="739"/>
      <point x="322" y="739" type="curve" smooth="yes"/>
      <point x="181" y="739"/>
      <point x="87" y="659"/>
      <point x="87" y="516" type="curve" smooth="yes"/>
    </contour>
    <contour>
      <point x="11" y="408" type="line"/>
      <point x="222" y="408" type="line"/>
      <point x="222" y="544" type="line"/>
      <point x="11" y="544" type="line"/>
    </contour>
  </outline>
</glyph>
<glyph name="ae" format="2">
  <advance width="678"/>
  <unicode hex="00E6"/>
  <outline>
    <contour>
      <point x="153" y="-10" type="curve" smooth="yes"/>
      <point x="224" y="-10"/>
      <point x="278" y="24"/>
      <point x="299" y="74" type="curve"/>
      <point x="302" y="74" type="line"/>
      <point x="325" y="24"/>
      <point x="381" y="-10"/>
      <point x="455" y="-10" type="curve" smooth="yes"/>
      <point x="571" y="-10"/>
      <point x="653" y="52"/>
      <point x="663" y="185" type="curve"/>
      <point x="496" y="185" type="line"/>
      <point x="493" y="135"/>
      <point x="482" y="118"/>
      <point x="461" y="118" type="curve" smooth="yes"/>
      <point x="436" y="118"/>
      <point x="426" y="149"/>
      <point x="426" y="228" type="curve" smooth="yes"/>
      <point x="426" y="297" type="line" smooth="yes"/>
      <point x="426" y="382"/>
      <point x="431" y="422"/>
      <point x="461" y="422" type="curve" smooth="yes"/>
      <point x="483" y="422"/>
      <point x="494" y="396"/>
      <point x="496" y="328" type="curve"/>
      <point x="410" y="328" type="line"/>
      <point x="410" y="225" type="line"/>
      <point x="662" y="225" type="line"/>
      <point x="675" y="437"/>
      <point x="620" y="551"/>
      <point x="461" y="551" type="curve" smooth="yes"/>
      <point x="420" y="551"/>
      <point x="379" y="539"/>
      <point x="355" y="519" type="curve"/>
      <point x="350" y="519" type="line"/>
      <point x="328" y="538"/>
      <point x="285" y="551"/>
      <point x="237" y="551" type="curve" smooth="yes"/>
      <point x="114" y="551"/>
      <point x="29" y="482"/>
      <point x="25" y="358" type="curve"/>
      <point x="189" y="358" type="line"/>
      <point x="190" y="393"/>
      <point x="198" y="417"/>
      <point x="223" y="417" type="curve" smooth="yes"/>
      <point x="246" y="417"/>
      <point x="257" y="402"/>
      <point x="257" y="371" type="curve" smooth="yes"/>
      <point x="257" y="165" type="line" smooth="yes"/>
      <point x="257" y="132"/>
      <point x="243" y="114"/>
      <point x="222" y="114" type="curve" smooth="yes"/>
      <point x="198" y="114"/>
      <point x="186" y="133"/>
      <point x="186" y="159" type="curve" smooth="yes"/>
      <point x="186" y="192"/>
      <point x="201" y="218"/>
      <point x="239" y="218" type="curve" smooth="yes"/>
      <point x="273" y="218" type="line"/>
      <point x="273" y="321" type="line"/>
      <point x="210" y="321" type="line" smooth="yes"/>
      <point x="97" y="321"/>
      <point x="10" y="268"/>
      <point x="10" y="142" type="curve" smooth="yes"/>
      <point x="10" y="50"/>
      <point x="67" y="-10"/>
    </contour>
  </outline>
</glyph>
<glyph name="eth" format="2">
  <advance width="459"/>
  <unicode hex="00F0"/>
  <outline>
    <contour>
      <point x="223" y="-9" type="curve" smooth="yes"/>
      <point x="362" y="-9"/>
      <point x="445" y="86"/>
      <point x="445" y="276" type="curve" smooth="yes"/>
      <point x="445" y="448"/>
      <point x="387" y="614"/>
      <point x="313" y="729" type="curve"/>
      <point x="121" y="729" type="line"/>
      <point x="194" y="631"/>
      <point x="245" y="535"/>
      <point x="273" y="426" type="curve"/>
      <point x="265" y="426" type="line"/>
      <point x="249" y="460"/>
      <point x="214" y="482"/>
      <point x="172" y="482" type="curve" smooth="yes"/>
      <point x="77" y="482"/>
      <point x="14" y="415"/>
      <point x="14" y="241" type="curve" smooth="yes"/>
      <point x="14" y="81"/>
      <point x="83" y="-9"/>
    </contour>
    <contour>
      <point x="228" y="137" type="curve" smooth="yes"/>
      <point x="197" y="137"/>
      <point x="191" y="176"/>
      <point x="191" y="237" type="curve" smooth="yes"/>
      <point x="191" y="324"/>
      <point x="205" y="344"/>
      <point x="226" y="344" type="curve" smooth="yes"/>
      <point x="257" y="344"/>
      <point x="263" y="309"/>
      <point x="263" y="244" type="curve" smooth="yes"/>
      <point x="263" y="159"/>
      <point x="250" y="137"/>
    </contour>
    <contour>
      <point x="123" y="499" type="line"/>
      <point x="435" y="568" type="line"/>
      <point x="435" y="685" type="line"/>
      <point x="123" y="616" type="line"/>
    </contour>
  </outline>
</glyph>
<glyph name="divide" format="2">
  <advance width="480"/>
  <unicode hex="00F7"/>
  <outline>
    <contour>
      <point x="18" y="291" type="line"/>
      <point x="462" y="291" type="line"/>
      <point x="462" y="431" type="line"/>
      <point x="18" y="431" type="line"/>
    </contour>
    <contour>
      <point x="163" y="115" type="line"/>
      <point x="318" y="115" type="line"/>
      <point x="318" y="237" type="line"/>
      <point x="163" y="237" type="line"/>
    </contour>
    <contour>
      <point x="163" y="485" type="line"/>
      <point x="318" y="485" type="line"/>
      <point x="318" y="607" type="line"/>
      <point x="163" y="607" type="line"/>
    </contour>
  </outline>
</glyph>
<glyph name="idotless" format="2">
  <advance width="231"/>
  <unicode hex="0131"/>
  <anchor x="116" y="0" name="bottom"/>
  <anchor x="204" y="0" name="ogonek"/>
  <anchor x="116" y="541" name="top"/>
  <outline>
    <contour>
      <point x="27" y="0" type="line"/>
      <point x="204" y="0" type="line"/>
      <point x="204" y="541" type="line"/>
      <point x="27" y="541" type="line"/>
    </contour>
  </outline>
</glyph>
<glyph name="Eng" format="2">
  <advance width="487"/>
  <unicode hex="014A"/>
  <outline>
    <contour>
      <point x="29" y="0" type="line"/>
      <point x="193" y="0" type="line"/>
      <point x="193" y="157" type="line"/>
      <point x="184" y="358" type="line"/>
      <point x="190" y="358" type="line"/>
      <point x="271" y="0" type="line"/>
      <point x="458" y="0" type="line"/>
      <point x="458" y="729" type="line"/>
      <point x="294" y="729" type="line"/>
      <point x="294" y="575" type="line"/>
      <point x="303" y="366" type="line"/>
      <point x="296" y="366" type="line"/>
      <point x="218" y="729" type="line"/>
      <point x="29" y="729" type="line"/>
    </contour>
    <contour>
      <point x="223" y="-167" type="line"/>
      <point x="305" y="-167" type="line" smooth="yes"/>
      <point x="421" y="-167"/>
      <point x="458" y="-108"/>
      <point x="458" y="-2" type="curve" smooth="yes"/>
      <point x="458" y="0" type="line"/>
      <point x="301" y="0" type="line"/>
      <point x="301" y="-1" type="line" smooth="yes"/>
      <point x="301" y="-28"/>
      <point x="294" y="-40"/>
      <point x="268" y="-40" type="curve" smooth="yes"/>
      <point x="223" y="-40" type="line"/>
    </contour>
  </outline>
</glyph>
<glyph name="eng" format="2">
  <advance width="475"/>
  <unicode hex="014B"/>
  <outline>
    <contour>
      <point x="217" y="-167" type="line"/>
      <point x="299" y="-167" type="line" smooth="yes"/>
      <point x="415" y="-167"/>
      <point x="452" y="-108"/>
      <point x="452" y="-2" type="curve" smooth="yes"/>
      <point x="452" y="347" type="line" smooth="yes"/>
      <point x="452" y="494"/>
      <point x="411" y="551"/>
      <point x="320" y="551" type="curve" smooth="yes"/>
      <point x="270" y="551"/>
      <point x="232" y="524"/>
      <point x="210" y="477" type="curve"/>
      <point x="204" y="477" type="line"/>
      <point x="199" y="541" type="line"/>
      <point x="27" y="541" type="line"/>
      <point x="27" y="0" type="line"/>
      <point x="204" y="0" type="line"/>
      <point x="204" y="328" type="line" smooth="yes"/>
      <point x="204" y="381"/>
      <point x="211" y="411"/>
      <point x="241" y="411" type="curve" smooth="yes"/>
      <point x="263" y="411"/>
      <point x="275" y="396"/>
      <point x="275" y="335" type="curve" smooth="yes"/>
      <point x="275" y="-1" type="line" smooth="yes"/>
      <point x="275" y="-28"/>
      <point x="268" y="-40"/>
      <point x="242" y="-40" type="curve" smooth="yes"/>
      <point x="217" y="-40" type="line"/>
    </contour>
  </outline>
</glyph>
<glyph name="OE" format="2">
  <advance width="630"/>
  <unicode hex="0152"/>
  <anchor x="315" y="0" name="bottom"/>
  <anchor x="315" y="729" name="top"/>
  <outline>
    <contour>
      <point x="245" y="-9" type="curve" smooth="yes"/>
      <point x="270" y="-9"/>
      <point x="299" y="-6"/>
      <point x="319" y="0" type="curve"/>
      <point x="611" y="0" type="line"/>
      <point x="611" y="157" type="line"/>
      <point x="456" y="157" type="line"/>
      <point x="456" y="299" type="line"/>
      <point x="597" y="299" type="line"/>
      <point x="597" y="445" type="line"/>
      <point x="456" y="445" type="line"/>
      <point x="456" y="572" type="line"/>
      <point x="611" y="572" type="line"/>
      <point x="611" y="729" type="line"/>
      <point x="319" y="729" type="line"/>
      <point x="297" y="735"/>
      <point x="275" y="738"/>
      <point x="250" y="738" type="curve" smooth="yes"/>
      <point x="69" y="738"/>
      <point x="16" y="593"/>
      <point x="16" y="365" type="curve" smooth="yes"/>
      <point x="16" y="136"/>
      <point x="69" y="-9"/>
    </contour>
    <contour>
      <point x="259" y="145" type="curve" smooth="yes"/>
      <point x="201" y="145"/>
      <point x="197" y="215"/>
      <point x="197" y="365" type="curve" smooth="yes"/>
      <point x="197" y="514"/>
      <point x="201" y="584"/>
      <point x="259" y="584" type="curve" smooth="yes"/>
      <point x="265" y="584"/>
      <point x="273" y="583"/>
      <point x="279" y="580" type="curve"/>
      <point x="279" y="149" type="line"/>
      <point x="273" y="146"/>
      <point x="265" y="145"/>
    </contour>
  </outline>
</glyph>
<glyph name="oe" format="2">
  <advance width="692"/>
  <unicode hex="0153"/>
  <anchor x="346" y="0" name="bottom"/>
  <anchor x="346" y="541" name="top"/>
  <outline>
    <contour>
      <point x="226" y="-10" type="curve" smooth="yes"/>
      <point x="278" y="-10"/>
      <point x="319" y="2"/>
      <point x="352" y="26" type="curve"/>
      <point x="350" y="26" type="line"/>
      <point x="383" y="2"/>
      <point x="424" y="-10"/>
      <point x="475" y="-10" type="curve" smooth="yes"/>
      <point x="601" y="-10"/>
      <point x="666" y="53"/>
      <point x="677" y="185" type="curve"/>
      <point x="510" y="185" type="line"/>
      <point x="507" y="137"/>
      <point x="497" y="118"/>
      <point x="475" y="118" type="curve" smooth="yes"/>
      <point x="450" y="118"/>
      <point x="440" y="155"/>
      <point x="440" y="264" type="curve" smooth="yes"/>
      <point x="440" y="306" type="line" smooth="yes"/>
      <point x="440" y="388"/>
      <point x="452" y="422"/>
      <point x="475" y="422" type="curve" smooth="yes"/>
      <point x="498" y="422"/>
      <point x="508" y="394"/>
      <point x="510" y="330" type="curve"/>
      <point x="512" y="333" type="line"/>
      <point x="424" y="333" type="line"/>
      <point x="424" y="235" type="line"/>
      <point x="677" y="235" type="line"/>
      <point x="685" y="400"/>
      <point x="655" y="551"/>
      <point x="475" y="551" type="curve" smooth="yes"/>
      <point x="422" y="551"/>
      <point x="381" y="540"/>
      <point x="350" y="516" type="curve"/>
      <point x="352" y="516" type="line"/>
      <point x="321" y="539"/>
      <point x="279" y="551"/>
      <point x="226" y="551" type="curve" smooth="yes"/>
      <point x="82" y="551"/>
      <point x="14" y="461"/>
      <point x="14" y="273" type="curve" smooth="yes"/>
      <point x="14" y="83"/>
      <point x="84" y="-10"/>
    </contour>
    <contour>
      <point x="226" y="128" type="curve" smooth="yes"/>
      <point x="199" y="128"/>
      <point x="191" y="159"/>
      <point x="191" y="271" type="curve" smooth="yes"/>
      <point x="191" y="384"/>
      <point x="198" y="414"/>
      <point x="226" y="414" type="curve" smooth="yes"/>
      <point x="255" y="414"/>
      <point x="263" y="383"/>
      <point x="263" y="271" type="curve" smooth="yes"/>
      <point x="263" y="160"/>
      <point x="255" y="128"/>
    </contour>
  </outline>
</glyph>
<glyph name="florin" format="2">
  <advance width="345"/>
  <unicode hex="0192"/>
  <outline>
    <contour>
      <point x="20" y="-177" type="line"/>
      <point x="62" y="-177" type="line" smooth="yes"/>
      <point x="208" y="-177"/>
      <point x="261" y="-107"/>
      <point x="261" y="11" type="curve" smooth="yes"/>
      <point x="261" y="541" type="line" smooth="yes"/>
      <point x="261" y="579"/>
      <point x="274" y="605"/>
      <point x="313" y="605" type="curve" smooth="yes"/>
      <point x="325" y="605" type="line"/>
      <point x="325" y="729" type="line"/>
      <point x="283" y="729" type="line" smooth="yes"/>
      <point x="137" y="729"/>
      <point x="84" y="659"/>
      <point x="84" y="541" type="curve" smooth="yes"/>
      <point x="84" y="11" type="line" smooth="yes"/>
      <point x="84" y="-27"/>
      <point x="71" y="-53"/>
      <point x="32" y="-53" type="curve" smooth="yes"/>
      <point x="20" y="-53" type="line"/>
    </contour>
    <contour>
      <point x="35" y="320" type="line"/>
      <point x="311" y="320" type="line"/>
      <point x="311" y="440" type="line"/>
      <point x="35" y="440" type="line"/>
    </contour>
  </outline>
</glyph>
<glyph name="jdotless" format="2">
  <advance width="231"/>
  <unicode hex="0237"/>
  <anchor x="116" y="-250" name="bottom"/>
  <anchor x="116" y="541" name="top"/>
  <outline>
    <contour>
      <point x="-31" y="-167" type="line"/>
      <point x="51" y="-167" type="line" smooth="yes"/>
      <point x="167" y="-167"/>
      <point x="204" y="-108"/>
      <point x="204" y="-2" type="curve" smooth="yes"/>
      <point x="204" y="541" type="line"/>
      <point x="27" y="541" type="line"/>
      <point x="27" y="-1" type="line" smooth="yes"/>
      <point x="27" y="-28"/>
      <point x="20" y="-40"/>
      <point x="-6" y="-40" type="curve" smooth="yes"/>
      <point x="-31" y="-40" type="line"/>
    </contour>
  </outline>
</glyph>
<glyph name="gravecomb" format="2">
  <unicode hex="0300"/>
  <anchor x="209" y="678" name="_top"/>
  <outline>
    <contour>
      <point x="137" y="735" type="line"/>
      <point x="281" y="735" type="line"/>
      <point x="228" y="884" type="line"/>
      <point x="40" y="884" type="line"/>
    </contour>
  </outline>
</glyph>
<glyph name="acutecomb" format="2">
  <unicode hex="0301"/>
  <anchor x="112" y="678" name="_top"/>
  <outline>
    <contour>
      <point x="40" y="735" type="line"/>
      <point x="184" y="735" type="line"/>
      <point x="281" y="884" type="line"/>
      <point x="93" y="884" type="line"/>
    </contour>
  </outline>
</glyph>
<glyph name="circumflexcomb" format="2">
  <unicode hex="0302"/>
  <anchor x="217" y="678" name="_top"/>
  <outline>
    <contour>
      <point x="40" y="735" type="line"/>
      <point x="188" y="735" type="line"/>
      <point x="217" y="801" type="line"/>
      <point x="246" y="735" type="line"/>
      <point x="394" y="735" type="line"/>
      <point x="309" y="884" type="line"/>
      <point x="125" y="884" type="line"/>
    </contour>
  </outline>
</glyph>
<glyph name="tildecomb" format="2">
  <unicode hex="0303"/>
  <anchor x="235" y="679" name="_top"/>
  <outline>
    <contour>
      <point x="310" y="745" type="curve" smooth="yes"/>
      <point x="356" y="745"/>
      <point x="397" y="765"/>
      <point x="424" y="843" type="curve"/>
      <point x="348" y="882" type="line"/>
      <point x="337" y="858"/>
      <point x="323" y="850"/>
      <point x="294" y="850" type="curve" smooth="yes"/>
      <point x="250" y="850"/>
      <point x="227" y="878"/>
      <point x="163" y="878" type="curve" smooth="yes"/>
      <point x="113" y="878"/>
      <point x="70" y="859"/>
      <point x="43" y="779" type="curve"/>
      <point x="119" y="740" type="line"/>
      <point x="133" y="763"/>
      <point x="149" y="773"/>
      <point x="179" y="773" type="curve" smooth="yes"/>
      <point x="216" y="773"/>
      <point x="241" y="745"/>
    </contour>
  </outline>
</glyph>
<glyph name="macroncomb" format="2">
  <unicode hex="0304"/>
  <anchor x="194" y="680" name="_top"/>
  <outline>
    <contour>
      <point x="40" y="735" type="line"/>
      <point x="347" y="735" type="line"/>
      <point x="347" y="874" type="line"/>
      <point x="40" y="874" type="line"/>
    </contour>
  </outline>
</glyph>
<glyph name="brevecomb" format="2">
  <unicode hex="0306"/>
  <anchor x="195" y="678" name="_top"/>
  <outline>
    <contour>
      <point x="194" y="721" type="curve" smooth="yes"/>
      <point x="286" y="721"/>
      <point x="348" y="773"/>
      <point x="348" y="884" type="curve"/>
      <point x="229" y="884" type="line"/>
      <point x="228" y="849"/>
      <point x="221" y="825"/>
      <point x="194" y="825" type="curve" smooth="yes"/>
      <point x="173" y="825"/>
      <point x="159" y="837"/>
      <point x="159" y="884" type="curve"/>
      <point x="40" y="884" type="line"/>
      <point x="39" y="786"/>
      <point x="88" y="721"/>
    </contour>
  </outline>
</glyph>
<glyph name="dotaccentcomb" format="2">
  <unicode hex="0307"/>
  <anchor x="134" y="678" name="_top"/>
  <outline>
    <contour>
      <point x="134" y="723" type="curve" smooth="yes"/>
      <point x="187" y="723"/>
      <point x="228" y="752"/>
      <point x="228" y="805" type="curve" smooth="yes"/>
      <point x="228" y="858"/>
      <point x="187" y="888"/>
      <point x="134" y="888" type="curve" smooth="yes"/>
      <point x="81" y="888"/>
      <point x="40" y="858"/>
      <point x="40" y="805" type="curve" smooth="yes"/>
      <point x="40" y="752"/>
      <point x="81" y="723"/>
    </contour>
  </outline>
</glyph>
<glyph name="dieresiscomb" format="2">
  <unicode hex="0308"/>
  <anchor x="225" y="678" name="_top"/>
  <outline>
    <contour>
      <point x="323" y="730" type="curve" smooth="yes"/>
      <point x="372" y="730"/>
      <point x="410" y="756"/>
      <point x="410" y="805" type="curve" smooth="yes"/>
      <point x="410" y="854"/>
      <point x="372" y="881"/>
      <point x="323" y="881" type="curve" smooth="yes"/>
      <point x="275" y="881"/>
      <point x="237" y="854"/>
      <point x="237" y="805" type="curve" smooth="yes"/>
      <point x="237" y="756"/>
      <point x="275" y="730"/>
    </contour>
    <contour>
      <point x="126" y="730" type="curve" smooth="yes"/>
      <point x="175" y="730"/>
      <point x="213" y="756"/>
      <point x="213" y="805" type="curve" smooth="yes"/>
      <point x="213" y="854"/>
      <point x="175" y="881"/>
      <point x="126" y="881" type="curve" smooth="yes"/>
      <point x="78" y="881"/>
      <point x="40" y="854"/>
      <point x="40" y="805" type="curve" smooth="yes"/>
      <point x="40" y="756"/>
      <point x="78" y="730"/>
    </contour>
  </outline>
</glyph>
<glyph name="hookabovecomb" format="2">
  <unicode hex="0309"/>
  <anchor x="139" y="679" name="_top"/>
  <outline>
    <contour>
      <point x="122" y="721" type="line"/>
      <point x="218" y="766"/>
      <point x="256" y="817"/>
      <point x="256" y="878" type="curve" smooth="yes"/>
      <point x="256" y="956"/>
      <point x="193" y="990"/>
      <point x="125" y="990" type="curve" smooth="yes"/>
      <point x="97" y="990"/>
      <point x="68" y="986"/>
      <point x="40" y="975" type="curve"/>
      <point x="40" y="880" type="line"/>
      <point x="49" y="886"/>
      <point x="67" y="890"/>
      <point x="80" y="890" type="curve" smooth="yes"/>
      <point x="102" y="890"/>
      <point x="120" y="881"/>
      <point x="120" y="858" type="curve" smooth="yes"/>
      <point x="120" y="836"/>
      <point x="106" y="820"/>
      <point x="67" y="802" type="curve"/>
    </contour>
  </outline>
</glyph>
<glyph name="ringcomb" format="2">
  <unicode hex="030A"/>
  <anchor x="154" y="678" name="_top"/>
  <outline>
    <contour>
      <point x="154" y="723" type="curve" smooth="yes"/>
      <point x="223" y="723"/>
      <point x="268" y="772"/>
      <point x="268" y="843" type="curve" smooth="yes"/>
      <point x="268" y="914"/>
      <point x="223" y="963"/>
      <point x="154" y="963" type="curve" smooth="yes"/>
      <point x="85" y="963"/>
      <point x="40" y="914"/>
      <point x="40" y="843" type="curve" smooth="yes"/>
      <point x="40" y="772"/>
      <point x="85" y="723"/>
    </contour>
    <contour>
      <point x="154" y="800" type="curve" smooth="yes"/>
      <point x="139" y="800"/>
      <point x="129" y="812"/>
      <point x="129" y="843" type="curve" smooth="yes"/>
      <point x="129" y="871"/>
      <point x="137" y="886"/>
      <point x="154" y="886" type="curve" smooth="yes"/>
      <point x="169" y="886"/>
      <point x="179" y="874"/>
      <point x="179" y="843" type="curve" smooth="yes"/>
      <point x="179" y="815"/>
      <point x="171" y="800"/>
    </contour>
  </outline>
</glyph>
<glyph name="hungarumlautcomb" format="2">
  <unicode hex="030B"/>
  <anchor x="183" y="678" name="_top"/>
  <outline>
    <contour>
      <point x="40" y="735" type="line"/>
      <point x="157" y="735" type="line"/>
      <point x="239" y="884" type="line"/>
      <point x="75" y="884" type="line"/>
    </contour>
    <contour>
      <point x="209" y="735" type="line"/>
      <point x="338" y="735" type="line"/>
      <point x="444" y="884" type="line"/>
      <point x="279" y="884" type="line"/>
    </contour>
  </outline>
</glyph>
<glyph name="caroncomb" format="2">
  <unicode hex="030C"/>
  <anchor x="217" y="678" name="_top"/>
  <outline>
    <contour>
      <point x="125" y="735" type="line"/>
      <point x="309" y="735" type="line"/>
      <point x="394" y="884" type="line"/>
      <point x="246" y="884" type="line"/>
      <point x="217" y="818" type="line"/>
      <point x="188" y="884" type="line"/>
      <point x="40" y="884" type="line"/>
    </contour>
  </outline>
</glyph>
<glyph name="commaturnedabovecomb" format="2">
  <unicode hex="0312"/>
  <anchor x="101" y="678" name="_top"/>
  <outline>
    <contour>
      <point x="40" y="735" type="line"/>
      <point x="162" y="735" type="line"/>
      <point x="162" y="758" type="line" smooth="yes"/>
      <point x="162" y="821"/>
      <point x="170" y="852"/>
      <point x="201" y="883" type="curve"/>
      <point x="152" y="952" type="line"/>
      <point x="73" y="915"/>
      <point x="40" y="862"/>
      <point x="40" y="776" type="curve" smooth="yes"/>
    </contour>
  </outline>
</glyph>
<glyph name="horncomb" format="2">
  <unicode hex="031B"/>
  <anchor x="40" y="542" name="_topright"/>
  <outline>
    <contour>
      <point x="40" y="459" type="line"/>
      <point x="177" y="450"/>
      <point x="237" y="497"/>
      <point x="223" y="601" type="curve"/>
      <point x="108" y="601" type="line"/>
      <point x="113" y="555"/>
      <point x="93" y="537"/>
      <point x="40" y="542" type="curve"/>
    </contour>
  </outline>
</glyph>
<glyph name="dotbelowcomb" format="2">
  <unicode hex="0323"/>
  <anchor x="118" y="0" name="_bottom"/>
  <outline>
    <contour>
      <point x="117" y="-177" type="curve" smooth="yes"/>
      <point x="161" y="-177"/>
      <point x="196" y="-151"/>
      <point x="196" y="-104" type="curve" smooth="yes"/>
      <point x="196" y="-57"/>
      <point x="161" y="-30"/>
      <point x="117" y="-30" type="curve" smooth="yes"/>
      <point x="73" y="-30"/>
      <point x="40" y="-57"/>
      <point x="40" y="-104" type="curve" smooth="yes"/>
      <point x="40" y="-151"/>
      <point x="73" y="-177"/>
    </contour>
  </outline>
</glyph>
<glyph name="commaaccentcomb" format="2">
  <unicode hex="0326"/>
  <anchor x="182" y="0" name="_bottom"/>
  <outline>
    <contour>
      <point x="40" y="-208" type="line"/>
      <point x="184" y="-208" type="line"/>
      <point x="271" y="-59" type="line"/>
      <point x="93" y="-59" type="line"/>
    </contour>
  </outline>
</glyph>
<glyph name="cedillacomb" format="2">
  <unicode hex="0327"/>
  <anchor x="206" y="0" name="_bottom"/>
  <outline>
    <contour>
      <point x="190" y="-261" type="curve" smooth="yes"/>
      <point x="274" y="-261"/>
      <point x="330" y="-217"/>
      <point x="330" y="-147" type="curve" smooth="yes"/>
      <point x="330" y="-86"/>
      <point x="295" y="-53"/>
      <point x="243" y="-34" type="curve"/>
      <point x="259" y="24" type="line"/>
      <point x="182" y="24" type="line"/>
      <point x="130" y="-61" type="line"/>
      <point x="143" y="-88" type="line"/>
      <point x="183" y="-95"/>
      <point x="209" y="-100"/>
      <point x="209" y="-129" type="curve" smooth="yes"/>
      <point x="209" y="-146"/>
      <point x="199" y="-158"/>
      <point x="181" y="-158" type="curve" smooth="yes"/>
      <point x="163" y="-158"/>
      <point x="151" y="-144"/>
      <point x="152" y="-124" type="curve"/>
      <point x="40" y="-153" type="line"/>
      <point x="53" y="-228"/>
      <point x="118" y="-261"/>
    </contour>
  </outline>
</glyph>
<glyph name="ogonekcomb" format="2">
  <unicode hex="0328"/>
  <anchor x="197" y="0" name="_ogonek"/>
  <outline>
    <contour>
      <point x="137" y="-192" type="curve" smooth="yes"/>
      <point x="163" y="-192"/>
      <point x="191" y="-187"/>
      <point x="205" y="-180" type="curve"/>
      <point x="205" y="-115" type="line"/>
      <point x="198" y="-117"/>
      <point x="191" y="-119"/>
      <point x="182" y="-119" type="curve" smooth="yes"/>
      <point x="157" y="-119"/>
      <point x="147" y="-107"/>
      <point x="147" y="-89" type="curve" smooth="yes"/>
      <point x="147" y="-64"/>
      <point x="167" y="-31"/>
      <point x="197" y="0" type="curve"/>
      <point x="195" y="11" type="line"/>
      <point x="119" y="11" type="line"/>
      <point x="69" y="-31"/>
      <point x="40" y="-74"/>
      <point x="40" y="-115" type="curve" smooth="yes"/>
      <point x="40" y="-163"/>
      <point x="76" y="-192"/>
    </contour>
  </outline>
</glyph>
<glyph name="strokeshortcomb" format="2">
  <unicode hex="0335"/>
  <anchor x="181" y="306" name="_center"/>
  <outline>
    <contour>
      <point x="40" y="245" type="line"/>
      <point x="322" y="245" type="line"/>
      <point x="322" y="368" type="line"/>
      <point x="40" y="368" type="line"/>
    </contour>
  </outline>
</glyph>
<glyph name="strokelongcomb" format="2">
  <unicode hex="0336"/>
  <anchor x="300" y="369" name="_center"/>
  <outline>
    <contour>
      <point x="40" y="300" type="line"/>
      <point x="560" y="300" type="line"/>
      <point x="560" y="438" type="line"/>
      <point x="40" y="438" type="line"/>
    </contour>
  </outline>
</glyph>
<glyph name="slashshortcomb" format="2">
  <unicode hex="0337"/>
  <anchor x="162" y="292" name="_center"/>
  <outline>
    <contour>
      <point x="40" y="144" type="line"/>
      <point x="284" y="286" type="line"/>
      <point x="284" y="439" type="line"/>
      <point x="40" y="298" type="line"/>
    </contour>
  </outline>
</glyph>
<glyph name="slashlongcomb" format="2">
  <unicode hex="0338"/>
  <anchor x="192" y="271" name="_center"/>
  <outline>
    <contour>
      <point x="40" y="-60" type="line"/>
      <point x="91" y="-60" type="line"/>
      <point x="343" y="601" type="line"/>
      <point x="290" y="601" type="line"/>
    </contour>
  </outline>
</glyph>
<glyph name="mu" format="2">
  <advance width="478"/>
  <unicode hex="03BC"/>
  <outline>
    <contour>
      <point x="27" y="-132" type="line"/>
      <point x="204" y="-132" type="line"/>
      <point x="204" y="43" type="line"/>
      <point x="107" y="22" type="line"/>
      <point x="116" y="2"/>
      <point x="137" y="-9"/>
      <point x="168" y="-9" type="curve" smooth="yes"/>
      <point x="209" y="-9"/>
      <point x="248" y="18"/>
      <point x="268" y="64" type="curve"/>
      <point x="275" y="64" type="line"/>
      <point x="281" y="0" type="line"/>
      <point x="451" y="0" type="line"/>
      <point x="451" y="541" type="line"/>
      <point x="275" y="541" type="line"/>
      <point x="275" y="213" type="line" smooth="yes"/>
      <point x="275" y="160"/>
      <point x="268" y="131"/>
      <point x="238" y="131" type="curve" smooth="yes"/>
      <point x="215" y="131"/>
      <point x="204" y="148"/>
      <point x="204" y="206" type="curve" smooth="yes"/>
      <point x="204" y="541" type="line"/>
      <point x="27" y="541" type="line"/>
    </contour>
  </outline>
</glyph>
<glyph name="pi" format="2">
  <advance width="538"/>
  <unicode hex="03C0"/>
  <outline>
    <contour>
      <point x="440" y="-10" type="curve" smooth="yes"/>
      <point x="477" y="-10"/>
      <point x="507" y="-4"/>
      <point x="521" y="4" type="curve"/>
      <point x="521" y="127" type="line"/>
      <point x="514" y="124"/>
      <point x="503" y="122"/>
      <point x="497" y="122" type="curve" smooth="yes"/>
      <point x="479" y="122"/>
      <point x="476" y="132"/>
      <point x="476" y="156" type="curve" smooth="yes"/>
      <point x="476" y="386" type="line"/>
      <point x="521" y="386" type="line"/>
      <point x="521" y="541" type="line"/>
      <point x="12" y="541" type="line"/>
      <point x="12" y="386" type="line"/>
      <point x="59" y="386" type="line"/>
      <point x="59" y="0" type="line"/>
      <point x="245" y="0" type="line"/>
      <point x="245" y="386" type="line"/>
      <point x="297" y="386" type="line"/>
      <point x="297" y="126" type="line" smooth="yes"/>
      <point x="297" y="25"/>
      <point x="344" y="-10"/>
    </contour>
  </outline>
</glyph>
<glyph name="Germandbls" format="2">
  <advance width="554"/>
  <unicode hex="1E9E"/>
  <outline>
    <contour>
      <point x="29" y="0" type="line"/>
      <point x="207" y="0" type="line"/>
      <point x="207" y="581" type="line"/>
      <point x="342" y="581" type="line"/>
      <point x="263" y="436" type="line"/>
      <point x="263" y="331" type="line"/>
      <point x="283" y="331" type="line" smooth="yes"/>
      <point x="333" y="331"/>
      <point x="367" y="306"/>
      <point x="367" y="241" type="curve" smooth="yes"/>
      <point x="367" y="179"/>
      <point x="343" y="144"/>
      <point x="283" y="144" type="curve" smooth="yes"/>
      <point x="257" y="144" type="line"/>
      <point x="257" y="0" type="line"/>
      <point x="318" y="0" type="line" smooth="yes"/>
      <point x="452" y="0"/>
      <point x="542" y="86"/>
      <point x="542" y="214" type="curve" smooth="yes"/>
      <point x="542" y="332"/>
      <point x="484" y="411"/>
      <point x="380" y="411" type="curve" smooth="yes"/>
      <point x="362" y="411" type="line"/>
      <point x="417" y="376" type="line"/>
      <point x="417" y="417" type="line"/>
      <point x="509" y="582" type="line"/>
      <point x="509" y="729" type="line"/>
      <point x="29" y="729" type="line"/>
    </contour>
  </outline>
</glyph>
<glyph name="endash" format="2">
  <advance width="458"/>
  <unicode hex="2013"/>
  <outline>
    <contour>
      <point x="19" y="191" type="line"/>
      <point x="439" y="191" type="line"/>
      <point x="439" y="351" type="line"/>
      <point x="19" y="351" type="line"/>
    </contour>
  </outline>
</glyph>
<glyph name="emdash" format="2">
  <advance width="654"/>
  <unicode hex="2014"/>
  <outline>
    <contour>
      <point x="19" y="191" type="line"/>
      <point x="635" y="191" type="line"/>
      <point x="635" y="351" type="line"/>
      <point x="19" y="351" type="line"/>
    </contour>
  </outline>
</glyph>
<glyph name="bullet" format="2">
  <advance width="283"/>
  <unicode hex="2022"/>
  <outline>
    <contour>
      <point x="141" y="142" type="curve" smooth="yes"/>
      <point x="223" y="142"/>
      <point x="277" y="200"/>
      <point x="277" y="277" type="curve" smooth="yes"/>
      <point x="277" y="354"/>
      <point x="223" y="412"/>
      <point x="141" y="412" type="curve" smooth="yes"/>
      <point x="63" y="412"/>
      <point x="5" y="354"/>
      <point x="5" y="277" type="curve" smooth="yes"/>
      <point x="5" y="200"/>
      <point x="63" y="142"/>
    </contour>
  </outline>
</glyph>
<glyph name="perthousand" format="2">
  <advance width="1022"/>
  <unicode hex="2030"/>
  <outline>
    <contour>
      <point x="149" y="0" type="line"/>
      <point x="259" y="0" type="line"/>
      <point x="572" y="729" type="line"/>
      <point x="462" y="729" type="line"/>
    </contour>
    <contour>
      <point x="151" y="352" type="curve" smooth="yes"/>
      <point x="232" y="352"/>
      <point x="291" y="388"/>
      <point x="291" y="540" type="curve" smooth="yes"/>
      <point x="291" y="692"/>
      <point x="232" y="729"/>
      <point x="151" y="729" type="curve" smooth="yes"/>
      <point x="71" y="729"/>
      <point x="12" y="694"/>
      <point x="12" y="540" type="curve" smooth="yes"/>
      <point x="12" y="387"/>
      <point x="71" y="352"/>
    </contour>
    <contour>
      <point x="151" y="447" type="curve" smooth="yes"/>
      <point x="131" y="447"/>
      <point x="130" y="477"/>
      <point x="130" y="540" type="curve" smooth="yes"/>
      <point x="130" y="604"/>
      <point x="131" y="633"/>
      <point x="151" y="633" type="curve" smooth="yes"/>
      <point x="170" y="633"/>
      <point x="171" y="611"/>
      <point x="171" y="540" type="curve" smooth="yes"/>
      <point x="171" y="472"/>
      <point x="170" y="447"/>
    </contour>
    <contour>
      <point x="570" y="-5" type="curve" smooth="yes"/>
      <point x="651" y="-5"/>
      <point x="710" y="32"/>
      <point x="710" y="184" type="curve" smooth="yes"/>
      <point x="710" y="336"/>
      <point x="651" y="372"/>
      <point x="570" y="372" type="curve" smooth="yes"/>
      <point x="490" y="372"/>
      <point x="431" y="337"/>
      <point x="431" y="184" type="curve" smooth="yes"/>
      <point x="431" y="30"/>
      <point x="490" y="-5"/>
    </contour>
    <contour>
      <point x="570" y="90" type="curve" smooth="yes"/>
      <point x="550" y="90"/>
      <point x="549" y="120"/>
      <point x="549" y="183" type="curve" smooth="yes"/>
      <point x="549" y="247"/>
      <point x="550" y="276"/>
      <point x="570" y="276" type="curve" smooth="yes"/>
      <point x="589" y="276"/>
      <point x="590" y="254"/>
      <point x="590" y="183" type="curve" smooth="yes"/>
      <point x="590" y="115"/>
      <point x="589" y="90"/>
    </contour>
    <contour>
      <point x="870" y="-5" type="curve" smooth="yes"/>
      <point x="951" y="-5"/>
      <point x="1010" y="32"/>
      <point x="1010" y="184" type="curve" smooth="yes"/>
      <point x="1010" y="336"/>
      <point x="951" y="372"/>
      <point x="870" y="372" type="curve" smooth="yes"/>
      <point x="790" y="372"/>
      <point x="731" y="337"/>
      <point x="731" y="184" type="curve" smooth="yes"/>
      <point x="731" y="30"/>
      <point x="790" y="-5"/>
    </contour>
    <contour>
      <point x="870" y="90" type="curve" smooth="yes"/>
      <point x="850" y="90"/>
      <point x="849" y="120"/>
      <point x="849" y="183" type="curve" smooth="yes"/>
      <point x="849" y="247"/>
      <point x="850" y="276"/>
      <point x="870" y="276" type="curve" smooth="yes"/>
      <point x="889" y="276"/>
      <point x="890" y="254"/>
      <point x="890" y="183" type="curve" smooth="yes"/>
      <point x="890" y="115"/>
      <point x="889" y="90"/>
    </contour>
  </outline>
</glyph>
<glyph name="guilsinglleft" format="2">
  <advance width="304"/>
  <unicode hex="2039"/>
  <outline>
    <contour>
      <point x="131" y="100" type="line"/>
      <point x="282" y="100" type="line"/>
      <point x="185" y="321" type="line"/>
      <point x="282" y="541" type="line"/>
      <point x="131" y="541" type="line"/>
      <point x="12" y="321" type="line"/>
    </contour>
  </outline>
</glyph>
<glyph name="fraction" format="2">
  <advance width="128"/>
  <unicode hex="2044"/>
  <outline>
    <contour>
      <point x="-170" y="0" type="line"/>
      <point x="-58" y="0" type="line"/>
      <point x="298" y="721" type="line"/>
      <point x="186" y="721" type="line"/>
    </contour>
  </outline>
</glyph>
<glyph name="zeroinferior" format="2">
  <advance width="308"/>
  <unicode hex="2080"/>
  <anchor x="154" y="177" name="_center"/>
  <outline>
    <contour>
      <point x="154" y="-46" type="curve" smooth="yes"/>
      <point x="237" y="-46"/>
      <point x="293" y="7"/>
      <point x="293" y="176" type="curve" smooth="yes"/>
      <point x="293" y="345"/>
      <point x="237" y="397"/>
      <point x="154" y="397" type="curve" smooth="yes"/>
      <point x="71" y="397"/>
      <point x="15" y="344"/>
      <point x="15" y="176" type="curve" smooth="yes"/>
      <point x="15" y="7"/>
      <point x="71" y="-46"/>
    </contour>
    <contour>
      <point x="154" y="45" type="curve" smooth="yes"/>
      <point x="130" y="45"/>
      <point x="125" y="78"/>
      <point x="125" y="176" type="curve" smooth="yes"/>
      <point x="125" y="273"/>
      <point x="130" y="306"/>
      <point x="154" y="306" type="curve" smooth="yes"/>
      <point x="178" y="306"/>
      <point x="183" y="274"/>
      <point x="183" y="176" type="curve" smooth="yes"/>
      <point x="183" y="78"/>
      <point x="178" y="45"/>
    </contour>
  </outline>
</glyph>
<glyph name="oneinferior" format="2">
  <advance width="230"/>
  <unicode hex="2081"/>
  <anchor x="119" y="177" name="_center"/>
  <outline>
    <contour>
      <point x="93" y="-40" type="line"/>
      <point x="203" y="-40" type="line"/>
      <point x="203" y="393" type="line"/>
      <point x="101" y="393" type="line"/>
      <point x="97" y="345"/>
      <point x="67" y="314"/>
      <point x="29" y="314" type="curve" smooth="yes"/>
      <point x="10" y="314" type="line"/>
      <point x="10" y="225" type="line"/>
      <point x="93" y="225" type="line"/>
    </contour>
  </outline>
</glyph>
<glyph name="twoinferior" format="2">
  <advance width="287"/>
  <unicode hex="2082"/>
  <anchor x="142" y="177" name="_center"/>
  <outline>
    <contour>
      <point x="18" y="-40" type="line"/>
      <point x="273" y="-40" type="line"/>
      <point x="273" y="51" type="line"/>
      <point x="155" y="51" type="line"/>
      <point x="158" y="82"/>
      <point x="270" y="173"/>
      <point x="270" y="271" type="curve" smooth="yes"/>
      <point x="270" y="362"/>
      <point x="219" y="398"/>
      <point x="140" y="398" type="curve" smooth="yes"/>
      <point x="50" y="398"/>
      <point x="7" y="334"/>
      <point x="12" y="244" type="curve"/>
      <point x="120" y="244" type="line"/>
      <point x="117" y="276"/>
      <point x="118" y="306"/>
      <point x="140" y="306" type="curve" smooth="yes"/>
      <point x="155" y="306"/>
      <point x="160" y="294"/>
      <point x="160" y="270" type="curve" smooth="yes"/>
      <point x="160" y="195"/>
      <point x="18" y="92"/>
      <point x="18" y="-11" type="curve" smooth="yes"/>
    </contour>
  </outline>
</glyph>
<glyph name="threeinferior" format="2">
  <advance width="295"/>
  <unicode hex="2083"/>
  <anchor x="146" y="177" name="_center"/>
  <outline>
    <contour>
      <point x="143" y="-46" type="curve" smooth="yes"/>
      <point x="226" y="-46"/>
      <point x="282" y="2"/>
      <point x="282" y="86" type="curve" smooth="yes"/>
      <point x="282" y="133"/>
      <point x="262" y="171"/>
      <point x="220" y="181" type="curve"/>
      <point x="220" y="186" type="line"/>
      <point x="259" y="198"/>
      <point x="275" y="237"/>
      <point x="275" y="278" type="curve" smooth="yes"/>
      <point x="275" y="350"/>
      <point x="229" y="398"/>
      <point x="148" y="398" type="curve" smooth="yes"/>
      <point x="66" y="398"/>
      <point x="13" y="348"/>
      <point x="15" y="259" type="curve"/>
      <point x="124" y="259" type="line"/>
      <point x="122" y="291"/>
      <point x="131" y="306"/>
      <point x="144" y="306" type="curve" smooth="yes"/>
      <point x="162" y="306"/>
      <point x="167" y="295"/>
      <point x="167" y="264" type="curve" smooth="yes"/>
      <point x="167" y="240"/>
      <point x="157" y="219"/>
      <point x="132" y="219" type="curve" smooth="yes"/>
      <point x="98" y="219" type="line"/>
      <point x="98" y="139" type="line"/>
      <point x="136" y="139" type="line" smooth="yes"/>
      <point x="158" y="139"/>
      <point x="172" y="125"/>
      <point x="172" y="92" type="curve" smooth="yes"/>
      <point x="172" y="58"/>
      <point x="163" y="46"/>
      <point x="144" y="46" type="curve" smooth="yes"/>
      <point x="130" y="46"/>
      <point x="121" y="59"/>
      <point x="121" y="95" type="curve"/>
      <point x="11" y="95" type="line"/>
      <point x="9" y="15"/>
      <point x="41" y="-46"/>
    </contour>
  </outline>
</glyph>
<glyph name="fourinferior" format="2">
  <advance width="318"/>
  <unicode hex="2084"/>
  <anchor x="159" y="177" name="_center"/>
  <outline>
    <contour>
      <point x="157" y="-40" type="line"/>
      <point x="267" y="-40" type="line"/>
      <point x="267" y="393" type="line"/>
      <point x="135" y="393" type="line"/>
      <point x="11" y="137" type="line"/>
      <point x="11" y="51" type="line"/>
      <point x="307" y="51" type="line"/>
      <point x="307" y="145" type="line"/>
      <point x="108" y="145" type="line"/>
      <point x="158" y="258" type="line"/>
      <point x="157" y="258" type="line"/>
    </contour>
  </outline>
</glyph>
<glyph name="fiveinferior" format="2">
  <advance width="297"/>
  <unicode hex="2085"/>
  <anchor x="150" y="177" name="_center"/>
  <outline>
    <contour>
      <point x="149" y="-46" type="curve" smooth="yes"/>
      <point x="230" y="-46"/>
      <point x="285" y="3"/>
      <point x="285" y="108" type="curve" smooth="yes"/>
      <point x="285" y="195"/>
      <point x="250" y="254"/>
      <point x="178" y="254" type="curve" smooth="yes"/>
      <point x="160" y="254"/>
      <point x="140" y="249"/>
      <point x="131" y="233" type="curve"/>
      <point x="127" y="235" type="line"/>
      <point x="132" y="300" type="line"/>
      <point x="261" y="300" type="line"/>
      <point x="261" y="393" type="line"/>
      <point x="31" y="393" type="line"/>
      <point x="20" y="126" type="line"/>
      <point x="127" y="126" type="line"/>
      <point x="127" y="146"/>
      <point x="135" y="164"/>
      <point x="150" y="164" type="curve" smooth="yes"/>
      <point x="166" y="164"/>
      <point x="175" y="147"/>
      <point x="175" y="105" type="curve" smooth="yes"/>
      <point x="175" y="66"/>
      <point x="168" y="46"/>
      <point x="149" y="46" type="curve" smooth="yes"/>
      <point x="134" y="46"/>
      <point x="125" y="59"/>
      <point x="125" y="91" type="curve"/>
      <point x="15" y="91" type="line"/>
      <point x="19" y="9"/>
      <point x="62" y="-46"/>
    </contour>
  </outline>
</glyph>
<glyph name="sixinferior" format="2">
  <advance width="307"/>
  <unicode hex="2086"/>
  <anchor x="154" y="177" name="_center"/>
  <outline>
    <contour>
      <point x="158" y="-45" type="curve" smooth="yes"/>
      <point x="244" y="-45"/>
      <point x="293" y="3"/>
      <point x="293" y="105" type="curve" smooth="yes"/>
      <point x="293" y="198"/>
      <point x="265" y="250"/>
      <point x="195" y="250" type="curve" smooth="yes"/>
      <point x="166" y="250"/>
      <point x="142" y="236"/>
      <point x="135" y="218" type="curve"/>
      <point x="129" y="218" type="line"/>
      <point x="128" y="277"/>
      <point x="135" y="306"/>
      <point x="158" y="306" type="curve" smooth="yes"/>
      <point x="171" y="306"/>
      <point x="182" y="295"/>
      <point x="182" y="275" type="curve"/>
      <point x="287" y="275" type="line"/>
      <point x="284" y="361"/>
      <point x="230" y="398"/>
      <point x="158" y="398" type="curve" smooth="yes"/>
      <point x="73" y="398"/>
      <point x="15" y="351"/>
      <point x="15" y="172" type="curve" smooth="yes"/>
      <point x="15" y="42"/>
      <point x="43" y="-45"/>
    </contour>
    <contour>
      <point x="158" y="46" type="curve" smooth="yes"/>
      <point x="144" y="46"/>
      <point x="135" y="58"/>
      <point x="135" y="107" type="curve" smooth="yes"/>
      <point x="135" y="144"/>
      <point x="140" y="164"/>
      <point x="160" y="164" type="curve" smooth="yes"/>
      <point x="174" y="164"/>
      <point x="183" y="152"/>
      <point x="183" y="103" type="curve" smooth="yes"/>
      <point x="183" y="68"/>
      <point x="178" y="46"/>
    </contour>
  </outline>
</glyph>
<glyph name="seveninferior" format="2">
  <advance width="299"/>
  <unicode hex="2087"/>
  <anchor x="152" y="177" name="_center"/>
  <outline>
    <contour>
      <point x="100" y="-40" type="curve"/>
      <point x="211" y="-40" type="line"/>
      <point x="211" y="126"/>
      <point x="231" y="175"/>
      <point x="289" y="308" type="curve"/>
      <point x="289" y="393" type="line"/>
      <point x="14" y="393" type="line"/>
      <point x="14" y="226" type="line"/>
      <point x="106" y="226" type="line"/>
      <point x="106" y="291" type="line"/>
      <point x="175" y="291" type="line"/>
      <point x="129" y="198"/>
      <point x="98" y="117"/>
    </contour>
  </outline>
</glyph>
<glyph name="eightinferior" format="2">
  <advance width="291"/>
  <unicode hex="2088"/>
  <anchor x="146" y="177" name="_center"/>
  <outline>
    <contour>
      <point x="145" y="-46" type="curve" smooth="yes"/>
      <point x="230" y="-46"/>
      <point x="278" y="4"/>
      <point x="278" y="78" type="curve" smooth="yes"/>
      <point x="278" y="124"/>
      <point x="253" y="166"/>
      <point x="212" y="176" type="curve"/>
      <point x="212" y="181" type="line"/>
      <point x="250" y="195"/>
      <point x="272" y="231"/>
      <point x="272" y="280" type="curve" smooth="yes"/>
      <point x="272" y="350"/>
      <point x="226" y="397"/>
      <point x="145" y="397" type="curve" smooth="yes"/>
      <point x="64" y="397"/>
      <point x="19" y="350"/>
      <point x="19" y="280" type="curve" smooth="yes"/>
      <point x="19" y="235"/>
      <point x="39" y="196"/>
      <point x="78" y="181" type="curve"/>
      <point x="78" y="176" type="line"/>
      <point x="36" y="165"/>
      <point x="13" y="123"/>
      <point x="13" y="78" type="curve" smooth="yes"/>
      <point x="13" y="3"/>
      <point x="61" y="-46"/>
    </contour>
    <contour>
      <point x="145" y="41" type="curve" smooth="yes"/>
      <point x="132" y="41"/>
      <point x="123" y="55"/>
      <point x="123" y="87" type="curve" smooth="yes"/>
      <point x="123" y="116"/>
      <point x="128" y="133"/>
      <point x="145" y="133" type="curve" smooth="yes"/>
      <point x="163" y="133"/>
      <point x="167" y="115"/>
      <point x="167" y="87" type="curve" smooth="yes"/>
      <point x="167" y="54"/>
      <point x="158" y="41"/>
    </contour>
    <contour>
      <point x="145" y="222" type="curve" smooth="yes"/>
      <point x="133" y="222"/>
      <point x="125" y="230"/>
      <point x="125" y="268" type="curve" smooth="yes"/>
      <point x="125" y="291"/>
      <point x="129" y="310"/>
      <point x="145" y="310" type="curve" smooth="yes"/>
      <point x="162" y="310"/>
      <point x="166" y="290"/>
      <point x="166" y="268" type="curve" smooth="yes"/>
      <point x="166" y="231"/>
      <point x="158" y="222"/>
    </contour>
  </outline>
</glyph>
<glyph name="peseta" format="2">
  <advance width="1191"/>
  <unicode hex="20A7"/>
  <outline>
    <contour>
      <point x="34" y="0" type="line"/>
      <point x="213" y="0" type="line"/>
      <point x="213" y="594" type="line"/>
      <point x="189" y="572" type="line"/>
      <point x="229" y="572" type="line" smooth="yes"/>
      <point x="266" y="572"/>
      <point x="284" y="550"/>
      <point x="284" y="473" type="curve" smooth="yes"/>
      <point x="284" y="408"/>
      <point x="275" y="369"/>
      <point x="229" y="369" type="curve" smooth="yes"/>
      <point x="197" y="369" type="line"/>
      <point x="197" y="212" type="line"/>
      <point x="235" y="212" type="line" smooth="yes"/>
      <point x="388" y="212"/>
      <point x="465" y="296"/>
      <point x="465" y="471" type="curve" smooth="yes"/>
      <point x="465" y="644"/>
      <point x="388" y="729"/>
      <point x="235" y="729" type="curve" smooth="yes"/>
      <point x="34" y="729" type="line"/>
    </contour>
    <contour>
      <point x="661" y="0" type="curve" smooth="yes"/>
      <point x="758" y="0" type="line"/>
      <point x="758" y="132" type="line"/>
      <point x="734" y="132" type="line" smooth="yes"/>
      <point x="716" y="132"/>
      <point x="713" y="137"/>
      <point x="713" y="160" type="curve" smooth="yes"/>
      <point x="713" y="401" type="line"/>
      <point x="758" y="398" type="line"/>
      <point x="758" y="541" type="line"/>
      <point x="713" y="539" type="line"/>
      <point x="713" y="683" type="line"/>
      <point x="534" y="668" type="line"/>
      <point x="534" y="539" type="line"/>
      <point x="496" y="541" type="line"/>
      <point x="496" y="398" type="line"/>
      <point x="534" y="401" type="line"/>
      <point x="534" y="124" type="line" smooth="yes"/>
      <point x="534" y="40"/>
      <point x="572" y="0"/>
    </contour>
    <contour>
      <point x="973" y="-10" type="curve" smooth="yes"/>
      <point x="1109" y="-10"/>
      <point x="1173" y="59"/>
      <point x="1173" y="162" type="curve" smooth="yes"/>
      <point x="1173" y="264"/>
      <point x="1104" y="307"/>
      <point x="1028" y="340" type="curve" smooth="yes"/>
      <point x="981" y="360"/>
      <point x="950" y="374"/>
      <point x="950" y="406" type="curve" smooth="yes"/>
      <point x="950" y="426"/>
      <point x="956" y="443"/>
      <point x="977" y="443" type="curve" smooth="yes"/>
      <point x="1000" y="443"/>
      <point x="1009" y="430"/>
      <point x="1012" y="379" type="curve"/>
      <point x="1167" y="379" type="line"/>
      <point x="1167" y="491"/>
      <point x="1094" y="551"/>
      <point x="978" y="551" type="curve" smooth="yes"/>
      <point x="847" y="551"/>
      <point x="782" y="486"/>
      <point x="782" y="386" type="curve" smooth="yes"/>
      <point x="782" y="294"/>
      <point x="840" y="249"/>
      <point x="914" y="215" type="curve" smooth="yes"/>
      <point x="988" y="181"/>
      <point x="999" y="168"/>
      <point x="999" y="135" type="curve" smooth="yes"/>
      <point x="999" y="115"/>
      <point x="992" y="101"/>
      <point x="971" y="101" type="curve" smooth="yes"/>
      <point x="947" y="101"/>
      <point x="935" y="114"/>
      <point x="935" y="168" type="curve"/>
      <point x="775" y="168" type="line"/>
      <point x="777" y="61"/>
      <point x="840" y="-10"/>
    </contour>
  </outline>
</glyph>
<glyph name="won" format="2">
  <advance width="771"/>
  <unicode hex="20A9"/>
  <outline>
    <contour>
      <point x="119" y="0" type="line"/>
      <point x="356" y="0" type="line"/>
      <point x="373" y="352" type="line"/>
      <point x="378" y="565" type="line"/>
      <point x="396" y="565" type="line"/>
      <point x="400" y="352" type="line"/>
      <point x="413" y="0" type="line"/>
      <point x="651" y="0" type="line"/>
      <point x="736" y="729" type="line"/>
      <point x="566" y="729" type="line"/>
      <point x="547" y="352" type="line"/>
      <point x="540" y="122" type="line"/>
      <point x="523" y="122" type="line"/>
      <point x="514" y="352" type="line"/>
      <point x="487" y="729" type="line"/>
      <point x="286" y="729" type="line"/>
      <point x="259" y="352" type="line"/>
      <point x="250" y="124" type="line"/>
      <point x="233" y="124" type="line"/>
      <point x="225" y="352" type="line"/>
      <point x="203" y="729" type="line"/>
      <point x="34" y="729" type="line"/>
    </contour>
    <contour>
      <point x="17" y="290" type="line"/>
      <point x="754" y="290" type="line"/>
      <point x="754" y="419" type="line"/>
      <point x="17" y="419" type="line"/>
    </contour>
  </outline>
</glyph>
<glyph name="sheqel" format="2">
  <advance width="657"/>
  <unicode hex="20AA"/>
  <outline>
    <contour>
      <point x="214" y="0" type="line"/>
      <point x="492" y="0" type="line" smooth="yes"/>
      <point x="588" y="0"/>
      <point x="625" y="53"/>
      <point x="625" y="133" type="curve" smooth="yes"/>
      <point x="625" y="729" type="line"/>
      <point x="476" y="729" type="line"/>
      <point x="476" y="151" type="line"/>
      <point x="314" y="151" type="line"/>
      <point x="314" y="540" type="line"/>
      <point x="214" y="540" type="line"/>
    </contour>
    <contour>
      <point x="34" y="0" type="line"/>
      <point x="183" y="0" type="line"/>
      <point x="183" y="578" type="line"/>
      <point x="345" y="578" type="line"/>
      <point x="345" y="189" type="line"/>
      <point x="445" y="189" type="line"/>
      <point x="445" y="596" type="line" smooth="yes"/>
      <point x="445" y="676"/>
      <point x="409" y="729"/>
      <point x="312" y="729" type="curve" smooth="yes"/>
      <point x="34" y="729" type="line"/>
    </contour>
  </outline>
</glyph>
<glyph name="euro" format="2">
  <advance width="522"/>
  <unicode hex="20AC"/>
  <outline>
    <contour>
      <point x="271" y="-9" type="curve" smooth="yes"/>
      <point x="421" y="-9"/>
      <point x="498" y="69"/>
      <point x="503" y="270" type="curve"/>
      <point x="333" y="270" type="line"/>
      <point x="329" y="190"/>
      <point x="322" y="147"/>
      <point x="284" y="147" type="curve" smooth="yes"/>
      <point x="245" y="147"/>
      <point x="233" y="203"/>
      <point x="233" y="365" type="curve" smooth="yes"/>
      <point x="233" y="515"/>
      <point x="242" y="583"/>
      <point x="284" y="583" type="curve" smooth="yes"/>
      <point x="320" y="583"/>
      <point x="328" y="546"/>
      <point x="333" y="465" type="curve"/>
      <point x="503" y="465" type="line"/>
      <point x="494" y="668"/>
      <point x="419" y="739"/>
      <point x="283" y="739" type="curve" smooth="yes"/>
      <point x="103" y="739"/>
      <point x="52" y="593"/>
      <point x="52" y="365" type="curve" smooth="yes"/>
      <point x="52" y="136"/>
      <point x="101" y="-9"/>
    </contour>
    <contour>
      <point x="19" y="253" type="line"/>
      <point x="284" y="253" type="line"/>
      <point x="297" y="337" type="line"/>
      <point x="19" y="337" type="line"/>
    </contour>
    <contour>
      <point x="19" y="379" type="line"/>
      <point x="303" y="379" type="line"/>
      <point x="315" y="461" type="line"/>
      <point x="19" y="461" type="line"/>
    </contour>
  </outline>
</glyph>
<glyph name="tenge" format="2">
  <advance width="410"/>
  <unicode hex="20B8"/>
  <outline>
    <contour>
      <point x="111" y="408" type="line"/>
      <point x="111" y="0" type="line"/>
      <point x="295" y="0" type="line"/>
      <point x="295" y="408" type="line"/>
    </contour>
    <contour>
      <point x="388" y="392" type="line"/>
      <point x="388" y="541" type="line"/>
      <point x="23" y="541" type="line"/>
      <point x="23" y="392" type="line"/>
    </contour>
    <contour>
      <point x="388" y="580" type="line"/>
      <point x="388" y="729" type="line"/>
      <point x="23" y="729" type="line"/>
      <point x="23" y="580" type="line"/>
    </contour>
  </outline>
</glyph>
<glyph name="rupeeIndian" format="2">
  <advance width="476"/>
  <unicode hex="20B9"/>
  <outline>
    <contour>
      <point x="191" y="0" type="line"/>
      <point x="385" y="0" type="line"/>
      <point x="368" y="180" type="line" smooth="yes"/>
      <point x="361" y="256"/>
      <point x="330" y="294"/>
      <point x="280" y="310" type="curve"/>
      <point x="280" y="317" type="line"/>
      <point x="333" y="329"/>
      <point x="383" y="382"/>
      <point x="391" y="437" type="curve"/>
      <point x="456" y="437" type="line"/>
      <point x="456" y="539" type="line"/>
      <point x="392" y="539" type="line"/>
      <point x="389" y="574"/>
      <point x="373" y="607"/>
      <point x="356" y="620" type="curve"/>
      <point x="356" y="627" type="line"/>
      <point x="456" y="627" type="line"/>
      <point x="456" y="729" type="line"/>
      <point x="24" y="729" type="line"/>
      <point x="24" y="596" type="line"/>
      <point x="101" y="596" type="line" smooth="yes"/>
      <point x="172" y="596"/>
      <point x="199" y="570"/>
      <point x="206" y="531" type="curve"/>
      <point x="24" y="531" type="line"/>
      <point x="24" y="445" type="line"/>
      <point x="205" y="445" type="line"/>
      <point x="199" y="401"/>
      <point x="158" y="380"/>
      <point x="99" y="380" type="curve" smooth="yes"/>
      <point x="24" y="380" type="line"/>
      <point x="24" y="257" type="line"/>
      <point x="104" y="257" type="line" smooth="yes"/>
      <point x="145" y="257"/>
      <point x="167" y="243"/>
      <point x="175" y="164" type="curve" smooth="yes"/>
    </contour>
  </outline>
</glyph>
<glyph name="liraTurkish" format="2">
  <advance width="601"/>
  <unicode hex="20BA"/>
  <outline>
    <contour>
      <point x="76" y="0" type="line"/>
      <point x="223" y="0" type="line" smooth="yes"/>
      <point x="440" y="0"/>
      <point x="585" y="123"/>
      <point x="585" y="342" type="curve"/>
      <point x="396" y="342" type="line"/>
      <point x="396" y="242"/>
      <point x="340" y="174"/>
      <point x="258" y="173" type="curve"/>
      <point x="258" y="729" type="line"/>
      <point x="76" y="729" type="line"/>
    </contour>
    <contour>
      <point x="22" y="200" type="line"/>
      <point x="361" y="354" type="line"/>
      <point x="361" y="489" type="line"/>
      <point x="22" y="333" type="line"/>
    </contour>
    <contour>
      <point x="22" y="399" type="line"/>
      <point x="361" y="553" type="line"/>
      <point x="361" y="688" type="line"/>
      <point x="22" y="532" type="line"/>
    </contour>
  </outline>
</glyph>
<glyph name="literSign" format="2">
  <advance width="463"/>
  <unicode hex="2113"/>
  <outline>
    <contour>
      <point x="257" y="-8" type="curve" smooth="yes"/>
      <point x="350" y="-8"/>
      <point x="418" y="48"/>
      <point x="448" y="132" type="curve"/>
      <point x="324" y="184" type="line"/>
      <point x="310" y="141"/>
      <point x="291" y="126"/>
      <point x="269" y="126" type="curve" smooth="yes"/>
      <point x="227" y="126"/>
      <point x="207" y="176"/>
      <point x="207" y="374" type="curve" smooth="yes"/>
      <point x="207" y="539"/>
      <point x="228" y="585"/>
      <point x="261" y="585" type="curve" smooth="yes"/>
      <point x="277" y="585"/>
      <point x="286" y="569"/>
      <point x="286" y="543" type="curve" smooth="yes"/>
      <point x="286" y="454"/>
      <point x="230" y="282"/>
      <point x="17" y="236" type="curve"/>
      <point x="17" y="121" type="line"/>
      <point x="287" y="169"/>
      <point x="433" y="369"/>
      <point x="433" y="546" type="curve" smooth="yes"/>
      <point x="433" y="665"/>
      <point x="374" y="739"/>
      <point x="273" y="739" type="curve" smooth="yes"/>
      <point x="127" y="739"/>
      <point x="51" y="611"/>
      <point x="51" y="386" type="curve" smooth="yes"/>
      <point x="51" y="124"/>
      <point x="110" y="-8"/>
    </contour>
  </outline>
</glyph>
<glyph name="numero" format="2">
  <advance width="848"/>
  <unicode hex="2116"/>
  <outline>
    <contour>
      <point x="34" y="0" type="line"/>
      <point x="198" y="0" type="line"/>
      <point x="198" y="157" type="line"/>
      <point x="189" y="358" type="line"/>
      <point x="195" y="358" type="line"/>
      <point x="276" y="0" type="line"/>
      <point x="463" y="0" type="line"/>
      <point x="463" y="729" type="line"/>
      <point x="299" y="729" type="line"/>
      <point x="299" y="575" type="line"/>
      <point x="308" y="366" type="line"/>
      <point x="301" y="366" type="line"/>
      <point x="223" y="729" type="line"/>
      <point x="34" y="729" type="line"/>
    </contour>
    <contour>
      <point x="529" y="145" type="line"/>
      <point x="798" y="145" type="line"/>
      <point x="798" y="261" type="line"/>
      <point x="529" y="261" type="line"/>
    </contour>
    <contour>
      <point x="663" y="292" type="curve" smooth="yes"/>
      <point x="759" y="292"/>
      <point x="829" y="334"/>
      <point x="829" y="515" type="curve" smooth="yes"/>
      <point x="829" y="695"/>
      <point x="759" y="739"/>
      <point x="663" y="739" type="curve" smooth="yes"/>
      <point x="568" y="739"/>
      <point x="498" y="697"/>
      <point x="498" y="515" type="curve" smooth="yes"/>
      <point x="498" y="333"/>
      <point x="568" y="292"/>
    </contour>
    <contour>
      <point x="663" y="404" type="curve" smooth="yes"/>
      <point x="639" y="404"/>
      <point x="638" y="440"/>
      <point x="638" y="515" type="curve" smooth="yes"/>
      <point x="638" y="591"/>
      <point x="639" y="625"/>
      <point x="663" y="625" type="curve" smooth="yes"/>
      <point x="686" y="625"/>
      <point x="687" y="594"/>
      <point x="687" y="515" type="curve" smooth="yes"/>
      <point x="687" y="436"/>
      <point x="686" y="404"/>
    </contour>
  </outline>
</glyph>
<glyph name="trademark" format="2">
  <advance width="642"/>
  <unicode hex="2122"/>
  <outline>
    <contour>
      <point x="269" y="415" type="line"/>
      <point x="366" y="415" type="line"/>
      <point x="366" y="518" type="line"/>
      <point x="363" y="604" type="line"/>
      <point x="365" y="604" type="line"/>
      <point x="405" y="415" type="line"/>
      <point x="472" y="415" type="line"/>
      <point x="511" y="604" type="line"/>
      <point x="514" y="604" type="line"/>
      <point x="512" y="518" type="line"/>
      <point x="512" y="415" type="line"/>
      <point x="608" y="415" type="line"/>
      <point x="608" y="729" type="line"/>
      <point x="469" y="729" type="line"/>
      <point x="441" y="562" type="line"/>
      <point x="438" y="562" type="line"/>
      <point x="408" y="729" type="line"/>
      <point x="269" y="729" type="line"/>
    </contour>
    <contour>
      <point x="77" y="415" type="line"/>
      <point x="180" y="415" type="line"/>
      <point x="180" y="639" type="line"/>
      <point x="237" y="639" type="line"/>
      <point x="237" y="729" type="line"/>
      <point x="20" y="729" type="line"/>
      <point x="20" y="639" type="line"/>
      <point x="77" y="639" type="line"/>
    </contour>
  </outline>
</glyph>
<glyph name="estimated" format="2">
  <advance width="853"/>
  <unicode hex="212E"/>
  <outline>
    <contour>
      <point x="457" y="-9" type="curve" smooth="yes"/>
      <point x="561" y="-9"/>
      <point x="667" y="28"/>
      <point x="740" y="91" type="curve"/>
      <point x="710" y="134" type="line"/>
      <point x="649" y="82"/>
      <point x="554" y="46"/>
      <point x="457" y="46" type="curve" smooth="yes"/>
      <point x="361" y="46"/>
      <point x="289" y="73"/>
      <point x="232" y="127" type="curve"/>
      <point x="232" y="352" type="line"/>
      <point x="763" y="352" type="line"/>
      <point x="763" y="416" type="line" smooth="yes"/>
      <point x="763" y="609"/>
      <point x="632" y="737"/>
      <point x="436" y="737" type="curve" smooth="yes"/>
      <point x="228" y="737"/>
      <point x="90" y="588"/>
      <point x="90" y="364" type="curve" smooth="yes"/>
      <point x="90" y="140"/>
      <point x="237" y="-9"/>
    </contour>
    <contour>
      <point x="232" y="405" type="line"/>
      <point x="232" y="600" type="line"/>
      <point x="282" y="659"/>
      <point x="365" y="684"/>
      <point x="436" y="684" type="curve" smooth="yes"/>
      <point x="511" y="684"/>
      <point x="593" y="661"/>
      <point x="638" y="606" type="curve"/>
      <point x="638" y="405" type="line"/>
    </contour>
  </outline>
</glyph>
<glyph name="leftArrow" format="2">
  <advance width="600"/>
  <unicode hex="2190"/>
  <outline>
    <contour>
      <point x="565" y="440" type="line"/>
      <point x="250" y="440" type="line"/>
      <point x="339" y="559" type="line"/>
      <point x="173" y="559" type="line"/>
      <point x="26" y="365" type="line"/>
      <point x="173" y="171" type="line"/>
      <point x="339" y="171" type="line"/>
      <point x="250" y="290" type="line"/>
      <point x="565" y="290" type="line"/>
    </contour>
  </outline>
</glyph>
<glyph name="upArrow" format="2">
  <advance width="460"/>
  <unicode hex="2191"/>
  <outline>
    <contour>
      <point x="155" y="95" type="line"/>
      <point x="305" y="95" type="line"/>
      <point x="305" y="410" type="line"/>
      <point x="424" y="321" type="line"/>
      <point x="424" y="487" type="line"/>
      <point x="230" y="634" type="line"/>
      <point x="36" y="487" type="line"/>
      <point x="36" y="321" type="line"/>
      <point x="155" y="410" type="line"/>
    </contour>
  </outline>
</glyph>
<glyph name="rightArrow" format="2">
  <advance width="600"/>
  <unicode hex="2192"/>
  <outline>
    <contour>
      <point x="36" y="440" type="line"/>
      <point x="36" y="290" type="line"/>
      <point x="351" y="290" type="line"/>
      <point x="262" y="171" type="line"/>
      <point x="428" y="171" type="line"/>
      <point x="575" y="365" type="line"/>
      <point x="428" y="559" type="line"/>
      <point x="262" y="559" type="line"/>
      <point x="351" y="440" type="line"/>
    </contour>
  </outline>
</glyph>
<glyph name="downArrow" format="2">
  <advance width="460"/>
  <unicode hex="2193"/>
  <outline>
    <contour>
      <point x="155" y="634" type="line"/>
      <point x="155" y="319" type="line"/>
      <point x="36" y="408" type="line"/>
      <point x="36" y="242" type="line"/>
      <point x="230" y="95" type="line"/>
      <point x="424" y="242" type="line"/>
      <point x="424" y="408" type="line"/>
      <point x="305" y="319" type="line"/>
      <point x="305" y="634" type="line"/>
    </contour>
  </outline>
</glyph>
<glyph name="leftRightArrow" format="2">
  <advance width="779"/>
  <unicode hex="2194"/>
  <outline>
    <contour>
      <point x="167" y="171" type="line"/>
      <point x="333" y="171" type="line"/>
      <point x="244" y="290" type="line"/>
      <point x="535" y="290" type="line"/>
      <point x="446" y="171" type="line"/>
      <point x="612" y="171" type="line"/>
      <point x="759" y="365" type="line"/>
      <point x="612" y="559" type="line"/>
      <point x="446" y="559" type="line"/>
      <point x="535" y="440" type="line"/>
      <point x="244" y="440" type="line"/>
      <point x="333" y="559" type="line"/>
      <point x="167" y="559" type="line"/>
      <point x="20" y="365" type="line"/>
    </contour>
  </outline>
</glyph>
<glyph name="emptyset" format="2">
  <advance width="736"/>
  <unicode hex="2205"/>
  <outline>
    <contour>
      <point x="368" y="0" type="curve" smooth="yes"/>
      <point x="572" y="0"/>
      <point x="726" y="149"/>
      <point x="726" y="366" type="curve" smooth="yes"/>
      <point x="726" y="579"/>
      <point x="572" y="729"/>
      <point x="368" y="729" type="curve" smooth="yes"/>
      <point x="164" y="729"/>
      <point x="10" y="580"/>
      <point x="10" y="366" type="curve" smooth="yes"/>
      <point x="10" y="149"/>
      <point x="164" y="0"/>
    </contour>
    <contour>
      <point x="368" y="71" type="curve" smooth="yes"/>
      <point x="273" y="71"/>
      <point x="189" y="116"/>
      <point x="138" y="189" type="curve"/>
      <point x="628" y="488" type="line"/>
      <point x="643" y="451"/>
      <point x="651" y="410"/>
      <point x="651" y="366" type="curve" smooth="yes"/>
      <point x="651" y="193"/>
      <point x="528" y="71"/>
    </contour>
    <contour>
      <point x="106" y="249" type="line"/>
      <point x="93" y="284"/>
      <point x="85" y="324"/>
      <point x="85" y="366" type="curve" smooth="yes"/>
      <point x="85" y="538"/>
      <point x="210" y="658"/>
      <point x="368" y="658" type="curve" smooth="yes"/>
      <point x="462" y="658"/>
      <point x="542" y="617"/>
      <point x="594" y="548" type="curve"/>
    </contour>
  </outline>
</glyph>
<glyph name="product" format="2">
  <advance width="491"/>
  <unicode hex="220F"/>
  <outline>
    <contour>
      <point x="27" y="-151" type="line"/>
      <point x="211" y="-151" type="line"/>
      <point x="211" y="563" type="line"/>
      <point x="278" y="563" type="line"/>
      <point x="278" y="-151" type="line"/>
      <point x="464" y="-151" type="line"/>
      <point x="464" y="729" type="line"/>
      <point x="27" y="729" type="line"/>
    </contour>
  </outline>
</glyph>
<glyph name="summation" format="2">
  <advance width="423"/>
  <unicode hex="2211"/>
  <outline>
    <contour>
      <point x="15" y="-151" type="line"/>
      <point x="410" y="-151" type="line"/>
      <point x="410" y="11" type="line"/>
      <point x="291" y="11" type="line"/>
      <point x="221" y="9" type="line"/>
      <point x="221" y="18" type="line"/>
      <point x="371" y="289" type="line"/>
      <point x="221" y="560" type="line"/>
      <point x="221" y="569" type="line"/>
      <point x="291" y="567" type="line"/>
      <point x="410" y="567" type="line"/>
      <point x="410" y="729" type="line"/>
      <point x="15" y="729" type="line"/>
      <point x="15" y="547" type="line"/>
      <point x="159" y="301" type="line"/>
      <point x="159" y="277" type="line"/>
      <point x="15" y="31" type="line"/>
    </contour>
  </outline>
</glyph>
<glyph name="minus" format="2">
  <advance width="480"/>
  <unicode hex="2212"/>
  <outline>
    <contour>
      <point x="18" y="291" type="line"/>
      <point x="462" y="291" type="line"/>
      <point x="462" y="431" type="line"/>
      <point x="18" y="431" type="line"/>
    </contour>
  </outline>
</glyph>
<glyph name="radical" format="2">
  <advance width="587"/>
  <unicode hex="221A"/>
  <outline>
    <contour>
      <point x="167" y="-151" type="line"/>
      <point x="416" y="-151" type="line"/>
      <point x="581" y="729" type="line"/>
      <point x="395" y="729" type="line"/>
      <point x="292" y="41" type="line"/>
      <point x="284" y="41" type="line"/>
      <point x="218" y="503" type="line"/>
      <point x="9" y="503" type="line"/>
      <point x="9" y="340" type="line"/>
      <point x="80" y="340" type="line"/>
    </contour>
  </outline>
</glyph>
<glyph name="infinity" format="2">
  <advance width="888"/>
  <unicode hex="221E"/>
  <outline>
    <contour>
      <point x="244" y="121" type="curve" smooth="yes"/>
      <point x="331" y="121"/>
      <point x="402" y="166"/>
      <point x="443" y="234" type="curve"/>
      <point x="486" y="166"/>
      <point x="554" y="121"/>
      <point x="643" y="121" type="curve" smooth="yes"/>
      <point x="772" y="121"/>
      <point x="877" y="216"/>
      <point x="877" y="362" type="curve" smooth="yes"/>
      <point x="877" y="504"/>
      <point x="774" y="608"/>
      <point x="642" y="608" type="curve" smooth="yes"/>
      <point x="553" y="608"/>
      <point x="484" y="555"/>
      <point x="443" y="490" type="curve"/>
      <point x="403" y="555"/>
      <point x="333" y="608"/>
      <point x="245" y="608" type="curve" smooth="yes"/>
      <point x="113" y="608"/>
      <point x="11" y="504"/>
      <point x="11" y="362" type="curve" smooth="yes"/>
      <point x="11" y="216"/>
      <point x="115" y="121"/>
    </contour>
    <contour>
      <point x="257" y="297" type="curve" smooth="yes"/>
      <point x="214" y="297"/>
      <point x="190" y="329"/>
      <point x="190" y="366" type="curve" smooth="yes"/>
      <point x="190" y="402"/>
      <point x="215" y="433"/>
      <point x="257" y="433" type="curve" smooth="yes"/>
      <point x="302" y="433"/>
      <point x="338" y="397"/>
      <point x="358" y="366" type="curve"/>
      <point x="337" y="334"/>
      <point x="302" y="297"/>
    </contour>
    <contour>
      <point x="629" y="297" type="curve" smooth="yes"/>
      <point x="586" y="297"/>
      <point x="551" y="332"/>
      <point x="530" y="366" type="curve"/>
      <point x="549" y="397"/>
      <point x="585" y="433"/>
      <point x="629" y="433" type="curve" smooth="yes"/>
      <point x="671" y="433"/>
      <point x="696" y="402"/>
      <point x="696" y="366" type="curve" smooth="yes"/>
      <point x="696" y="329"/>
      <point x="671" y="297"/>
    </contour>
  </outline>
</glyph>
<glyph name="integral" format="2">
  <advance width="387"/>
  <unicode hex="222B"/>
  <outline>
    <contour>
      <point x="9" y="-151" type="line"/>
      <point x="125" y="-151" type="line" smooth="yes"/>
      <point x="220" y="-151"/>
      <point x="284" y="-94"/>
      <point x="284" y="7" type="curve" smooth="yes"/>
      <point x="284" y="577" type="line"/>
      <point x="378" y="577" type="line"/>
      <point x="378" y="729" type="line"/>
      <point x="251" y="729" type="line" smooth="yes"/>
      <point x="156" y="729"/>
      <point x="93" y="672"/>
      <point x="93" y="570" type="curve" smooth="yes"/>
      <point x="93" y="0" type="line"/>
      <point x="9" y="0" type="line"/>
    </contour>
  </outline>
</glyph>
<glyph name="approxequal" format="2">
  <advance width="480"/>
  <unicode hex="2248"/>
  <outline>
    <contour>
      <point x="330" y="154" type="curve" smooth="yes"/>
      <point x="393" y="154"/>
      <point x="465" y="202"/>
      <point x="456" y="353" type="curve"/>
      <point x="375" y="353" type="line"/>
      <point x="374" y="321"/>
      <point x="357" y="293"/>
      <point x="319" y="293" type="curve" smooth="yes"/>
      <point x="258" y="293"/>
      <point x="223" y="356"/>
      <point x="146" y="356" type="curve" smooth="yes"/>
      <point x="82" y="356"/>
      <point x="15" y="306"/>
      <point x="24" y="161" type="curve"/>
      <point x="106" y="161" type="line"/>
      <point x="103" y="184"/>
      <point x="115" y="220"/>
      <point x="150" y="220" type="curve" smooth="yes"/>
      <point x="201" y="220"/>
      <point x="240" y="154"/>
    </contour>
    <contour>
      <point x="330" y="374" type="curve" smooth="yes"/>
      <point x="393" y="374"/>
      <point x="465" y="422"/>
      <point x="456" y="573" type="curve"/>
      <point x="375" y="573" type="line"/>
      <point x="374" y="541"/>
      <point x="357" y="513"/>
      <point x="319" y="513" type="curve" smooth="yes"/>
      <point x="258" y="513"/>
      <point x="223" y="576"/>
      <point x="146" y="576" type="curve" smooth="yes"/>
      <point x="82" y="576"/>
      <point x="15" y="526"/>
      <point x="24" y="381" type="curve"/>
      <point x="106" y="381" type="line"/>
      <point x="103" y="404"/>
      <point x="115" y="440"/>
      <point x="150" y="440" type="curve" smooth="yes"/>
      <point x="201" y="440"/>
      <point x="240" y="374"/>
    </contour>
  </outline>
</glyph>
<glyph name="notequal" format="2">
  <advance width="480"/>
  <unicode hex="2260"/>
  <outline>
    <contour>
      <point x="74" y="101" type="line"/>
      <point x="205" y="101" type="line"/>
      <point x="406" y="630" type="line"/>
      <point x="275" y="630" type="line"/>
    </contour>
    <contour>
      <point x="18" y="171" type="line"/>
      <point x="462" y="171" type="line"/>
      <point x="462" y="311" type="line"/>
      <point x="18" y="311" type="line"/>
    </contour>
    <contour>
      <point x="18" y="411" type="line"/>
      <point x="462" y="411" type="line"/>
      <point x="462" y="551" type="line"/>
      <point x="18" y="551" type="line"/>
    </contour>
  </outline>
</glyph>
<glyph name="dottedCircle" format="2">
  <advance width="730"/>
  <unicode hex="25CC"/>
  <anchor x="365" y="0" name="bottom"/>
  <anchor x="365" y="365" name="center"/>
  <anchor x="365" y="0" name="ogonek"/>
  <anchor x="365" y="729" name="top"/>
  <anchor x="365" y="729" name="topright"/>
  <outline>
    <contour>
      <point x="365" y="589" type="curve" smooth="yes"/>
      <point x="391" y="589"/>
      <point x="410" y="608"/>
      <point x="410" y="634" type="curve" smooth="yes"/>
      <point x="410" y="660"/>
      <point x="391" y="679"/>
      <point x="365" y="679" type="curve" smooth="yes"/>
      <point x="339" y="679"/>
      <point x="320" y="660"/>
      <point x="320" y="634" type="curve" smooth="yes"/>
      <point x="320" y="608"/>
      <point x="339" y="589"/>
    </contour>
    <contour>
      <point x="500" y="553" type="curve" smooth="yes"/>
      <point x="526" y="553"/>
      <point x="545" y="572"/>
      <point x="545" y="598" type="curve" smooth="yes"/>
      <point x="545" y="624"/>
      <point x="526" y="643"/>
      <point x="500" y="643" type="curve" smooth="yes"/>
      <point x="474" y="643"/>
      <point x="455" y="624"/>
      <point x="455" y="598" type="curve" smooth="yes"/>
      <point x="455" y="572"/>
      <point x="474" y="553"/>
    </contour>
    <contour>
      <point x="599" y="454" type="curve" smooth="yes"/>
      <point x="625" y="454"/>
      <point x="644" y="473"/>
      <point x="644" y="499" type="curve" smooth="yes"/>
      <point x="644" y="525"/>
      <point x="625" y="544"/>
      <point x="599" y="544" type="curve" smooth="yes"/>
      <point x="573" y="544"/>
      <point x="554" y="525"/>
      <point x="554" y="499" type="curve" smooth="yes"/>
      <point x="554" y="473"/>
      <point x="573" y="454"/>
    </contour>
    <contour>
      <point x="635" y="320" type="curve" smooth="yes"/>
      <point x="661" y="320"/>
      <point x="680" y="338"/>
      <point x="680" y="365" type="curve" smooth="yes"/>
      <point x="680" y="391"/>
      <point x="661" y="409"/>
      <point x="635" y="409" type="curve" smooth="yes"/>
      <point x="609" y="409"/>
      <point x="590" y="391"/>
      <point x="590" y="365" type="curve" smooth="yes"/>
      <point x="590" y="338"/>
      <point x="609" y="320"/>
    </contour>
    <contour>
      <point x="599" y="185" type="curve" smooth="yes"/>
      <point x="625" y="185"/>
      <point x="644" y="204"/>
      <point x="644" y="230" type="curve" smooth="yes"/>
      <point x="644" y="256"/>
      <point x="625" y="275"/>
      <point x="599" y="275" type="curve" smooth="yes"/>
      <point x="573" y="275"/>
      <point x="554" y="256"/>
      <point x="554" y="230" type="curve" smooth="yes"/>
      <point x="554" y="204"/>
      <point x="573" y="185"/>
    </contour>
    <contour>
      <point x="500" y="86" type="curve" smooth="yes"/>
      <point x="526" y="86"/>
      <point x="545" y="105"/>
      <point x="545" y="131" type="curve" smooth="yes"/>
      <point x="545" y="157"/>
      <point x="526" y="176"/>
      <point x="500" y="176" type="curve" smooth="yes"/>
      <point x="474" y="176"/>
      <point x="455" y="157"/>
      <point x="455" y="131" type="curve" smooth="yes"/>
      <point x="455" y="105"/>
      <point x="474" y="86"/>
    </contour>
    <contour>
      <point x="365" y="50" type="curve" smooth="yes"/>
      <point x="391" y="50"/>
      <point x="410" y="69"/>
      <point x="410" y="95" type="curve" smooth="yes"/>
      <point x="410" y="121"/>
      <point x="391" y="140"/>
      <point x="365" y="140" type="curve" smooth="yes"/>
      <point x="339" y="140"/>
      <point x="320" y="121"/>
      <point x="320" y="95" type="curve" smooth="yes"/>
      <point x="320" y="69"/>
      <point x="339" y="50"/>
    </contour>
    <contour>
      <point x="230" y="86" type="curve" smooth="yes"/>
      <point x="256" y="86"/>
      <point x="275" y="105"/>
      <point x="275" y="131" type="curve" smooth="yes"/>
      <point x="275" y="157"/>
      <point x="256" y="176"/>
      <point x="230" y="176" type="curve" smooth="yes"/>
      <point x="204" y="176"/>
      <point x="185" y="157"/>
      <point x="185" y="131" type="curve" smooth="yes"/>
      <point x="185" y="105"/>
      <point x="204" y="86"/>
    </contour>
    <contour>
      <point x="131" y="185" type="curve" smooth="yes"/>
      <point x="157" y="185"/>
      <point x="176" y="204"/>
      <point x="176" y="230" type="curve" smooth="yes"/>
      <point x="176" y="256"/>
      <point x="157" y="275"/>
      <point x="131" y="275" type="curve" smooth="yes"/>
      <point x="105" y="275"/>
      <point x="86" y="256"/>
      <point x="86" y="230" type="curve" smooth="yes"/>
      <point x="86" y="204"/>
      <point x="105" y="185"/>
    </contour>
    <contour>
      <point x="95" y="320" type="curve" smooth="yes"/>
      <point x="121" y="320"/>
      <point x="140" y="338"/>
      <point x="140" y="365" type="curve" smooth="yes"/>
      <point x="140" y="391"/>
      <point x="121" y="409"/>
      <point x="95" y="409" type="curve" smooth="yes"/>
      <point x="69" y="409"/>
      <point x="50" y="391"/>
      <point x="50" y="365" type="curve" smooth="yes"/>
      <point x="50" y="338"/>
      <point x="69" y="320"/>
    </contour>
    <contour>
      <point x="131" y="454" type="curve" smooth="yes"/>
      <point x="157" y="454"/>
      <point x="176" y="473"/>
      <point x="176" y="499" type="curve" smooth="yes"/>
      <point x="176" y="525"/>
      <point x="157" y="544"/>
      <point x="131" y="544" type="curve" smooth="yes"/>
      <point x="105" y="544"/>
      <point x="86" y="525"/>
      <point x="86" y="499" type="curve" smooth="yes"/>
      <point x="86" y="473"/>
      <point x="105" y="454"/>
    </contour>
    <contour>
      <point x="230" y="553" type="curve" smooth="yes"/>
      <point x="256" y="553"/>
      <point x="275" y="572"/>
      <point x="275" y="598" type="curve" smooth="yes"/>
      <point x="275" y="624"/>
      <point x="256" y="643"/>
      <point x="230" y="643" type="curve" smooth="yes"/>
      <point x="204" y="643"/>
      <point x="185" y="624"/>
      <point x="185" y="598" type="curve" smooth="yes"/>
      <point x="185" y="572"/>
      <point x="204" y="553"/>
    </contour>
  </outline>
</glyph>
<glyph name="blackCircle" format="2">
  <advance width="706"/>
  <unicode hex="25CF"/>
  <anchor x="353" y="366" name="center"/>
  <outline>
    <contour>
      <point x="353" y="-7" type="curve" smooth="yes"/>
      <point x="173" y="-7"/>
      <point x="40" y="122"/>
      <point x="40" y="366" type="curve" smooth="yes"/>
      <point x="40" y="610"/>
      <point x="173" y="739"/>
      <point x="353" y="739" type="curve" smooth="yes"/>
      <point x="533" y="739"/>
      <point x="666" y="610"/>
      <point x="666" y="366" type="curve" smooth="yes"/>
      <point x="666" y="122"/>
      <point x="533" y="-7"/>
    </contour>
  </outline>
</glyph>
<glyph name="checkmark" format="2">
  <advance width="809"/>
  <unicode hex="2713"/>
  <outline>
    <contour>
      <point x="286" y="67" type="line"/>
      <point x="782" y="533" type="line"/>
      <point x="676" y="658" type="line"/>
      <point x="299" y="299" type="line"/>
      <point x="158" y="463" type="line"/>
      <point x="41" y="356" type="line"/>
    </contour>
  </outline>
</glyph>
<glyph name="fi" format="2">
  <advance width="542"/>
  <unicode hex="FB01"/>
  <outline>
    <contour>
      <point x="59" y="0" type="line"/>
      <point x="236" y="0" type="line"/>
      <point x="236" y="400" type="line"/>
      <point x="338" y="400" type="line"/>
      <point x="338" y="0" type="line"/>
      <point x="515" y="0" type="line"/>
      <point x="515" y="541" type="line"/>
      <point x="236" y="541" type="line"/>
      <point x="236" y="561" type="line" smooth="yes"/>
      <point x="236" y="593"/>
      <point x="243" y="605"/>
      <point x="272" y="605" type="curve" smooth="yes"/>
      <point x="300" y="605" type="line"/>
      <point x="300" y="729" type="line"/>
      <point x="222" y="729" type="line" smooth="yes"/>
      <point x="102" y="729"/>
      <point x="59" y="672"/>
      <point x="59" y="575" type="curve" smooth="yes"/>
      <point x="59" y="539" type="line"/>
      <point x="11" y="541" type="line"/>
      <point x="11" y="398" type="line"/>
      <point x="59" y="401" type="line"/>
    </contour>
    <contour>
      <point x="427" y="586" type="curve" smooth="yes"/>
      <point x="480" y="586"/>
      <point x="521" y="615"/>
      <point x="521" y="668" type="curve" smooth="yes"/>
      <point x="521" y="721"/>
      <point x="480" y="751"/>
      <point x="427" y="751" type="curve" smooth="yes"/>
      <point x="374" y="751"/>
      <point x="333" y="721"/>
      <point x="333" y="668" type="curve" smooth="yes"/>
      <point x="333" y="615"/>
      <point x="374" y="586"/>
    </contour>
  </outline>
</glyph>
<glyph name="G.ss06" format="2">
  <advance width="485"/>
  <anchor x="245" y="0" name="bottom"/>
  <anchor x="252" y="729" name="top"/>
  <outline>
    <contour>
      <point x="248" y="-9" type="curve" smooth="yes"/>
      <point x="380" y="-9"/>
      <point x="467" y="74"/>
      <point x="467" y="249" type="curve" smooth="yes"/>
      <point x="467" y="399" type="line"/>
      <point x="249" y="399" type="line"/>
      <point x="249" y="264" type="line"/>
      <point x="340" y="264" type="line"/>
      <point x="297" y="307" type="line"/>
      <point x="297" y="254" type="line" smooth="yes"/>
      <point x="297" y="185"/>
      <point x="288" y="147"/>
      <point x="252" y="147" type="curve" smooth="yes"/>
      <point x="208" y="147"/>
      <point x="197" y="192"/>
      <point x="197" y="370" type="curve" smooth="yes"/>
      <point x="197" y="540"/>
      <point x="208" y="583"/>
      <point x="250" y="583" type="curve" smooth="yes"/>
      <point x="281" y="583"/>
      <point x="297" y="555"/>
      <point x="297" y="465" type="curve"/>
      <point x="467" y="465" type="line"/>
      <point x="468" y="640"/>
      <point x="400" y="739"/>
      <point x="252" y="739" type="curve" smooth="yes"/>
      <point x="112" y="739"/>
      <point x="16" y="662"/>
      <point x="16" y="370" type="curve" smooth="yes"/>
      <point x="16" y="143"/>
      <point x="63" y="-9"/>
    </contour>
  </outline>
</glyph>
<glyph name="I.ss02" format="2">
  <advance width="359"/>
  <anchor x="180" y="0" name="bottom"/>
  <anchor x="342" y="0" name="ogonek"/>
  <anchor x="180" y="729" name="top"/>
  <anchor x="27" y="729" name="topleft"/>
  <outline>
    <contour>
      <point x="85" y="143" type="line"/>
      <point x="269" y="143" type="line"/>
      <point x="269" y="586" type="line"/>
      <point x="85" y="586" type="line"/>
    </contour>
    <contour>
      <point x="17" y="570" type="line"/>
      <point x="342" y="570" type="line"/>
      <point x="342" y="729" type="line"/>
      <point x="17" y="729" type="line"/>
    </contour>
    <contour>
      <point x="17" y="0" type="line"/>
      <point x="342" y="0" type="line"/>
      <point x="342" y="159" type="line"/>
      <point x="17" y="159" type="line"/>
    </contour>
  </outline>
</glyph>
<glyph name="_B.currency" format="2">
  <advance width="476"/>
  <anchor x="246" y="0" name="bottom"/>
  <outline>
    <contour>
      <point x="34" y="0" type="line"/>
      <point x="231" y="0" type="line" smooth="yes"/>
      <point x="375" y="0"/>
      <point x="458" y="70"/>
      <point x="458" y="206" type="curve" smooth="yes"/>
      <point x="458" y="296"/>
      <point x="425" y="360"/>
      <point x="362" y="381" type="curve"/>
      <point x="362" y="387" type="line"/>
      <point x="411" y="404"/>
      <point x="443" y="465"/>
      <point x="443" y="537" type="curve" smooth="yes"/>
      <point x="443" y="654"/>
      <point x="391" y="729"/>
      <point x="249" y="729" type="curve" smooth="yes"/>
      <point x="34" y="729" type="line"/>
    </contour>
    <contour>
      <point x="213" y="141" type="line"/>
      <point x="213" y="309" type="line"/>
      <point x="230" y="309" type="line" smooth="yes"/>
      <point x="261" y="309"/>
      <point x="281" y="285"/>
      <point x="281" y="225" type="curve" smooth="yes"/>
      <point x="281" y="172"/>
      <point x="268" y="141"/>
      <point x="229" y="141" type="curve" smooth="yes"/>
    </contour>
    <contour>
      <point x="213" y="433" type="line"/>
      <point x="213" y="591" type="line"/>
      <point x="230" y="591" type="line" smooth="yes"/>
      <point x="260" y="591"/>
      <point x="276" y="568"/>
      <point x="276" y="513" type="curve" smooth="yes"/>
      <point x="276" y="465"/>
      <point x="265" y="433"/>
      <point x="230" y="433" type="curve" smooth="yes"/>
    </contour>
  </outline>
</glyph>
<glyph name="_Thorn.bowl" format="2">
  <advance width="355"/>
  <anchor x="-27" y="0" name="_bottom"/>
  <outline>
    <contour>
      <point x="40" y="106" type="line"/>
      <point x="85" y="106" type="line" smooth="yes"/>
      <point x="238" y="106"/>
      <point x="315" y="190"/>
      <point x="315" y="365" type="curve" smooth="yes"/>
      <point x="315" y="538"/>
      <point x="238" y="623"/>
      <point x="85" y="623" type="curve" smooth="yes"/>
      <point x="40" y="623" type="line"/>
      <point x="40" y="466" type="line"/>
      <point x="79" y="466" type="line" smooth="yes"/>
      <point x="116" y="466"/>
      <point x="134" y="444"/>
      <point x="134" y="367" type="curve" smooth="yes"/>
      <point x="134" y="302"/>
      <point x="125" y="263"/>
      <point x="79" y="263" type="curve" smooth="yes"/>
      <point x="40" y="263" type="line"/>
    </contour>
  </outline>
</glyph>
